<svg width="284" height="258" viewBox="0 0 284 258" fill="none" xmlns="http://www.w3.org/2000/svg">
<path d="M157.906 183.54L217.651 148.606V35.6541C217.651 35.6541 217.627 35.6419 217.602 35.6541L157.906 70.4239V183.54Z" fill="#A3C6FF"/>
<path d="M97.7348 35.6541L157.906 70.4482V183.509C157.906 183.509 157.925 183.552 157.906 183.54L97.7348 148.63V35.6541Z" fill="#C1DAFF"/>
<path fill-rule="evenodd" clip-rule="evenodd" d="M157.906 70.4117L217.651 35.6541L157.906 0L97.7348 35.6541L157.906 70.4117Z" fill="url(#paint0_linear_35_1470)"/>
<path fill-rule="evenodd" clip-rule="evenodd" d="M137.428 20.1594L132.317 23.1113C131.933 23.3309 131.933 23.6236 132.183 23.7761L135.342 27.222C134.061 28.5454 132.847 24.4897 132.207 25.8924L125.273 20.5864C124.766 20.5864 125.12 32.8329 125.12 33.1257L125.096 37.2424C125.096 37.5352 125.474 37.7547 125.858 37.8279L131.841 39.3343C131.713 39.5539 131.786 47.0007 132.164 47.2202L137.239 50.1477C137.617 50.3672 138.129 50.3672 138.385 50.2209L144.509 48.2997C146.668 49.1048 149.211 49.6842 151.626 50.0501L153.511 53.7948C153.639 54.0144 154.017 54.2339 154.529 54.2339L161.659 54.2217C162.165 54.2217 162.549 54.0022 162.677 53.7765L164.61 50.0257C167.032 49.6537 169.581 49.0621 171.752 48.2448L177.851 50.1416C178.107 50.288 178.614 50.288 178.998 50.0684L184.109 47.1165C184.493 46.897 184.566 39.0721 184.444 38.8525L190.537 37.6998C190.921 37.6267 191.305 37.4071 191.305 37.1083L191.33 32.9915C191.33 32.6988 191.836 20.812 191.33 20.812L185.219 22.9405C184.59 21.5439 182.444 28.4539 181.181 27.1305L184.383 23.6724C184.639 23.526 184.639 23.2333 184.261 23.0137L179.187 20.0863C178.809 19.8667 178.296 19.8667 177.912 19.9399L172.045 21.861C169.758 21.1292 167.215 20.5498 164.8 20.1838L162.915 16.4391C162.915 16.1464 162.409 16 161.896 16L154.767 16.0122C154.261 16.0122 153.748 16.1586 153.748 16.4574L151.815 20.2082C149.394 20.5803 146.844 21.1719 144.545 21.9159L138.702 20.0192C138.318 19.946 137.812 19.946 137.428 20.1716V20.1594Z" fill="#579900"/>
<path fill-rule="evenodd" clip-rule="evenodd" d="M137.847 7.64797L132.736 10.5998C132.352 10.8194 132.352 11.1121 132.602 11.2646L135.761 14.7105C134.481 16.0339 133.45 17.5099 132.81 18.9065L126.308 20.0226C125.802 20.0226 125.54 20.3154 125.54 20.6142L125.515 24.731C125.515 25.0237 125.893 25.2433 126.278 25.3165L132.761 26.4081C133.389 27.8048 134.395 29.2685 135.792 30.5188L132.334 33.983C132.206 34.2025 132.206 34.4953 132.584 34.7148L137.658 37.6423C138.036 37.8619 138.549 37.8619 138.805 37.7155L144.928 35.7943C147.087 36.5994 149.63 37.1788 152.045 37.5447L153.93 41.2894C154.058 41.509 154.436 41.7286 154.949 41.7286L162.078 41.7164C162.584 41.7164 162.969 41.4968 163.097 41.2711L165.03 37.5203C167.451 37.1483 170.001 36.5567 172.172 35.7395L178.271 37.6362C178.527 37.7826 179.033 37.7826 179.417 37.563L184.528 34.6112C184.912 34.3916 184.912 34.0988 184.784 33.8732L181.369 30.4273C182.778 29.177 183.802 27.7011 184.449 26.3045L190.95 25.1884C191.335 25.1152 191.719 24.8956 191.719 24.5968L191.743 20.48C191.743 20.1873 191.493 19.8945 190.981 19.8945L184.498 18.8028C183.869 17.4062 182.863 15.9425 181.595 14.619L184.797 11.1609C185.053 11.0146 185.053 10.7218 184.675 10.5022L179.6 7.57478C179.222 7.35522 178.71 7.35522 178.326 7.42841L172.458 9.34956C170.171 8.61769 167.628 8.0383 165.213 7.67236L163.328 3.92764C163.328 3.6349 162.822 3.48853 162.31 3.48853L155.18 3.50072C154.674 3.50072 154.162 3.6471 154.162 3.94594L152.228 7.69676C149.807 8.06879 147.258 8.66038 144.959 9.40445L139.116 7.50769C138.732 7.43451 138.225 7.43451 137.841 7.66017L137.847 7.64797Z" fill="#93D500"/>
<path fill-rule="evenodd" clip-rule="evenodd" d="M97.2298 218.13L157.313 183.437L97.6637 149L37.5802 183.693L97.2298 218.13Z" fill="#579900" stroke="#5786FF" stroke-width="0.304944" stroke-miterlimit="10"/>
<path fill-rule="evenodd" clip-rule="evenodd" d="M69.2359 195.829L73.0227 192.036C71.4975 190.669 70.393 189.064 69.7027 187.533L62.5957 186.343C62.175 186.264 61.7608 186.02 61.7608 185.698L61.7871 181.188C61.7871 180.866 62.0698 180.544 62.6286 180.544L69.7487 179.321C70.4587 177.789 71.5829 176.179 72.9833 174.726L69.5186 170.952C69.2425 170.794 69.2425 170.472 69.6632 170.229L75.258 166.994C75.6788 166.751 76.2376 166.751 76.6518 166.83L83.0553 168.907C85.5733 168.099 88.3608 167.448 91.0169 167.04L93.1338 162.931C93.1338 162.609 93.6926 162.445 94.2515 162.445L102.062 162.432C102.621 162.432 103.179 162.589 103.173 162.911L105.237 167.014C107.887 167.408 110.668 168.046 113.173 168.848L119.602 166.744C120.023 166.665 120.575 166.659 120.996 166.902L126.552 170.11C126.966 170.354 126.966 170.676 126.69 170.834L123.179 174.627C124.566 176.073 125.671 177.684 126.354 179.209L133.461 180.399C134.02 180.399 134.296 180.721 134.296 181.044L134.27 185.554C134.27 185.876 133.849 186.119 133.428 186.198L126.308 187.421C125.598 188.953 124.474 190.563 122.936 191.937L126.676 195.711C126.814 195.954 126.814 196.277 126.394 196.52L120.799 199.754C120.378 199.998 119.819 199.998 119.543 199.84L112.864 197.762C110.49 198.65 107.696 199.301 105.04 199.708L102.923 203.817C102.785 204.061 102.364 204.304 101.805 204.304L93.9951 204.317C93.4362 204.317 93.022 204.08 92.884 203.837L90.8196 199.735C88.1701 199.34 85.3892 198.702 83.0224 197.822L76.3165 199.932C76.0338 200.096 75.4816 200.096 75.0608 199.853L69.5054 196.645C69.0912 196.401 69.0912 196.079 69.2293 195.843L69.2359 195.829ZM89.0511 189.801C95.2705 192.93 104.856 192.529 110.319 188.913C115.783 185.297 115.158 179.768 108.939 176.639C102.719 173.509 93.1338 173.91 87.6705 177.526C82.2072 181.142 82.8317 186.671 89.0511 189.801Z" fill="#93D500"/>
<g style="mix-blend-mode:multiply" opacity="0.2" filter="url(#filter0_f_35_1470)">
<path fill-rule="evenodd" clip-rule="evenodd" d="M100.703 200.053L143.358 175.426L101.007 150.976L58.3518 175.603L100.703 200.053Z" fill="#0035C8"/>
</g>
<path fill-rule="evenodd" clip-rule="evenodd" d="M139.344 83.687L157.281 73.3311L139.478 63.0544L121.541 73.4043L139.344 83.687Z" fill="#E61408"/>
<path fill-rule="evenodd" clip-rule="evenodd" d="M132.519 76.35L133.428 75.4413C133.062 75.112 132.8 74.7277 132.635 74.3618L130.934 74.0751C130.836 74.0568 130.732 73.9959 130.732 73.9227V72.8432C130.738 72.7639 130.806 72.6907 130.94 72.6907L132.641 72.3979C132.812 72.032 133.08 71.6478 133.416 71.3001L132.586 70.3975C132.519 70.3609 132.519 70.2816 132.623 70.2267L133.965 69.4522C134.062 69.3912 134.197 69.3912 134.3 69.4156L135.831 69.9157C136.435 69.7205 137.1 69.5681 137.734 69.4705L138.24 68.4886C138.24 68.4093 138.374 68.3727 138.508 68.3727H140.375C140.509 68.3727 140.643 68.4093 140.643 68.4825L141.137 69.4644C141.771 69.562 142.436 69.7144 143.034 69.9035L144.571 69.3973C144.668 69.379 144.803 69.379 144.906 69.4339L146.236 70.2023C146.333 70.2572 146.333 70.3365 146.266 70.3731L145.425 71.2819C145.754 71.6295 146.022 72.0137 146.187 72.3796L147.889 72.6663C148.023 72.6663 148.09 72.7456 148.09 72.8188V73.8983C148.084 73.9776 147.98 74.0324 147.882 74.0507L146.181 74.3435C146.01 74.7094 145.742 75.0937 145.376 75.423L146.272 76.3256C146.303 76.3805 146.303 76.4598 146.205 76.5208L144.864 77.2954C144.766 77.3563 144.632 77.3563 144.565 77.3137L142.967 76.8135C142.4 77.027 141.729 77.1795 141.094 77.2771L140.588 78.259C140.552 78.3139 140.454 78.3749 140.32 78.3749H138.454C138.319 78.3749 138.222 78.32 138.185 78.2651L137.691 77.2832C137.057 77.1856 136.392 77.0331 135.825 76.8257L134.221 77.332C134.154 77.3685 134.02 77.3685 133.922 77.3137L132.593 76.5452C132.495 76.4903 132.495 76.411 132.525 76.35H132.519ZM137.258 74.9046C138.746 75.6547 141.04 75.5572 142.345 74.6911C143.65 73.8251 143.503 72.5016 142.015 71.7576C140.527 71.0074 138.234 71.105 136.929 71.971C135.624 72.8371 135.77 74.1605 137.258 74.9046Z" fill="white"/>
<path fill-rule="evenodd" clip-rule="evenodd" d="M116.644 70.5805L134.575 60.2246L116.772 49.9419L98.8352 60.2978L116.644 70.5805Z" fill="#FFD500"/>
<path fill-rule="evenodd" clip-rule="evenodd" d="M109.813 63.2435L110.722 62.3347C110.356 62.0054 110.094 61.6212 109.929 61.2552L108.227 60.9686C108.13 60.9503 108.026 60.8893 108.026 60.8161V59.7366C108.032 59.6573 108.099 59.5841 108.233 59.5841L109.935 59.2914C110.106 58.9255 110.374 58.5412 110.71 58.1936L109.88 57.2909C109.813 57.2544 109.813 57.1751 109.917 57.1202L111.259 56.3456C111.356 56.2846 111.49 56.2846 111.594 56.309L113.125 56.8091C113.729 56.614 114.393 56.4615 115.028 56.3639L115.534 55.382C115.534 55.3027 115.668 55.2661 115.802 55.2661H117.668C117.803 55.2661 117.937 55.3027 117.937 55.3759L118.431 56.3578C119.065 56.4554 119.73 56.6079 120.328 56.7969L121.864 56.2907C121.962 56.2724 122.096 56.2724 122.2 56.3273L123.529 57.0958C123.627 57.1507 123.627 57.23 123.56 57.2666L122.718 58.1753C123.048 58.5229 123.316 58.9072 123.481 59.2731L125.182 59.5597C125.316 59.5597 125.384 59.639 125.384 59.7122V60.7917C125.377 60.871 125.274 60.9259 125.176 60.9442L123.475 61.2369C123.304 61.6029 123.035 61.9871 122.67 62.3164L123.566 63.2191C123.597 63.274 123.597 63.3532 123.499 63.4142L122.157 64.1888C122.06 64.2498 121.925 64.2498 121.858 64.2071L120.26 63.707C119.693 63.9204 119.022 64.0729 118.388 64.1705L117.882 65.1524C117.845 65.2073 117.748 65.2683 117.614 65.2683H115.747C115.613 65.2683 115.516 65.2134 115.479 65.1585L114.985 64.1766C114.351 64.079 113.686 63.9265 113.119 63.7192L111.515 64.2254C111.448 64.262 111.313 64.262 111.216 64.2071L109.886 63.4386C109.789 63.3837 109.789 63.3045 109.819 63.2435H109.813ZM114.552 61.798C116.04 62.5482 118.333 62.4506 119.638 61.5846C120.944 60.7185 120.797 59.3951 119.309 58.651C117.821 57.9008 115.528 57.9984 114.223 58.8645C112.917 59.7305 113.064 61.054 114.552 61.798Z" fill="white"/>
<path fill-rule="evenodd" clip-rule="evenodd" d="M94.2243 57.6386L112.161 47.2827L94.3585 37L76.4216 47.3559L94.2243 57.6386Z" fill="#93D500"/>
<path fill-rule="evenodd" clip-rule="evenodd" d="M114.833 98.0438L139.344 83.687L121.541 73.4043L97.0299 87.7611L114.833 98.0438Z" fill="white" fill-opacity="0.75"/>
<path fill-rule="evenodd" clip-rule="evenodd" d="M92.1324 84.9372L116.644 70.5805L98.835 60.2977L74.3236 74.6545L92.1324 84.9372Z" fill="white" fill-opacity="0.75"/>
<path fill-rule="evenodd" clip-rule="evenodd" d="M69.7129 71.9955L94.2244 57.6387L76.4217 47.356L51.9103 61.7127L69.7129 71.9955Z" fill="white" fill-opacity="0.75"/>
<path fill-rule="evenodd" clip-rule="evenodd" d="M87.3998 50.3017L88.3085 49.393C87.9425 49.0636 87.6803 48.6794 87.5156 48.3134L85.814 48.0268C85.7165 48.0085 85.6128 47.9475 85.6128 47.8743V46.7948C85.6189 46.7155 85.686 46.6424 85.8201 46.6424L87.5217 46.3496C87.6925 45.9837 87.9609 45.5994 88.2963 45.2518L87.4668 44.3492C87.3997 44.3126 87.3997 44.2333 87.5034 44.1784L88.8452 43.4038C88.9428 43.3429 89.0769 43.3429 89.1806 43.3673L90.7114 43.8674C91.3152 43.6722 91.98 43.5197 92.6143 43.4221L93.1205 42.4402C93.1205 42.3609 93.2547 42.3243 93.3889 42.3243H95.2551C95.3893 42.3243 95.5235 42.3609 95.5235 42.4341L96.0175 43.416C96.6518 43.5136 97.3165 43.6661 97.9142 43.8552L99.4512 43.349C99.5487 43.3307 99.6829 43.3307 99.7866 43.3855L101.116 44.154C101.214 44.2089 101.214 44.2882 101.147 44.3248L100.305 45.2335C100.634 45.5811 100.903 45.9654 101.067 46.3313L102.769 46.618C102.903 46.618 102.97 46.6972 102.97 46.7704V47.8499C102.964 47.9292 102.86 47.9841 102.763 48.0024L101.061 48.2952C100.89 48.6611 100.622 49.0453 100.256 49.3747L101.153 50.2773C101.183 50.3322 101.183 50.4115 101.086 50.4725L99.7439 51.247C99.6463 51.308 99.5121 51.308 99.4451 51.2653L97.8472 50.7652C97.28 50.9787 96.6091 51.1311 95.9748 51.2287L95.4686 52.2106C95.432 52.2655 95.3344 52.3265 95.2002 52.3265H93.334C93.1998 52.3265 93.1022 52.2716 93.0656 52.2167L92.5716 51.2348C91.9373 51.1372 91.2725 50.9848 90.7053 50.7774L89.1013 51.2836C89.0343 51.3202 88.9001 51.3202 88.8025 51.2653L87.4729 50.4968C87.3754 50.442 87.3754 50.3627 87.4059 50.3017H87.3998ZM92.1386 48.8563C93.6267 49.6064 95.9199 49.5088 97.2251 48.6428C98.5302 47.7767 98.3839 46.4533 96.8957 45.7092C95.4076 44.9591 93.1144 45.0566 91.8093 45.9227C90.5041 46.7887 90.6505 48.1122 92.1386 48.8563Z" fill="white"/>
<g opacity="0.75">
<path fill-rule="evenodd" clip-rule="evenodd" d="M232.97 102.333L250.224 92.3738L233.098 82.4875L215.844 92.447L232.97 102.333Z" fill="#2E62FF"/>
<path fill-rule="evenodd" clip-rule="evenodd" d="M226.401 95.2769L227.273 94.4048C226.92 94.0876 226.67 93.7217 226.511 93.3679L224.877 93.0935C224.779 93.0752 224.687 93.0203 224.687 92.9471V91.9103C224.694 91.8371 224.761 91.7639 224.889 91.7639L226.529 91.4834C226.694 91.1297 226.95 90.7576 227.273 90.4283L226.474 89.5561C226.413 89.5195 226.413 89.4464 226.505 89.3915L227.792 88.6474C227.889 88.5925 228.017 88.5925 228.115 88.6108L229.591 89.0865C230.17 88.8975 230.811 88.7511 231.421 88.6535L231.909 87.7082C231.909 87.635 232.037 87.5984 232.165 87.5984H233.964C234.092 87.5984 234.22 87.6289 234.22 87.7082L234.696 88.6535C235.306 88.745 235.946 88.8914 236.525 89.0743L238.007 88.5925C238.105 88.5742 238.233 88.5742 238.331 88.6291L239.611 89.3671C239.709 89.422 239.709 89.4952 239.642 89.5317L238.837 90.4039C239.154 90.7393 239.41 91.1053 239.569 91.459L241.203 91.7334C241.331 91.7334 241.392 91.8066 241.392 91.8798V92.9166C241.386 92.9898 241.289 93.0447 241.191 93.063L239.55 93.3436C239.386 93.6973 239.13 94.0693 238.776 94.3804L239.636 95.2464C239.666 95.3013 239.666 95.3745 239.569 95.4294L238.282 96.1734C238.184 96.2283 238.056 96.2283 237.995 96.1917L236.458 95.716C235.909 95.9234 235.269 96.0697 234.659 96.1673L234.171 97.1127C234.141 97.1675 234.043 97.2224 233.915 97.2224H232.116C231.988 97.2224 231.89 97.1736 231.86 97.1127L231.384 96.1673C230.774 96.0758 230.134 95.9295 229.591 95.7282L228.048 96.2161C227.981 96.2527 227.853 96.2527 227.761 96.1978L226.481 95.4599C226.383 95.405 226.383 95.3318 226.42 95.2769H226.401ZM230.963 93.8864C232.396 94.606 234.598 94.5145 235.861 93.6851C237.123 92.8556 236.977 91.581 235.543 90.8613C234.11 90.1416 231.909 90.2331 230.646 91.0626C229.39 91.892 229.53 93.1667 230.963 93.8864Z" fill="#0035C8"/>
<path fill-rule="evenodd" clip-rule="evenodd" d="M175.506 135.511L232.97 102.333L215.844 92.447L158.381 125.625L175.506 135.511Z" fill="white" fill-opacity="0.75"/>
</g>
<path fill-rule="evenodd" clip-rule="evenodd" d="M232.97 83.4694L250.224 73.51L233.098 63.6237L215.844 73.5831L232.97 83.4694Z" fill="#2E62FF"/>
<path fill-rule="evenodd" clip-rule="evenodd" d="M226.401 76.413L227.273 75.5409C226.92 75.2237 226.67 74.8578 226.511 74.504L224.877 74.2296C224.779 74.2113 224.687 74.1564 224.687 74.0832V73.0464C224.694 72.9732 224.761 72.9 224.889 72.9L226.529 72.6195C226.694 72.2658 226.95 71.8937 227.273 71.5644L226.474 70.6922C226.413 70.6556 226.413 70.5825 226.505 70.5276L227.792 69.7835C227.889 69.7286 228.017 69.7286 228.115 69.7469L229.591 70.2226C230.17 70.0336 230.811 69.8872 231.421 69.7896L231.909 68.8443C231.909 68.7711 232.037 68.7345 232.165 68.7345H233.964C234.092 68.7345 234.22 68.765 234.22 68.8443L234.696 69.7896C235.306 69.8811 235.946 70.0275 236.525 70.2104L238.007 69.7286C238.105 69.7103 238.233 69.7103 238.331 69.7652L239.611 70.5032C239.709 70.5581 239.709 70.6313 239.642 70.6678L238.837 71.54C239.154 71.8754 239.41 72.2414 239.569 72.5951L241.203 72.8695C241.331 72.8695 241.392 72.9427 241.392 73.0159V74.0527C241.386 74.1259 241.289 74.1808 241.191 74.1991L239.55 74.4796C239.386 74.8334 239.13 75.2054 238.776 75.5165L239.636 76.3825C239.666 76.4374 239.666 76.5106 239.569 76.5655L238.282 77.3095C238.184 77.3644 238.056 77.3644 237.995 77.3278L236.458 76.8521C235.909 77.0595 235.269 77.2059 234.659 77.3034L234.171 78.2488C234.141 78.3037 234.043 78.3585 233.915 78.3585H232.116C231.988 78.3585 231.89 78.3098 231.86 78.2488L231.384 77.3034C230.774 77.212 230.134 77.0656 229.591 76.8643L228.048 77.3522C227.981 77.3888 227.853 77.3888 227.761 77.3339L226.481 76.596C226.383 76.5411 226.383 76.4679 226.42 76.413H226.401ZM230.963 75.0225C232.396 75.7421 234.598 75.6506 235.861 74.8212C237.123 73.9917 236.977 72.7171 235.543 71.9974C234.11 71.2777 231.909 71.3692 230.646 72.1987C229.39 73.0281 229.53 74.3028 230.963 75.0225Z" fill="#0035C8"/>
<g filter="url(#filter1_d_35_1470)">
<path fill-rule="evenodd" clip-rule="evenodd" d="M175.506 116.647L232.97 83.4694L215.844 73.5831L158.381 106.761L175.506 116.647Z" fill="white" fill-opacity="0.75" shape-rendering="crispEdges"/>
</g>
<g opacity="0.25">
<path fill-rule="evenodd" clip-rule="evenodd" d="M232.97 140.655L250.224 130.695L233.098 120.809L215.844 130.768L232.97 140.655Z" fill="#2E62FF"/>
<path fill-rule="evenodd" clip-rule="evenodd" d="M226.401 133.598L227.273 132.726C226.92 132.409 226.67 132.043 226.511 131.689L224.877 131.415C224.779 131.397 224.687 131.342 224.687 131.269V130.232C224.694 130.159 224.761 130.085 224.889 130.085L226.529 129.805C226.694 129.451 226.95 129.079 227.273 128.75L226.474 127.878C226.413 127.841 226.413 127.768 226.505 127.713L227.792 126.969C227.889 126.914 228.017 126.914 228.115 126.932L229.591 127.408C230.17 127.219 230.811 127.072 231.421 126.975L231.909 126.03C231.909 125.956 232.037 125.92 232.165 125.92H233.964C234.092 125.92 234.22 125.95 234.22 126.03L234.696 126.975C235.306 127.066 235.946 127.213 236.525 127.396L238.007 126.914C238.105 126.896 238.233 126.896 238.331 126.951L239.611 127.688C239.709 127.743 239.709 127.817 239.642 127.853L238.837 128.725C239.154 129.061 239.41 129.427 239.569 129.78L241.203 130.055C241.331 130.055 241.392 130.128 241.392 130.201V131.238C241.386 131.311 241.289 131.366 241.191 131.384L239.55 131.665C239.386 132.019 239.13 132.391 238.776 132.702L239.636 133.568C239.666 133.623 239.666 133.696 239.569 133.751L238.282 134.495C238.184 134.55 238.056 134.55 237.995 134.513L236.458 134.037C235.909 134.245 235.269 134.391 234.659 134.489L234.171 135.434C234.141 135.489 234.043 135.544 233.915 135.544H232.116C231.988 135.544 231.89 135.495 231.86 135.434L231.384 134.489C230.774 134.397 230.134 134.251 229.591 134.05L228.048 134.538C227.981 134.574 227.853 134.574 227.761 134.519L226.481 133.781C226.383 133.726 226.383 133.653 226.42 133.598H226.401ZM230.963 132.208C232.396 132.927 234.598 132.836 235.861 132.006C237.123 131.177 236.977 129.902 235.543 129.183C234.11 128.463 231.909 128.555 230.646 129.384C229.39 130.213 229.53 131.488 230.963 132.208Z" fill="#0035C8"/>
<g filter="url(#filter2_d_35_1470)">
<path fill-rule="evenodd" clip-rule="evenodd" d="M175.506 173.833L232.97 140.655L215.844 130.768L158.381 163.946L175.506 173.833Z" fill="white" fill-opacity="0.75" shape-rendering="crispEdges"/>
</g>
</g>
<path fill-rule="evenodd" clip-rule="evenodd" d="M232.97 64.6605L250.224 54.701L233.098 44.8147L215.844 54.7742L232.97 64.6605Z" fill="#2E62FF"/>
<path fill-rule="evenodd" clip-rule="evenodd" d="M226.401 57.604L227.273 56.7319C226.92 56.4148 226.67 56.0488 226.511 55.6951L224.877 55.4206C224.779 55.4023 224.687 55.3474 224.687 55.2743V54.2375C224.694 54.1643 224.761 54.0911 224.889 54.0911L226.529 53.8105C226.694 53.4568 226.95 53.0848 227.273 52.7554L226.474 51.8833C226.413 51.8467 226.413 51.7735 226.505 51.7186L227.792 50.9745C227.889 50.9197 228.017 50.9197 228.115 50.938L229.591 51.4137C230.17 51.2246 230.811 51.0782 231.421 50.9806L231.909 50.0353C231.909 49.9621 232.037 49.9255 232.165 49.9255H233.964C234.092 49.9255 234.22 49.956 234.22 50.0353L234.696 50.9806C235.306 51.0721 235.946 51.2185 236.525 51.4015L238.007 50.9197C238.105 50.9014 238.233 50.9014 238.331 50.9562L239.611 51.6942C239.709 51.7491 239.709 51.8223 239.642 51.8589L238.837 52.731C239.154 53.0665 239.41 53.4324 239.569 53.7861L241.203 54.0606C241.331 54.0606 241.392 54.1338 241.392 54.207V55.2438C241.386 55.317 241.289 55.3718 241.191 55.3901L239.55 55.6707C239.386 56.0244 239.13 56.3965 238.776 56.7075L239.636 57.5735C239.666 57.6284 239.666 57.7016 239.569 57.7565L238.282 58.5006C238.184 58.5555 238.056 58.5555 237.995 58.5189L236.458 58.0432C235.909 58.2505 235.269 58.3969 234.659 58.4945L234.171 59.4398C234.141 59.4947 234.043 59.5496 233.915 59.5496H232.116C231.988 59.5496 231.89 59.5008 231.86 59.4398L231.384 58.4945C230.774 58.403 230.134 58.2566 229.591 58.0554L228.048 58.5433C227.981 58.5799 227.853 58.5799 227.761 58.525L226.481 57.787C226.383 57.7321 226.383 57.6589 226.42 57.604H226.401ZM230.963 56.2135C232.396 56.9332 234.598 56.8417 235.861 56.0122C237.123 55.1828 236.977 53.9081 235.543 53.1884C234.11 52.4688 231.909 52.5603 230.646 53.3897C229.39 54.2192 229.53 55.4938 230.963 56.2135Z" fill="#0035C8"/>
<g filter="url(#filter3_d_35_1470)">
<path fill-rule="evenodd" clip-rule="evenodd" d="M175.506 97.8384L232.97 64.6605L215.844 54.7742L158.381 87.9521L175.506 97.8384Z" fill="white" fill-opacity="0.75" shape-rendering="crispEdges"/>
</g>
<g opacity="0.5">
<path fill-rule="evenodd" clip-rule="evenodd" d="M232.97 121.846L250.224 111.886L233.098 102L215.844 111.959L232.97 121.846Z" fill="#2E62FF"/>
<path fill-rule="evenodd" clip-rule="evenodd" d="M226.401 114.789L227.273 113.917C226.92 113.6 226.67 113.234 226.511 112.88L224.877 112.606C224.779 112.588 224.687 112.533 224.687 112.46V111.423C224.694 111.35 224.761 111.276 224.889 111.276L226.529 110.996C226.694 110.642 226.95 110.27 227.273 109.941L226.474 109.069C226.413 109.032 226.413 108.959 226.505 108.904L227.792 108.16C227.889 108.105 228.017 108.105 228.115 108.123L229.591 108.599C230.17 108.41 230.811 108.264 231.421 108.166L231.909 107.221C231.909 107.147 232.037 107.111 232.165 107.111H233.964C234.092 107.111 234.22 107.141 234.22 107.221L234.696 108.166C235.306 108.257 235.946 108.404 236.525 108.587L238.007 108.105C238.105 108.087 238.233 108.087 238.331 108.142L239.611 108.88C239.709 108.934 239.709 109.008 239.642 109.044L238.837 109.916C239.154 110.252 239.41 110.618 239.569 110.971L241.203 111.246C241.331 111.246 241.392 111.319 241.392 111.392V112.429C241.386 112.502 241.289 112.557 241.191 112.575L239.55 112.856C239.386 113.21 239.13 113.582 238.776 113.893L239.636 114.759C239.666 114.814 239.666 114.887 239.569 114.942L238.282 115.686C238.184 115.741 238.056 115.741 237.995 115.704L236.458 115.228C235.909 115.436 235.269 115.582 234.659 115.68L234.171 116.625C234.141 116.68 234.043 116.735 233.915 116.735H232.116C231.988 116.735 231.89 116.686 231.86 116.625L231.384 115.68C230.774 115.588 230.134 115.442 229.591 115.241L228.048 115.729C227.981 115.765 227.853 115.765 227.761 115.71L226.481 114.972C226.383 114.917 226.383 114.844 226.42 114.789H226.401ZM230.963 113.399C232.396 114.118 234.598 114.027 235.861 113.198C237.123 112.368 236.977 111.093 235.543 110.374C234.11 109.654 231.909 109.746 230.646 110.575C229.39 111.404 229.53 112.679 230.963 113.399Z" fill="#0035C8"/>
<g filter="url(#filter4_d_35_1470)">
<path fill-rule="evenodd" clip-rule="evenodd" d="M175.506 155.024L232.97 121.846L215.844 111.959L158.381 145.137L175.506 155.024Z" fill="white" fill-opacity="0.75" shape-rendering="crispEdges"/>
</g>
</g>
<path d="M193.64 107.09V107.7" stroke="#5786FF" stroke-width="0.304944" stroke-miterlimit="10"/>
<path d="M193.64 144.105V144.715" stroke="#5786FF" stroke-width="0.304944" stroke-miterlimit="10"/>
<path d="M163.304 88.2815V88.8914" stroke="#5786FF" stroke-width="0.304944" stroke-miterlimit="10"/>
<path d="M163.304 125.296V125.906" stroke="#5786FF" stroke-width="0.304944" stroke-miterlimit="10"/>
<path d="M157.28 29.585L153.975 28.469L150.997 30.188L152.946 32.087L150.577 33.455L142.642 25.472L145.947 23.564L159.774 28.145L157.28 29.585ZM146.555 25.823L146.43 25.895L149.485 28.883L151.73 27.587L146.555 25.823ZM161.03 27.4195L150.15 21.1375L154.358 18.7075C154.888 18.4015 155.444 18.1765 156.026 18.0325C156.598 17.8825 157.175 17.8135 157.757 17.8255C158.349 17.8315 158.931 17.9155 159.503 18.0775C160.074 18.2395 160.625 18.4735 161.155 18.7795C161.685 19.0855 162.09 19.4035 162.371 19.7335C162.652 20.0635 162.797 20.3995 162.807 20.7415C162.828 21.0775 162.714 21.4135 162.464 21.7495C162.205 22.0795 161.81 22.3975 161.28 22.7035L159.425 23.7745L163.384 26.0605L161.03 27.4195ZM157.539 22.6855L158.801 21.9565C159.352 21.6385 159.627 21.3595 159.627 21.1195C159.638 20.8735 159.404 20.6125 158.926 20.3365L158.458 20.0665C157.98 19.7905 157.528 19.6555 157.102 19.6615C156.686 19.6615 156.203 19.8205 155.652 20.1385L154.39 20.8675L157.539 22.6855ZM170.362 22.032L168.631 21.033L170.97 19.683L163.55 15.399L161.211 16.749L159.481 15.75L166.496 11.7L168.226 12.699L165.888 14.049L173.308 18.333L175.646 16.983L177.377 17.982L170.362 22.032Z" fill="white"/>
<defs>
<filter id="filter0_f_35_1470" x="54.3518" y="146.976" width="93.0063" height="57.0778" filterUnits="userSpaceOnUse" color-interpolation-filters="sRGB">
<feFlood flood-opacity="0" result="BackgroundImageFix"/>
<feBlend mode="normal" in="SourceGraphic" in2="BackgroundImageFix" result="shape"/>
<feGaussianBlur stdDeviation="2" result="effect1_foregroundBlur_35_1470"/>
</filter>
<filter id="filter1_d_35_1470" x="150.381" y="73.5831" width="90.5894" height="61.0642" filterUnits="userSpaceOnUse" color-interpolation-filters="sRGB">
<feFlood flood-opacity="0" result="BackgroundImageFix"/>
<feColorMatrix in="SourceAlpha" type="matrix" values="0 0 0 0 0 0 0 0 0 0 0 0 0 0 0 0 0 0 127 0" result="hardAlpha"/>
<feOffset dy="10"/>
<feGaussianBlur stdDeviation="4"/>
<feComposite in2="hardAlpha" operator="out"/>
<feColorMatrix type="matrix" values="0 0 0 0 0 0 0 0 0 0 0 0 0 0 0 0 0 0 0.15 0"/>
<feBlend mode="normal" in2="BackgroundImageFix" result="effect1_dropShadow_35_1470"/>
<feBlend mode="normal" in="SourceGraphic" in2="effect1_dropShadow_35_1470" result="shape"/>
</filter>
<filter id="filter2_d_35_1470" x="150.381" y="130.768" width="90.5894" height="61.0642" filterUnits="userSpaceOnUse" color-interpolation-filters="sRGB">
<feFlood flood-opacity="0" result="BackgroundImageFix"/>
<feColorMatrix in="SourceAlpha" type="matrix" values="0 0 0 0 0 0 0 0 0 0 0 0 0 0 0 0 0 0 127 0" result="hardAlpha"/>
<feOffset dy="10"/>
<feGaussianBlur stdDeviation="4"/>
<feComposite in2="hardAlpha" operator="out"/>
<feColorMatrix type="matrix" values="0 0 0 0 0 0 0 0 0 0 0 0 0 0 0 0 0 0 0.15 0"/>
<feBlend mode="normal" in2="BackgroundImageFix" result="effect1_dropShadow_35_1470"/>
<feBlend mode="normal" in="SourceGraphic" in2="effect1_dropShadow_35_1470" result="shape"/>
</filter>
<filter id="filter3_d_35_1470" x="150.381" y="54.7742" width="90.5894" height="61.0642" filterUnits="userSpaceOnUse" color-interpolation-filters="sRGB">
<feFlood flood-opacity="0" result="BackgroundImageFix"/>
<feColorMatrix in="SourceAlpha" type="matrix" values="0 0 0 0 0 0 0 0 0 0 0 0 0 0 0 0 0 0 127 0" result="hardAlpha"/>
<feOffset dy="10"/>
<feGaussianBlur stdDeviation="4"/>
<feComposite in2="hardAlpha" operator="out"/>
<feColorMatrix type="matrix" values="0 0 0 0 0 0 0 0 0 0 0 0 0 0 0 0 0 0 0.15 0"/>
<feBlend mode="normal" in2="BackgroundImageFix" result="effect1_dropShadow_35_1470"/>
<feBlend mode="normal" in="SourceGraphic" in2="effect1_dropShadow_35_1470" result="shape"/>
</filter>
<filter id="filter4_d_35_1470" x="150.381" y="111.959" width="90.5894" height="61.0642" filterUnits="userSpaceOnUse" color-interpolation-filters="sRGB">
<feFlood flood-opacity="0" result="BackgroundImageFix"/>
<feColorMatrix in="SourceAlpha" type="matrix" values="0 0 0 0 0 0 0 0 0 0 0 0 0 0 0 0 0 0 127 0" result="hardAlpha"/>
<feOffset dy="10"/>
<feGaussianBlur stdDeviation="4"/>
<feComposite in2="hardAlpha" operator="out"/>
<feColorMatrix type="matrix" values="0 0 0 0 0 0 0 0 0 0 0 0 0 0 0 0 0 0 0.15 0"/>
<feBlend mode="normal" in2="BackgroundImageFix" result="effect1_dropShadow_35_1470"/>
<feBlend mode="normal" in="SourceGraphic" in2="effect1_dropShadow_35_1470" result="shape"/>
</filter>
<linearGradient id="paint0_linear_35_1470" x1="157.693" y1="70.4117" x2="157.693" y2="0" gradientUnits="userSpaceOnUse">
<stop stop-color="white"/>
<stop offset="1" stop-color="#999999"/>
</linearGradient>
</defs>
</svg>
