<svg width="497" height="293" viewBox="0 0 497 293" fill="none" xmlns="http://www.w3.org/2000/svg">
<g clip-path="url(#clip0_38_3749)">
<g opacity="0.2">
<path d="M81.27 121.91C79.9147 121.921 78.5802 121.576 77.4 120.91L2.72001 76.5301C2.35587 76.3216 2.03642 76.0434 1.77996 75.7113C1.52351 75.3793 1.33508 74.9999 1.22547 74.5949C1.11585 74.1899 1.08722 73.7672 1.14119 73.3511C1.19517 72.935 1.33069 72.5337 1.54001 72.1701C1.82568 71.6847 2.23222 71.2816 2.72001 71.0001L93.22 18.4701C94.8939 17.5095 96.7901 17.004 98.72 17.004C100.65 17.004 102.546 17.5095 104.22 18.4701L177.52 61.0001C178.09 61.3343 178.564 61.812 178.892 62.3856C179.221 62.9592 179.394 63.6089 179.394 64.2701C179.394 64.9312 179.221 65.5809 178.892 66.1545C178.564 66.7281 178.09 67.2058 177.52 67.5401L85.16 120.83C83.9808 121.526 82.6391 121.898 81.27 121.91ZM98.74 17.9101C96.9544 17.9068 95.1993 18.3723 93.65 19.2601L3.20001 71.7901C2.85553 71.9908 2.5697 72.2783 2.37104 72.624C2.17238 72.9696 2.06784 73.3614 2.06784 73.7601C2.06784 74.1587 2.17238 74.5505 2.37104 74.8961C2.5697 75.2418 2.85553 75.5293 3.20001 75.7301L77.88 120.07C78.9202 120.669 80.0995 120.985 81.3 120.985C82.5005 120.985 83.6799 120.669 84.72 120.07L177.07 66.8101C177.729 66.4292 178.21 65.8031 178.408 65.0687C178.607 64.3342 178.507 63.551 178.13 62.8901C177.875 62.4502 177.51 62.0848 177.07 61.8301L103.81 19.2701C102.27 18.3734 100.522 17.8975 98.74 17.8901V17.9101Z" fill="#718095"/>
<path d="M81.27 122.17C79.8659 122.171 78.4864 121.802 77.27 121.1L2.59003 76.7601C2.19291 76.5321 1.84469 76.228 1.56532 75.8651C1.28596 75.5023 1.08095 75.0879 0.962036 74.6457C0.843125 74.2035 0.812654 73.7422 0.87237 73.2882C0.932086 72.8342 1.08081 72.3965 1.31003 72.0001C1.62512 71.4748 2.06473 71.0351 2.59003 70.7201L93.08 18.1901C94.801 17.2023 96.7507 16.6825 98.735 16.6825C100.719 16.6825 102.669 17.2023 104.39 18.1901L177.65 60.7701C178.573 61.311 179.245 62.1942 179.52 63.2278C179.795 64.2614 179.652 65.3618 179.12 66.2901C178.768 66.901 178.261 67.4082 177.65 67.7601L85.29 121.06C84.0701 121.775 82.684 122.158 81.27 122.17ZM98.74 17.2501C96.8479 17.2473 94.9887 17.7441 93.35 18.6901L2.85003 71.2201C2.40288 71.4808 2.03082 71.8529 1.77003 72.3001C1.57701 72.6333 1.45181 73.0014 1.40164 73.3832C1.35147 73.765 1.37732 74.153 1.4777 74.5248C1.57808 74.8966 1.75101 75.2448 1.98653 75.5495C2.22206 75.8542 2.51552 76.1093 2.85003 76.3001L77.53 120.64C78.6734 121.289 79.9655 121.63 81.28 121.63C82.5946 121.63 83.8866 121.289 85.03 120.64L177.39 67.3501C177.92 67.0404 178.36 66.5996 178.67 66.0701C179.135 65.2618 179.262 64.3023 179.022 63.4011C178.782 62.4998 178.195 61.7301 177.39 61.2601L104.13 18.6901C102.491 17.7454 100.632 17.2488 98.74 17.2501ZM81.29 121.25C80.044 121.249 78.82 120.921 77.74 120.3L3.06003 76.0001C2.4806 75.6606 2.05705 75.1078 1.88003 74.4601C1.70548 73.8122 1.79541 73.1216 2.13003 72.5401C2.3555 72.1497 2.67968 71.8255 3.07003 71.6001L93.52 19.0001C95.1021 18.0902 96.895 17.6109 98.72 17.6101C100.546 17.6225 102.338 18.1083 103.92 19.0201L177.19 61.6001C177.665 61.8762 178.06 62.2723 178.334 62.7488C178.608 63.2252 178.753 63.7653 178.753 64.3151C178.753 64.8648 178.608 65.4049 178.334 65.8813C178.06 66.3578 177.665 66.7539 177.19 67.0301L84.84 120.3C83.7606 120.923 82.5362 121.25 81.29 121.25ZM98.72 18.1501C96.9868 18.1545 95.2845 18.6094 93.78 19.4701L3.33003 72.0001C3.0183 72.1717 2.76169 72.4283 2.59003 72.7401C2.45738 72.9677 2.37103 73.2194 2.33593 73.4805C2.30083 73.7417 2.31769 74.0072 2.38552 74.2618C2.45336 74.5164 2.57084 74.7551 2.73121 74.9642C2.89158 75.1732 3.09169 75.3486 3.32003 75.4801L78 119.84C78.9997 120.42 80.1346 120.725 81.29 120.725C82.4455 120.725 83.5804 120.42 84.58 119.84L176.93 66.5801C177.23 66.4124 177.494 66.1872 177.706 65.9174C177.919 65.6476 178.076 65.3384 178.169 65.0077C178.262 64.6769 178.289 64.3311 178.248 63.99C178.207 63.6489 178.099 63.3193 177.93 63.0201C177.699 62.5984 177.352 62.2515 176.93 62.0201L103.67 19.4901C102.172 18.6202 100.472 18.1582 98.74 18.1501H98.72Z" fill="#718095"/>
<path d="M453 121.91C447.029 121.893 441.112 120.785 435.54 118.64H435.44L429.49 115.36L345.8 67.66C345.33 67.36 334.35 60.33 333.68 51.54C333.39 47.73 335.08 44.2 338.68 41.05C338.82 40.91 355.42 25.44 385.76 34.43C387.93 33.17 400.66 26.38 414.39 31.29C422.92 34.29 427.58 38.36 427.68 42.71C433.58 41.5 463.37 36.24 481.95 49.39C482.49 49.71 496.55 58.24 496.07 69.8C495.76 77.16 489.61 83.93 477.77 89.94C480.39 91.94 486.92 97.79 486.45 104.36C486.14 108.7 482.85 112.47 476.67 115.54C469.509 119.784 461.324 121.987 453 121.91ZM436.1 117.2C458.64 125.71 475.64 114.29 475.8 114.2L475.9 114.14C481.58 111.32 484.59 107.99 484.9 104.23C485.4 97.09 475.9 90.49 475.84 90.43L474.74 89.67L475.94 89.08C487.94 83.2 494.22 76.69 494.51 69.72C494.96 59.09 481.24 50.72 481.1 50.72C461.1 36.54 427.37 44.4 427.03 44.48L425.9 44.75L426.07 43.6C426.66 39.71 422.21 35.77 413.88 32.78C399.81 27.78 386.42 35.89 386.29 35.97L385.99 36.16L385.65 36.05C356.02 27.13 339.9 42.05 339.74 42.22C336.49 45.06 334.98 48.16 335.23 51.44C335.84 59.33 346.18 66.06 346.61 66.34L430.25 114.01L436.1 117.2Z" fill="#718095"/>
<path d="M287.65 275.31C285.694 275.304 283.774 274.787 282.08 273.81L117.16 180.81C116.104 180.203 115.333 179.202 115.014 178.026C114.695 176.851 114.856 175.597 115.46 174.54C115.87 173.836 116.456 173.25 117.16 172.84L249.16 96.6701C251.577 95.2793 254.317 94.5474 257.105 94.5474C259.894 94.5474 262.633 95.2793 265.05 96.6701L429 188.12C429.824 188.598 430.508 189.285 430.984 190.11C431.459 190.936 431.709 191.872 431.709 192.825C431.709 193.778 431.459 194.714 430.984 195.54C430.508 196.365 429.824 197.052 429 197.53L293.23 273.81C291.534 274.791 289.609 275.308 287.65 275.31ZM257.13 95.8801C254.557 95.8941 252.033 96.5838 249.81 97.8801L117.85 174C117.344 174.286 116.926 174.704 116.64 175.21C116.209 175.961 116.093 176.852 116.318 177.688C116.543 178.524 117.09 179.237 117.84 179.67L282.76 272.67C284.254 273.535 285.949 273.99 287.675 273.99C289.401 273.99 291.096 273.535 292.59 272.67L428.33 196.43C428.959 196.068 429.482 195.546 429.846 194.918C430.209 194.289 430.401 193.576 430.401 192.85C430.401 192.124 430.209 191.411 429.846 190.782C429.482 190.154 428.959 189.632 428.33 189.27L264.41 97.8701C262.199 96.5823 259.689 95.8962 257.13 95.8801Z" fill="#718095"/>
<path d="M126.65 98.1101C128.334 98.1101 129.7 97.3221 129.7 96.3501C129.7 95.3781 128.334 94.5901 126.65 94.5901C124.966 94.5901 123.6 95.3781 123.6 96.3501C123.6 97.3221 124.966 98.1101 126.65 98.1101Z" fill="#718095"/>
<path d="M189.99 133.7C191.675 133.7 193.04 132.912 193.04 131.94C193.04 130.968 191.675 130.18 189.99 130.18C188.306 130.18 186.94 130.968 186.94 131.94C186.94 132.912 188.306 133.7 189.99 133.7Z" fill="#718095"/>
<path d="M324.82 132.86C326.505 132.86 327.87 132.072 327.87 131.1C327.87 130.128 326.505 129.34 324.82 129.34C323.136 129.34 321.77 130.128 321.77 131.1C321.77 132.072 323.136 132.86 324.82 132.86Z" fill="#718095"/>
<path d="M189.6 132.6C189.485 132.596 189.371 132.565 189.27 132.51L126.36 96.9201C126.285 96.8774 126.218 96.8202 126.165 96.7519C126.111 96.6836 126.072 96.6054 126.049 96.5218C126.025 96.4383 126.019 96.3509 126.029 96.2648C126.04 96.1788 126.067 96.0956 126.11 96.0201C126.153 95.9445 126.21 95.8782 126.278 95.8248C126.346 95.7713 126.425 95.7319 126.508 95.7087C126.592 95.6854 126.679 95.6789 126.765 95.6895C126.851 95.7 126.935 95.7274 127.01 95.7701L189.92 131.36C189.994 131.403 190.06 131.459 190.112 131.527C190.164 131.595 190.203 131.672 190.225 131.755C190.247 131.838 190.253 131.924 190.242 132.009C190.231 132.094 190.203 132.176 190.16 132.25C190.106 132.352 190.025 132.439 189.927 132.5C189.829 132.562 189.716 132.596 189.6 132.6Z" fill="#718095"/>
<path d="M323.53 132.27C323.441 132.269 323.355 132.246 323.278 132.202C323.201 132.158 323.136 132.096 323.09 132.02C323.056 131.962 323.035 131.899 323.026 131.833C323.017 131.766 323.022 131.699 323.04 131.635C323.057 131.571 323.088 131.511 323.129 131.458C323.17 131.406 323.222 131.362 323.28 131.33L390.13 92.61C390.192 92.5836 390.258 92.5697 390.325 92.569C390.392 92.5683 390.459 92.5808 390.521 92.6059C390.583 92.631 390.64 92.6681 390.688 92.7152C390.736 92.7622 390.774 92.8182 390.8 92.88C390.847 92.9846 390.857 93.1023 390.828 93.2134C390.799 93.3245 390.733 93.4222 390.64 93.49L323.79 132.22C323.71 132.262 323.62 132.279 323.53 132.27Z" fill="#718095"/>
<path d="M390.92 94.3801C392.604 94.3801 393.97 93.5921 393.97 92.6201C393.97 91.6481 392.604 90.8601 390.92 90.8601C389.236 90.8601 387.87 91.6481 387.87 92.6201C387.87 93.5921 389.236 94.3801 390.92 94.3801Z" fill="#718095"/>
</g>
<path opacity="0.2" d="M287.68 264.81L411.59 195.59L258.82 111.2L133.53 179.09L287.68 264.81Z" fill="url(#paint0_linear_38_3749)"/>
<path opacity="0.8" d="M287.3 251.04L411.22 181.82L258.82 97.12L133.53 165.01L287.3 251.04Z" fill="url(#paint1_linear_38_3749)"/>
<path d="M133.53 164.65V178.72L287.68 265.17V251.1L133.53 164.65Z" fill="url(#paint2_linear_38_3749)"/>
<path opacity="0.9" d="M411.53 181.65V195.72L287.62 264.58V250.5L411.53 181.65Z" fill="url(#paint3_linear_38_3749)"/>
<path opacity="0.3" d="M284.56 228.9L226.47 195.37C225.64 194.89 225.75 194.05 226.71 193.49L299.89 151.24C300.135 151.1 300.397 150.993 300.67 150.92C300.941 150.843 301.219 150.796 301.5 150.78C301.782 150.768 302.064 150.792 302.34 150.85C302.616 150.901 302.884 150.985 303.14 151.1L361.14 184.64C361.97 185.12 361.87 185.96 360.91 186.51L287.72 228.76C287.48 228.895 287.225 229.003 286.96 229.08C286.692 229.152 286.417 229.196 286.14 229.21C285.862 229.22 285.584 229.2 285.31 229.15C285.052 229.094 284.8 229.01 284.56 228.9Z" fill="url(#paint4_linear_38_3749)"/>
<path d="M284.56 221.36L226.47 187.82C225.64 187.34 225.75 186.5 226.71 185.95L299.89 143.7C300.135 143.56 300.397 143.453 300.67 143.38C300.941 143.303 301.219 143.257 301.5 143.24C301.782 143.229 302.064 143.252 302.34 143.31C302.616 143.361 302.884 143.445 303.14 143.56L361.14 177.1C361.97 177.58 361.87 178.42 360.91 178.97L287.8 221.18C287.556 221.32 287.298 221.433 287.03 221.52C286.759 221.597 286.481 221.644 286.2 221.66C285.921 221.695 285.639 221.695 285.36 221.66C285.083 221.59 284.815 221.489 284.56 221.36Z" fill="url(#paint5_linear_38_3749)"/>
<g opacity="0.6">
<g opacity="0.8">
<path d="M301.42 196.72C299.98 195.89 300.62 194.79 299.18 193.96C297.74 193.13 297.11 194.23 295.68 193.4C294.25 192.57 294.87 191.48 293.44 190.65C292.01 189.82 291.37 190.91 289.93 190.08C288.49 189.25 289.13 188.16 287.69 187.33C286.25 186.5 285.62 187.59 284.19 186.77C282.76 185.95 283.38 184.84 281.94 184.01C280.5 183.18 279.88 184.28 278.44 183.45C277 182.62 277.63 181.52 276.2 180.69C274.77 179.86 274.12 180.96 272.68 180.13C271.24 179.3 271.88 178.2 270.44 177.37" stroke="#F6F7F8" stroke-miterlimit="10" stroke-linecap="round"/>
</g>
<g opacity="0.8">
<path d="M285.78 194.46C285.12 194.08 285.41 193.57 284.78 193.19C284.15 192.81 283.83 193.32 283.17 192.94C282.51 192.56 282.8 192.05 282.17 191.67C281.54 191.29 281.17 191.79 280.55 191.41C279.93 191.03 280.18 190.52 279.55 190.14C278.92 189.76 278.6 190.26 277.93 189.88C277.26 189.5 277.56 188.99 276.93 188.61C276.3 188.23 275.93 188.73 275.31 188.35C274.69 187.97 274.94 187.46 274.31 187.08C273.68 186.7 273.31 187.2 272.68 186.81C272.05 186.42 272.31 185.93 271.68 185.54" stroke="#F6F7F8" stroke-miterlimit="10" stroke-linecap="round"/>
</g>
</g>
<path opacity="0.8" d="M291.6 174.82L307 165.93L322.39 174.81L307 183.7L291.6 174.82Z" fill="#E7F9FC"/>
<path opacity="0.8" d="M298.52 161.05L307.03 156.15L315.51 161.04L307.01 165.94L298.52 161.05Z" fill="url(#paint6_linear_38_3749)"/>
<path opacity="0.8" d="M298.52 170.82V161.05L307.01 165.94V175.71L298.52 170.82Z" fill="url(#paint7_linear_38_3749)"/>
<path opacity="0.6" d="M315.5 170.82V161.05L307 165.94V175.71L315.5 170.82Z" fill="url(#paint8_linear_38_3749)"/>
<path d="M291.6 157.1L307 148.2L322.39 157.09L307 166L291.6 157.1Z" fill="url(#paint9_linear_38_3749)"/>
<path d="M291.6 174.81V157.09L307 166V183.73L291.6 174.81Z" fill="url(#paint10_linear_38_3749)"/>
<path d="M322.42 174.81V157.09L307 166V183.73L322.42 174.81Z" fill="url(#paint11_linear_38_3749)"/>
<path opacity="0.2" d="M307.01 169.06C308.91 169.06 310.45 167.52 310.45 165.62C310.45 163.72 308.91 162.18 307.01 162.18C305.11 162.18 303.57 163.72 303.57 165.62C303.57 167.52 305.11 169.06 307.01 169.06Z" fill="#001B41"/>
<path d="M307.01 167.53C308.065 167.53 308.92 166.675 308.92 165.62C308.92 164.565 308.065 163.71 307.01 163.71C305.955 163.71 305.1 164.565 305.1 165.62C305.1 166.675 305.955 167.53 307.01 167.53Z" fill="#28CCE8"/>
<path d="M276 207.44L252.42 193.82C251.04 193.03 251.22 191.63 252.81 190.71C253.216 190.48 253.649 190.302 254.1 190.18C255.002 189.927 255.95 189.886 256.87 190.06C257.328 190.148 257.774 190.289 258.2 190.48L281.78 204.1C283.16 204.89 282.98 206.3 281.39 207.21C280.982 207.439 280.549 207.62 280.1 207.75C279.649 207.873 279.187 207.947 278.72 207.97C278.254 207.988 277.787 207.951 277.33 207.86C276.872 207.77 276.426 207.629 276 207.44Z" fill="url(#paint12_linear_38_3749)"/>
<g opacity="0.5">
<g opacity="0.6">
<g opacity="0.8">
<path d="M205.44 107.34C203.93 106.47 204.6 105.34 203.09 104.47C201.58 103.6 200.93 104.75 199.44 103.88C197.95 103.01 198.59 101.88 197.09 101C195.59 100.12 194.93 101.28 193.42 100.41C191.91 99.54 192.59 98.41 191.08 97.54C189.57 96.67 188.92 97.81 187.42 96.94C185.92 96.07 186.58 94.94 185.07 94.07C183.56 93.2 182.92 94.35 181.41 93.48C179.9 92.61 180.57 91.48 179.07 90.6C177.57 89.72 176.9 90.88 175.39 90.01C173.88 89.14 174.56 88.01 173.05 87.12" stroke="#F6F7F8" stroke-miterlimit="10" stroke-linecap="round"/>
</g>
<g opacity="0.8">
<path d="M189.09 105C188.4 104.6 188.7 104.07 188.04 103.67C187.38 103.27 187.04 103.81 186.36 103.4C185.68 102.99 185.97 102.48 185.31 102.08C184.65 101.68 184.31 102.21 183.62 101.81C182.93 101.41 183.23 100.88 182.57 100.48C181.91 100.08 181.57 100.61 180.88 100.21C180.19 99.8099 180.49 99.2799 179.88 98.8899C179.27 98.4999 178.83 99.0099 178.18 98.6099C177.53 98.2099 177.8 97.6799 177.18 97.2899C176.56 96.8999 176.18 97.4099 175.47 96.9999C174.76 96.5899 175.09 96.0699 174.47 95.6799" stroke="#F6F7F8" stroke-miterlimit="10" stroke-linecap="round"/>
</g>
</g>
</g>
<path opacity="0.8" d="M224.31 133.92L256 115.66L287.57 133.9L256 152.13L224.31 133.92Z" fill="#E7F9FC"/>
<path opacity="0.8" d="M238.51 105.65L256 95.59L273.4 105.59L256 115.69L238.51 105.65Z" fill="url(#paint13_linear_38_3749)"/>
<path opacity="0.8" d="M238.51 125.69V105.69L255.95 115.69V135.69L238.51 125.69Z" fill="url(#paint14_linear_38_3749)"/>
<path opacity="0.6" d="M273.36 125.69V105.69L255.94 115.69V135.69L273.36 125.69Z" fill="url(#paint15_linear_38_3749)"/>
<path d="M224.31 97.54L256 79.29L287.57 97.51L256 115.76L224.31 97.54Z" fill="url(#paint16_linear_38_3749)"/>
<path d="M224.31 133.9V97.52L256 115.74V152.12L224.31 133.9Z" fill="url(#paint17_linear_38_3749)"/>
<path d="M287.56 133.9V97.52L255.93 115.74V152.12L287.56 133.9Z" fill="url(#paint18_linear_38_3749)"/>
<path opacity="0.2" d="M255.93 122.07C259.824 122.07 262.98 118.914 262.98 115.02C262.98 111.126 259.824 107.97 255.93 107.97C252.036 107.97 248.88 111.126 248.88 115.02C248.88 118.914 252.036 122.07 255.93 122.07Z" fill="#001B41"/>
<path d="M255.93 118.93C258.089 118.93 259.84 117.179 259.84 115.02C259.84 112.861 258.089 111.11 255.93 111.11C253.771 111.11 252.02 112.861 252.02 115.02C252.02 117.179 253.771 118.93 255.93 118.93Z" fill="#28CCE8"/>
<path opacity="0.8" d="M171.94 165.34L203.62 147.09L235.2 165.32L203.57 183.56L171.94 165.34Z" fill="#E7F9FC"/>
<path opacity="0.8" d="M186.14 137.08L203.61 127L221 137L203.57 147L186.14 137.08Z" fill="url(#paint19_linear_38_3749)"/>
<path opacity="0.8" d="M186.14 157.12V137.12L203.57 147.12V167.12L186.14 157.12Z" fill="url(#paint20_linear_38_3749)"/>
<path opacity="0.6" d="M221 157.12V137.12L203.57 147.12V167.12L221 157.12Z" fill="url(#paint21_linear_38_3749)"/>
<path d="M171.94 129L203.62 110.74L235.2 128.97L203.57 147.21L171.94 129Z" fill="url(#paint22_linear_38_3749)"/>
<path d="M171.94 165.32V129L203.57 147.22V183.59L171.94 165.32Z" fill="url(#paint23_linear_38_3749)"/>
<path d="M235.19 165.32V129L203.55 147.22V183.59L235.19 165.32Z" fill="url(#paint24_linear_38_3749)"/>
<path opacity="0.2" d="M203.55 153.5C207.444 153.5 210.6 150.344 210.6 146.45C210.6 142.556 207.444 139.4 203.55 139.4C199.656 139.4 196.5 142.556 196.5 146.45C196.5 150.344 199.656 153.5 203.55 153.5Z" fill="#001B41"/>
<path d="M203.55 150.36C205.709 150.36 207.46 148.609 207.46 146.45C207.46 144.291 205.709 142.54 203.55 142.54C201.391 142.54 199.64 144.291 199.64 146.45C199.64 148.609 201.391 150.36 203.55 150.36Z" fill="#28CCE8"/>
<path opacity="0.45" d="M83.71 110.63L20.19 73.96L97.97 28.6L161.49 65.27L83.71 110.63Z" fill="url(#paint25_linear_38_3749)"/>
<path opacity="0.9" d="M84.11 100L24.12 65.37L88.06 28.12L148.03 62.75L84.11 100Z" fill="url(#paint26_linear_38_3749)"/>
<path d="M84.13 100.03L24.2 65.55L24.12 37.84L25.38 37.51L84.1 71.72L84.13 100.03Z" fill="url(#paint27_linear_38_3749)"/>
<path d="M84.11 72.27L24.12 37.64L88.31 0.23999L148.29 34.87L84.11 72.27Z" fill="url(#paint28_linear_38_3749)"/>
<path opacity="0.3" d="M79.49 90.8L26.85 60.08V43.65L79.48 74.36L79.49 90.8Z" fill="url(#paint29_linear_38_3749)"/>
<path d="M71.2 79.06L46.91 65C45.85 64.4 44.99 64 44.99 62.56C44.99 61.15 45.85 61.39 46.91 62L71.2 76C71.7558 76.2304 72.2335 76.6161 72.5758 77.1109C72.9181 77.6057 73.1105 78.1887 73.13 78.79C73.14 80.24 72.27 79.65 71.2 79.06Z" fill="#293C51"/>
<path d="M34.8329 57.7641C35.3208 57.4825 35.3245 56.5756 34.8413 55.7386C34.358 54.9016 33.5708 54.4514 33.0829 54.733C32.5951 55.0147 32.5913 55.9216 33.0746 56.7586C33.5578 57.5956 34.3451 58.0458 34.8329 57.7641Z" fill="#293C51"/>
<path d="M38.0565 59.5196C38.5444 59.238 38.5481 58.3311 38.0648 57.4941C37.5816 56.6571 36.7944 56.2069 36.3065 56.4885C35.8186 56.7702 35.8149 57.6771 36.2982 58.5141C36.7814 59.3511 37.5686 59.8013 38.0565 59.5196Z" fill="#11C7E6"/>
<path opacity="0.9" d="M84.08 99.98L148.3 62.55L148.29 34.65L84.1 72.06L84.08 99.98Z" fill="url(#paint30_linear_38_3749)"/>
<path opacity="0.3" d="M88.55 92.45L145.59 59.97V42.95L88.55 75.43V92.45Z" fill="url(#paint31_linear_38_3749)"/>
<path d="M139.4 61.35C139 61.57 138.67 61.35 138.67 60.81V50.58C138.675 50.313 138.744 50.0511 138.871 49.8162C138.998 49.5813 139.179 49.3803 139.4 49.23C139.78 49 140.12 49.23 140.12 49.76V60C140.113 60.2655 140.044 60.5257 139.919 60.7601C139.794 60.9944 139.617 61.1964 139.4 61.35Z" fill="#293C51"/>
<path d="M136.49 62.6799C136.1 62.9199 135.76 62.6799 135.76 62.1399V51.9199C135.764 51.6514 135.833 51.3878 135.96 51.1511C136.087 50.9145 136.268 50.7118 136.49 50.5599C136.87 50.3299 137.22 50.5599 137.22 51.0999V61.3199C137.212 61.5877 137.142 61.8499 137.015 62.0859C136.888 62.3219 136.709 62.5252 136.49 62.6799Z" fill="#293C51"/>
<path d="M133 65C132.61 65.23 132.27 65 132.27 64.46V54.25C132.275 53.9816 132.344 53.7183 132.471 53.4818C132.598 53.2453 132.779 53.0424 133 52.89C133.38 52.67 133.72 52.89 133.72 53.44V63.66C133.712 63.9237 133.642 64.182 133.517 64.4144C133.392 64.6469 133.215 64.8473 133 65Z" fill="#293C51"/>
<path opacity="0.2" d="M365.72 65.9L355.72 59.61C350.15 55.38 344.97 53.04 354.85 46.43C354.85 46.43 365.57 39.25 388.91 46.2C388.91 46.2 392.78 40.29 408.6 42.99C415.34 45.38 416.98 49.35 416.48 52.62C416.48 52.62 452.39 44.1 468.12 55.1C468.12 55.1 503.12 71.1 457.18 88.1C457.18 88.1 485.68 104.1 464.18 111.24C464.18 111.24 454.03 116.79 440.99 109.35L428.48 102.18C428.48 102.18 365.7 65.84 365.72 65.9Z" fill="url(#paint32_linear_38_3749)"/>
<path d="M365.68 53.21C365.68 53.21 337.79 40.62 354.49 33.05C354.49 33.05 365.57 26.26 388.91 33.2C388.91 33.2 392.78 27.29 408.6 30C415.34 32.38 416.98 36.35 416.48 39.62C416.48 39.62 452.39 31.1 468.12 42.1C468.12 42.1 503.12 58.1 457.18 75.1C457.18 75.1 471.65 85.41 471.65 93.1C471.65 94.44 469.04 96.97 464.22 99.2C464.22 99.2 455.7 105.8 440.99 96.38L428.73 90L365.68 53.21Z" fill="url(#paint33_linear_38_3749)"/>
<path d="M349.2 39.45L349.15 52.82C349.15 52.82 347.15 54.92 365.72 65.9L441 109.37C441 109.37 452.74 116.71 464.19 111.26C464.19 111.26 470.3 109.38 472.08 105.37L471.63 93.37C468.193 97.3143 463.627 100.107 458.55 101.37C458.55 101.37 452.23 102.96 441 96.37L360.45 50.4199C360.45 50.4199 349.54 43.85 349.2 39.45Z" fill="url(#paint34_linear_38_3749)"/>
<path d="M374.24 249.471C373.55 249.841 373.53 250.471 374.16 250.841L380.16 254.321C374.99 254.651 371.25 257.321 371.81 260.321C372.007 261.026 372.351 261.681 372.82 262.243C373.289 262.805 373.872 263.261 374.53 263.581C376.584 264.653 378.862 265.225 381.178 265.249C383.495 265.274 385.784 264.75 387.86 263.721C391.6 261.631 391.71 258.191 388.09 256.021L376.71 249.451C376.328 249.249 375.902 249.146 375.47 249.151C375.033 249.149 374.602 249.259 374.22 249.471M386.65 258.471C386.927 258.843 387.076 259.293 387.076 259.756C387.076 260.219 386.927 260.67 386.65 261.041C385.817 262.037 384.659 262.706 383.38 262.931C381.928 263.259 380.422 263.259 378.97 262.931C377.7 262.711 376.551 262.044 375.73 261.051C375.448 260.688 375.295 260.241 375.295 259.781C375.295 259.321 375.448 258.874 375.73 258.511C376.558 257.514 377.713 256.844 378.99 256.621C380.456 256.296 381.975 256.296 383.44 256.621C384.696 256.838 385.833 257.493 386.65 258.471ZM395.81 245.891C390.62 245.891 386.39 248.331 386.39 251.321C386.39 252.771 387.39 254.151 389.16 255.161C391.214 256.229 393.489 256.797 395.803 256.822C398.117 256.846 400.405 256.325 402.48 255.301C406.23 253.211 406.33 249.761 402.71 247.601L402.48 247.471C401.527 246.93 400.499 246.532 399.43 246.291C398.245 246.006 397.029 245.872 395.81 245.891ZM401.25 250.021C401.522 250.393 401.669 250.841 401.67 251.301C401.66 251.76 401.514 252.206 401.25 252.581C400.416 253.574 399.258 254.24 397.98 254.461C396.522 254.796 395.008 254.796 393.55 254.461C392.282 254.245 391.132 253.581 390.31 252.591C390.028 252.224 389.875 251.774 389.875 251.311C389.875 250.848 390.028 250.398 390.31 250.031C391.139 249.037 392.294 248.37 393.57 248.151C394.298 247.981 395.043 247.898 395.79 247.901C396.534 247.902 397.275 247.986 398 248.151C399.272 248.366 400.425 249.03 401.25 250.021ZM422.65 229.581C422.465 229.48 422.266 229.406 422.06 229.361C421.839 229.317 421.615 229.294 421.39 229.291C421.165 229.29 420.94 229.313 420.72 229.361C420.517 229.404 420.321 229.478 420.14 229.581C419.93 229.69 419.759 229.861 419.65 230.071L417.17 236.851L407.89 231.471C407.509 231.268 407.082 231.165 406.65 231.171C406.215 231.157 405.784 231.257 405.4 231.461C404.71 231.861 404.71 232.461 405.4 232.901L421.95 242.451C422.336 242.646 422.763 242.747 423.195 242.747C423.628 242.747 424.054 242.646 424.44 242.451C424.583 242.391 424.706 242.291 424.794 242.164C424.883 242.036 424.933 241.886 424.94 241.731C424.93 241.573 424.874 241.421 424.78 241.294C424.686 241.166 424.558 241.068 424.41 241.011L420.14 238.581L420.64 237.201L432.31 237.591C432.713 237.596 433.111 237.493 433.46 237.291C433.614 237.213 433.745 237.096 433.84 236.951C433.92 236.837 433.962 236.701 433.96 236.561C433.95 236.424 433.909 236.291 433.84 236.171C433.74 236.034 433.61 235.921 433.46 235.841C433.094 235.644 432.686 235.538 432.27 235.531L421.41 235.161L423.15 230.411C423.27 230.101 423.06 229.791 422.65 229.571M404.47 242.881C404.467 242.414 404.614 241.958 404.89 241.581C405.236 241.118 405.676 240.733 406.18 240.451C406.715 240.15 407.286 239.918 407.88 239.761C408.551 239.592 409.238 239.495 409.93 239.471C410.313 239.447 410.685 239.338 411.02 239.151C411.37 238.971 411.58 238.711 411.56 238.431C411.539 238.274 411.479 238.124 411.384 237.997C411.29 237.869 411.164 237.767 411.02 237.701C410.595 237.48 410.118 237.379 409.64 237.411C407.539 237.43 405.475 237.977 403.64 239.001C399.96 241.121 399.96 244.581 403.64 246.701C405.703 247.744 407.983 248.288 410.295 248.288C412.607 248.288 414.887 247.744 416.95 246.701C417.645 246.375 418.255 245.893 418.734 245.293C419.212 244.693 419.547 243.991 419.71 243.241C419.703 243.079 419.651 242.921 419.559 242.787C419.467 242.652 419.339 242.547 419.19 242.481C418.824 242.286 418.416 242.18 418.001 242.171C417.586 242.163 417.175 242.252 416.8 242.431L416.72 242.481C416.465 242.606 416.268 242.825 416.17 243.091C416.117 243.517 415.951 243.921 415.69 244.261C415.36 244.666 414.956 245.005 414.5 245.261C413.878 245.616 413.202 245.869 412.5 246.011C411.769 246.18 411.021 246.267 410.27 246.271C407 246.271 404.37 244.751 404.35 242.871C404.41 242.871 404.41 242.871 404.35 242.871M446.83 215.031C446.38 215.044 445.934 215.111 445.5 215.231C445.033 215.355 444.578 215.519 444.14 215.721C443.72 215.921 443.32 216.121 442.94 216.341C442.235 216.725 441.61 217.241 441.1 217.861C440.677 218.367 440.382 218.967 440.24 219.611L439.99 219.471C439.6 219.283 439.171 219.19 438.738 219.201C438.305 219.211 437.881 219.324 437.5 219.531C437.364 219.587 437.248 219.682 437.166 219.804C437.084 219.926 437.04 220.069 437.04 220.216C437.04 220.363 437.084 220.507 437.166 220.629C437.248 220.751 437.364 220.846 437.5 220.901L448.36 227.171C448.75 227.359 449.179 227.452 449.612 227.442C450.045 227.431 450.47 227.318 450.85 227.111C450.99 227.06 451.111 226.966 451.197 226.844C451.282 226.721 451.328 226.576 451.328 226.426C451.328 226.277 451.282 226.131 451.197 226.009C451.111 225.886 450.99 225.793 450.85 225.741L445.55 222.581C445.039 222.304 444.598 221.914 444.26 221.441C443.976 221.076 443.828 220.624 443.84 220.161C443.846 219.702 443.993 219.255 444.26 218.881C444.606 218.418 445.046 218.033 445.55 217.751C446.159 217.412 446.807 217.15 447.48 216.971C447.708 216.931 447.928 216.854 448.13 216.741C448.283 216.67 448.412 216.555 448.5 216.411C448.585 216.299 448.63 216.162 448.63 216.021C448.629 215.881 448.583 215.744 448.5 215.631C448.402 215.494 448.276 215.378 448.13 215.291C447.771 215.088 447.363 214.987 446.95 215.001M438.69 223.581C435.233 222.761 431.598 223.183 428.42 224.771C424.74 226.901 424.74 230.331 428.42 232.471C430.49 233.516 432.776 234.061 435.095 234.061C437.414 234.061 439.7 233.516 441.77 232.471C442.46 232.144 443.066 231.662 443.541 231.064C444.016 230.466 444.347 229.767 444.51 229.021C444.538 228.906 444.52 228.784 444.46 228.681C444.28 228.111 443.36 227.751 442.39 227.841C441.6 227.941 441.03 228.341 441.01 228.841C441.01 228.841 441.01 229.021 441.01 229.031C440.948 229.434 440.775 229.811 440.51 230.121C440.179 230.533 439.767 230.874 439.3 231.121C438.812 231.401 438.292 231.619 437.75 231.771C437.169 231.94 436.573 232.05 435.97 232.101C435.358 232.161 434.742 232.161 434.13 232.101C433.526 232.05 432.929 231.933 432.35 231.751L441.77 226.311C441.912 226.25 442.035 226.152 442.127 226.027C442.218 225.902 442.274 225.755 442.29 225.601C442.29 225.321 442.12 225.071 441.77 224.891C440.813 224.307 439.775 223.866 438.69 223.581ZM429.89 230.261C429.603 229.989 429.395 229.643 429.29 229.261C429.18 228.913 429.18 228.539 429.29 228.191C429.406 227.823 429.596 227.482 429.85 227.191C430.167 226.834 430.542 226.533 430.96 226.301C431.443 226.027 431.956 225.812 432.49 225.661C433.667 225.336 434.894 225.228 436.11 225.341C436.717 225.396 437.316 225.51 437.9 225.681L429.89 230.261ZM453.45 223.671C452.97 223.951 452.99 224.391 453.45 224.671C453.718 224.809 454.014 224.881 454.315 224.881C454.616 224.881 454.913 224.809 455.18 224.671C455.289 224.64 455.384 224.575 455.452 224.484C455.521 224.394 455.557 224.284 455.557 224.171C455.557 224.058 455.521 223.948 455.452 223.858C455.384 223.768 455.289 223.702 455.18 223.671C454.906 223.526 454.6 223.45 454.29 223.45C453.98 223.45 453.674 223.526 453.4 223.671H453.45ZM455 224.561C454.789 224.668 454.556 224.723 454.32 224.723C454.084 224.723 453.851 224.668 453.64 224.561C453.24 224.351 453.22 224.001 453.57 223.771C453.78 223.663 454.013 223.606 454.25 223.606C454.487 223.606 454.72 223.663 454.93 223.771C455.31 223.961 455.33 224.311 454.98 224.521L455 224.561Z" fill="#0091E2"/>
<path d="M454.48 224.051C454.57 223.981 454.55 223.901 454.48 223.841C454.442 223.813 454.398 223.794 454.351 223.783C454.305 223.773 454.257 223.772 454.21 223.781C454.087 223.803 453.968 223.847 453.86 223.911C453.749 223.97 453.642 224.037 453.54 224.111L454.4 224.611L454.59 224.501L454.25 224.311L454.34 224.261C454.389 224.239 454.442 224.228 454.495 224.228C454.549 224.228 454.601 224.239 454.65 224.261L454.92 224.351L455.13 224.231C455.035 224.221 454.942 224.191 454.86 224.141C454.751 224.097 454.629 224.097 454.52 224.141M454.21 224.251L454.11 224.311L453.86 224.171L453.96 224.111C454.009 224.089 454.062 224.077 454.115 224.077C454.169 224.077 454.221 224.089 454.27 224.111C454.38 224.111 454.34 224.241 454.21 224.291M362.69 259.371C361.047 259.547 359.462 260.083 358.05 260.941C357.437 261.291 356.855 261.693 356.31 262.141C353.746 261.165 350.979 260.845 348.26 261.211L347.26 261.361L347.45 261.951C347.786 262.794 348.31 263.55 348.98 264.161C350.592 265.563 352.603 266.423 354.73 266.621C354.076 267.572 353.227 268.374 352.24 268.971L322.54 286.121C322.368 286.176 322.218 286.284 322.112 286.43C322.005 286.575 321.948 286.751 321.948 286.931C321.948 287.112 322.005 287.287 322.112 287.433C322.218 287.579 322.368 287.687 322.54 287.741C325.334 289.366 328.339 290.598 331.47 291.401C334.854 292.332 338.386 292.597 341.87 292.181C346.112 291.436 350.18 289.914 353.87 287.691C355.636 286.688 357.309 285.53 358.87 284.231C360.792 282.696 362.358 280.761 363.46 278.561C364.215 276.96 364.516 275.182 364.33 273.421C363.899 270.639 362.709 268.03 360.89 265.881L361.31 265.641C363.88 264.151 364.45 262.641 364.45 261.641C364.466 260.951 364.244 260.276 363.82 259.731L363.46 259.311L362.69 259.371Z" fill="#0091E2"/>
<path d="M324.41 284.031L328.41 281.741C328.6 281.631 328.62 281.451 328.41 281.331L324.86 279.271C324.75 279.214 324.629 279.185 324.505 279.185C324.381 279.185 324.26 279.214 324.15 279.271L320.15 281.571C319.96 281.681 319.94 281.861 320.15 281.981L323.71 284.031C323.819 284.084 323.939 284.112 324.06 284.112C324.181 284.112 324.301 284.084 324.41 284.031ZM329.89 280.871L333.89 278.571C333.931 278.555 333.967 278.527 333.992 278.491C334.017 278.454 334.03 278.411 334.03 278.366C334.03 278.322 334.017 278.279 333.992 278.242C333.967 278.206 333.931 278.177 333.89 278.161L330.33 276.111C330.22 276.054 330.099 276.025 329.975 276.025C329.851 276.025 329.73 276.054 329.62 276.111L325.62 278.401C325.43 278.511 325.41 278.691 325.62 278.811L329.18 280.871C329.29 280.926 329.412 280.954 329.535 280.954C329.658 280.954 329.78 280.926 329.89 280.871ZM335.48 277.641L339.48 275.351C339.67 275.241 339.69 275.061 339.48 274.941L335.89 272.881C335.78 272.827 335.658 272.798 335.535 272.798C335.412 272.798 335.29 272.827 335.18 272.881L331.18 275.181C330.99 275.291 330.97 275.471 331.18 275.591L334.73 277.641C334.845 277.705 334.974 277.739 335.105 277.739C335.236 277.739 335.365 277.705 335.48 277.641ZM340.98 274.471L344.98 272.171C345.17 272.061 345.19 271.881 344.98 271.761L341.43 269.711C341.319 269.654 341.195 269.625 341.07 269.625C340.945 269.625 340.822 269.654 340.71 269.711L336.71 272.001C336.52 272.111 336.5 272.291 336.71 272.411L340.27 274.471C340.38 274.528 340.501 274.558 340.625 274.558C340.749 274.558 340.87 274.528 340.98 274.471ZM324.81 277.931L328.81 275.641C328.851 275.625 328.887 275.597 328.912 275.56C328.937 275.524 328.95 275.481 328.95 275.436C328.95 275.392 328.937 275.349 328.912 275.312C328.887 275.276 328.851 275.247 328.81 275.231L325.26 273.171C325.148 273.117 325.025 273.089 324.9 273.089C324.775 273.089 324.652 273.117 324.54 273.171L320.54 275.471C320.35 275.581 320.33 275.761 320.54 275.881L324.1 277.931C324.211 277.983 324.332 278.01 324.455 278.01C324.578 278.01 324.699 277.983 324.81 277.931ZM330.39 274.711L334.39 272.411C334.431 272.395 334.467 272.367 334.492 272.331C334.517 272.294 334.53 272.251 334.53 272.206C334.53 272.162 334.517 272.119 334.492 272.082C334.467 272.046 334.431 272.017 334.39 272.001L330.83 269.951C330.72 269.894 330.599 269.865 330.475 269.865C330.351 269.865 330.23 269.894 330.12 269.951L326.12 272.241C325.93 272.351 325.91 272.531 326.12 272.661L329.67 274.711C329.78 274.768 329.902 274.798 330.025 274.798C330.149 274.798 330.27 274.768 330.38 274.711M335.89 271.581L339.89 269.291C339.931 269.275 339.967 269.247 339.992 269.211C340.017 269.174 340.03 269.131 340.03 269.086C340.03 269.042 340.017 268.999 339.992 268.962C339.967 268.926 339.931 268.897 339.89 268.881L336.33 266.821C336.22 266.767 336.098 266.739 335.975 266.739C335.852 266.739 335.731 266.767 335.62 266.821L331.62 269.121C331.43 269.231 331.41 269.411 331.62 269.531L335.17 271.581C335.28 271.636 335.402 271.664 335.525 271.664C335.648 271.664 335.77 271.636 335.88 271.581M330.79 268.581L334.79 266.291C334.98 266.181 335 266.001 334.79 265.881L331.24 263.831C331.13 263.777 331.008 263.749 330.885 263.749C330.762 263.749 330.641 263.777 330.53 263.831L326.53 266.121C326.34 266.231 326.32 266.411 326.53 266.531L330.09 268.581C330.201 268.635 330.322 268.663 330.445 268.663C330.568 268.663 330.69 268.635 330.8 268.581M346.53 271.271L350.53 268.971C350.71 268.861 350.74 268.681 350.53 268.561L346.97 266.511C346.86 266.454 346.739 266.425 346.615 266.425C346.492 266.425 346.37 266.454 346.26 266.511L342.26 268.801C342.08 268.911 342.05 269.091 342.26 269.211L345.82 271.271C345.932 271.321 346.053 271.346 346.175 271.346C346.297 271.346 346.418 271.321 346.53 271.271Z" fill="#0091E2"/>
</g>
<defs>
<linearGradient id="paint0_linear_38_3749" x1="241.37" y1="241.35" x2="303.74" y2="133.32" gradientUnits="userSpaceOnUse">
<stop offset="0.13" stop-color="white"/>
<stop offset="0.77" stop-color="#95A0B0"/>
<stop offset="0.82" stop-color="#98A3B2"/>
<stop offset="0.99" stop-color="#9CA6B5"/>
</linearGradient>
<linearGradient id="paint1_linear_38_3749" x1="207.15" y1="238.63" x2="337.6" y2="108.19" gradientUnits="userSpaceOnUse">
<stop offset="0.13" stop-color="#EBEBEB"/>
<stop offset="0.99" stop-color="#F8F7F7"/>
</linearGradient>
<linearGradient id="paint2_linear_38_3749" x1="190.21" y1="235.3" x2="231" y2="194.51" gradientUnits="userSpaceOnUse">
<stop stop-color="#E1E3EA" stop-opacity="0.9"/>
<stop offset="0.9" stop-color="#F5F6F7" stop-opacity="0.9"/>
</linearGradient>
<linearGradient id="paint3_linear_38_3749" x1="349.57" y1="264.58" x2="349.57" y2="181.65" gradientUnits="userSpaceOnUse">
<stop stop-color="#E6E6E6" stop-opacity="0.8"/>
<stop offset="0.9" stop-color="#C0C4D3" stop-opacity="0.9"/>
</linearGradient>
<linearGradient id="paint4_linear_38_3749" x1="228.472" y1="190.041" x2="364.499" y2="189.208" gradientUnits="userSpaceOnUse">
<stop stop-color="#001B41"/>
<stop offset="1" stop-color="#001B41" stop-opacity="0.3"/>
</linearGradient>
<linearGradient id="paint5_linear_38_3749" x1="549.93" y1="-261.11" x2="589.15" y2="-329.04" gradientUnits="userSpaceOnUse">
<stop stop-color="#001B41"/>
<stop offset="1" stop-color="#001B41" stop-opacity="0.3"/>
</linearGradient>
<linearGradient id="paint6_linear_38_3749" x1="314.64" y1="149" x2="301.66" y2="169.51" gradientUnits="userSpaceOnUse">
<stop stop-color="#2581C4"/>
<stop offset="1" stop-color="#2581C4" stop-opacity="0.5"/>
</linearGradient>
<linearGradient id="paint7_linear_38_3749" x1="298.52" y1="168.38" x2="307.01" y2="168.38" gradientUnits="userSpaceOnUse">
<stop stop-color="#2581C4"/>
<stop offset="1" stop-color="#2581C4" stop-opacity="0.5"/>
</linearGradient>
<linearGradient id="paint8_linear_38_3749" x1="307.01" y1="168.38" x2="315.5" y2="168.38" gradientUnits="userSpaceOnUse">
<stop stop-color="#2581C4"/>
<stop offset="1" stop-color="#2581C4" stop-opacity="0.5"/>
</linearGradient>
<linearGradient id="paint9_linear_38_3749" x1="307.02" y1="143.45" x2="307.02" y2="186.66" gradientUnits="userSpaceOnUse">
<stop stop-color="#E5F7FA" stop-opacity="0"/>
<stop offset="0.58" stop-color="#28CCE8" stop-opacity="0.5"/>
</linearGradient>
<linearGradient id="paint10_linear_38_3749" x1="310.01" y1="153.32" x2="290.05" y2="185.16" gradientUnits="userSpaceOnUse">
<stop stop-color="#E5F7FA" stop-opacity="0"/>
<stop offset="1" stop-color="#28CCE8" stop-opacity="0.5"/>
</linearGradient>
<linearGradient id="paint11_linear_38_3749" x1="298.06" y1="159.08" x2="335.06" y2="184.2" gradientUnits="userSpaceOnUse">
<stop stop-color="#E5F7FA" stop-opacity="0"/>
<stop offset="1" stop-color="#28CCE8" stop-opacity="0.5"/>
</linearGradient>
<linearGradient id="paint12_linear_38_3749" x1="267.1" y1="-158.64" x2="267.1" y2="-164.42" gradientUnits="userSpaceOnUse">
<stop stop-color="#11C7E6" stop-opacity="0.4"/>
<stop offset="1" stop-color="#28CCE8" stop-opacity="0.8"/>
</linearGradient>
<linearGradient id="paint13_linear_38_3749" x1="271.59" y1="80.92" x2="244.96" y2="123.02" gradientUnits="userSpaceOnUse">
<stop stop-color="#2581C4"/>
<stop offset="1" stop-color="#2581C4" stop-opacity="0.5"/>
</linearGradient>
<linearGradient id="paint14_linear_38_3749" x1="238.51" y1="120.69" x2="255.95" y2="120.69" gradientUnits="userSpaceOnUse">
<stop stop-color="#2581C4"/>
<stop offset="1" stop-color="#2581C4" stop-opacity="0.5"/>
</linearGradient>
<linearGradient id="paint15_linear_38_3749" x1="255.94" y1="120.69" x2="273.36" y2="120.69" gradientUnits="userSpaceOnUse">
<stop stop-color="#2581C4"/>
<stop offset="1" stop-color="#2581C4" stop-opacity="0.5"/>
</linearGradient>
<linearGradient id="paint16_linear_38_3749" x1="255.94" y1="69.53" x2="255.94" y2="158.21" gradientUnits="userSpaceOnUse">
<stop offset="0.2" stop-color="#D8ECF7" stop-opacity="0.9"/>
<stop offset="0.81" stop-color="#0056CE" stop-opacity="0.6"/>
<stop offset="1" stop-color="#0F95FC" stop-opacity="0.9"/>
</linearGradient>
<linearGradient id="paint17_linear_38_3749" x1="262.09" y1="89.78" x2="221.13" y2="155.13" gradientUnits="userSpaceOnUse">
<stop offset="0.02" stop-color="#D8ECF7" stop-opacity="0.9"/>
<stop offset="0.64" stop-color="#0056CE" stop-opacity="0.6"/>
<stop offset="1" stop-color="#0F95FC" stop-opacity="0.9"/>
</linearGradient>
<linearGradient id="paint18_linear_38_3749" x1="237.56" y1="101.61" x2="313.51" y2="153.16" gradientUnits="userSpaceOnUse">
<stop offset="0.02" stop-color="#D8ECF7" stop-opacity="0.9"/>
<stop offset="0.64" stop-color="#0056CE" stop-opacity="0.6"/>
<stop offset="1" stop-color="#0F95FC" stop-opacity="0.9"/>
</linearGradient>
<linearGradient id="paint19_linear_38_3749" x1="219.21" y1="112.34" x2="192.58" y2="154.44" gradientUnits="userSpaceOnUse">
<stop stop-color="#2581C4"/>
<stop offset="1" stop-color="#2581C4" stop-opacity="0.5"/>
</linearGradient>
<linearGradient id="paint20_linear_38_3749" x1="186.14" y1="152.11" x2="203.57" y2="152.11" gradientUnits="userSpaceOnUse">
<stop stop-color="#2581C4"/>
<stop offset="1" stop-color="#2581C4" stop-opacity="0.5"/>
</linearGradient>
<linearGradient id="paint21_linear_38_3749" x1="203.56" y1="152.11" x2="220.99" y2="152.11" gradientUnits="userSpaceOnUse">
<stop stop-color="#2581C4"/>
<stop offset="1" stop-color="#2581C4" stop-opacity="0.5"/>
</linearGradient>
<linearGradient id="paint22_linear_38_3749" x1="203.57" y1="100.96" x2="203.57" y2="189.63" gradientUnits="userSpaceOnUse">
<stop offset="0.27" stop-color="#D8ECF7" stop-opacity="0.9"/>
<stop offset="0.76" stop-color="#0056CE" stop-opacity="0.6"/>
<stop offset="1" stop-color="#0F95FC" stop-opacity="0.9"/>
</linearGradient>
<linearGradient id="paint23_linear_38_3749" x1="209.72" y1="121.2" x2="168.75" y2="186.56" gradientUnits="userSpaceOnUse">
<stop offset="0.24" stop-color="#D8ECF7" stop-opacity="0.9"/>
<stop offset="0.74" stop-color="#0056CE" stop-opacity="0.6"/>
<stop offset="1" stop-color="#0F95FC" stop-opacity="0.9"/>
</linearGradient>
<linearGradient id="paint24_linear_38_3749" x1="185.19" y1="133.04" x2="261.13" y2="184.59" gradientUnits="userSpaceOnUse">
<stop offset="0.21" stop-color="#CCE4F5" stop-opacity="0.88"/>
<stop offset="0.64" stop-color="#0056CE" stop-opacity="0.6"/>
<stop offset="1" stop-color="#0F95FC" stop-opacity="0.9"/>
</linearGradient>
<linearGradient id="paint25_linear_38_3749" x1="127.95" y1="134.83" x2="85.72" y2="60.62" gradientUnits="userSpaceOnUse">
<stop stop-color="#E4E6EC" stop-opacity="0.9"/>
<stop offset="0.9" stop-color="#E1E3E7" stop-opacity="0.9"/>
</linearGradient>
<linearGradient id="paint26_linear_38_3749" x1="24.12" y1="64.06" x2="148.04" y2="64.06" gradientUnits="userSpaceOnUse">
<stop stop-color="#E6E6E6" stop-opacity="0.8"/>
<stop offset="0.9" stop-color="#D4D7E1" stop-opacity="0.9"/>
</linearGradient>
<linearGradient id="paint27_linear_38_3749" x1="24.12" y1="68.77" x2="84.13" y2="68.77" gradientUnits="userSpaceOnUse">
<stop stop-color="#E4E6EC" stop-opacity="0.9"/>
<stop offset="0.9" stop-color="#E1E3E7" stop-opacity="0.9"/>
</linearGradient>
<linearGradient id="paint28_linear_38_3749" x1="24.12" y1="36.25" x2="148.29" y2="36.25" gradientUnits="userSpaceOnUse">
<stop offset="0.13" stop-color="#F5F5F5"/>
<stop offset="0.99" stop-color="#F8F7F7"/>
</linearGradient>
<linearGradient id="paint29_linear_38_3749" x1="26.85" y1="67.22" x2="79.49" y2="67.22" gradientUnits="userSpaceOnUse">
<stop offset="0.13" stop-color="white"/>
<stop offset="0.77" stop-color="#95A0B0"/>
<stop offset="0.82" stop-color="#98A3B2"/>
<stop offset="0.99" stop-color="#9CA6B5"/>
</linearGradient>
<linearGradient id="paint30_linear_38_3749" x1="84.08" y1="67.32" x2="148.3" y2="67.32" gradientUnits="userSpaceOnUse">
<stop stop-color="#E6E6E6" stop-opacity="0.95"/>
<stop offset="0.9" stop-color="#D4D7E1" stop-opacity="0.9"/>
</linearGradient>
<linearGradient id="paint31_linear_38_3749" x1="88.55" y1="67.7" x2="145.59" y2="67.7" gradientUnits="userSpaceOnUse">
<stop offset="0.13" stop-color="white"/>
<stop offset="0.77" stop-color="#95A0B0"/>
<stop offset="0.82" stop-color="#98A3B2"/>
<stop offset="0.99" stop-color="#9CA6B5"/>
</linearGradient>
<linearGradient id="paint32_linear_38_3749" x1="415.794" y1="41.6188" x2="415.794" y2="112.907" gradientUnits="userSpaceOnUse">
<stop offset="0.07" stop-color="#95A0B0" stop-opacity="0.5"/>
<stop offset="0.82" stop-color="#98A3B2"/>
<stop offset="0.99" stop-color="#9CA6B5"/>
</linearGradient>
<linearGradient id="paint33_linear_38_3749" x1="415.743" y1="28.5572" x2="415.743" y2="101.04" gradientUnits="userSpaceOnUse">
<stop offset="0.13" stop-color="#F5F5F5"/>
<stop offset="0.99" stop-color="#F8F7F7"/>
</linearGradient>
<linearGradient id="paint34_linear_38_3749" x1="349.08" y1="76.3599" x2="472.07" y2="76.3599" gradientUnits="userSpaceOnUse">
<stop stop-color="#E4E6EC" stop-opacity="0.9"/>
<stop offset="0.9" stop-color="#E1E3E7" stop-opacity="0.9"/>
</linearGradient>
<clipPath id="clip0_38_3749">
<rect width="497" height="293" fill="white"/>
</clipPath>
</defs>
</svg>
