<svg width="778" height="127" viewBox="0 0 778 127" fill="none" xmlns="http://www.w3.org/2000/svg">
<path fill-rule="evenodd" clip-rule="evenodd" d="M759.897 31.6025L742.397 31.6025L742.397 78.9995L742.397 126.398L729.918 113.75L717.44 101.103L717.418 66.3525L717.397 31.6025L711.147 31.5975C707.709 31.5955 699.834 31.3016 693.647 30.9456L682.397 30.2965L682.397 18.4495L682.397 6.60254L729.897 6.60254L777.397 6.60254L777.397 19.1025L777.397 31.6025L759.897 31.6025ZM650.397 100.603L603.397 100.603L603.397 53.6025L603.397 6.60254L614.737 6.60254L626.078 6.60254L626.737 29.2645C627.1 41.7275 627.397 57.2525 627.397 63.7645L627.397 75.6025L639.147 75.6046C645.61 75.6066 661.36 75.9025 674.147 76.2645L697.397 76.9215L697.397 88.7625L697.397 100.603L650.397 100.603ZM558.921 106.603L574.159 91.3405L589.397 76.0795L589.397 53.5485L589.397 31.0186L574.074 15.8105L558.753 0.602542L536.813 0.602542L514.874 0.602542L499.135 16.3635L483.397 32.1256L483.397 54.1256L483.397 76.1265L498.659 91.3646L513.921 106.603L536.421 106.603L558.921 106.603ZM460.397 100.603L448.397 100.603L448.397 88.6025L448.397 76.6025L460.397 76.6025L472.397 76.6025L472.397 88.6025L472.397 100.603L460.397 100.603ZM551.861 37.7175L545.324 31.6025L536.275 31.6025L527.224 31.6025L520.81 37.7615L514.397 43.9196L514.397 53.0375L514.397 62.1566L521.172 68.8795L527.947 75.6025L536.951 75.6025L545.956 75.6025L552.176 69.3256L558.397 63.0485L558.397 53.4406L558.397 43.8315L551.861 37.7175Z" fill="#41E6BD"/>
<path fill-rule="evenodd" clip-rule="evenodd" d="M430.514 96.1616L429.897 119.221L373.528 62.4116L317.16 5.60254L336.021 5.60254L354.883 5.60254L380.14 30.8455L405.397 56.0875L405.397 45.0035C405.397 38.9065 405.692 27.7726 406.052 20.2606L406.707 6.60254L419.052 6.60254L431.397 6.60254L431.264 39.8525C431.19 58.1405 430.853 83.4796 430.514 96.1616ZM311.159 91.3405L295.921 106.603L273.421 106.603L250.92 106.603L235.659 91.3646L220.397 76.1265L220.44 54.1146L220.483 32.1025L235.868 16.3525L251.254 0.602541L273.489 0.602541L295.723 0.602541L310.954 15.3525L326.185 30.1025L326.291 53.0905L326.397 76.0795L311.159 91.3405ZM182.921 106.603L198.159 91.3405L213.397 76.0795L213.327 53.0905L213.256 30.1025L197.95 15.3525L182.643 0.602542L160.25 0.602542L137.857 0.602543L122.627 16.5245L107.397 32.4456L107.397 54.2866L107.397 76.1265L122.659 91.3646L137.92 106.603L160.421 106.603L182.921 106.603ZM82.8975 100.603L70.3975 100.603L70.3575 81.3525L70.3174 62.1025L59.2695 73.4985L48.2214 84.8945L36.7985 73.5035L25.3745 62.1126L26.0444 81.3575L26.7134 100.603L14.2155 100.603L1.71643 100.603L1.05945 77.3525C0.697449 64.5645 0.40149 45.1485 0.399475 34.2045L0.397461 14.3065L8.39343 14.9226L16.3895 15.5396L31.8965 31.3206L47.4034 47.1025L64.8585 29.3525L82.3135 11.6025L88.8555 11.6025L95.3975 11.6025L95.3975 56.1025L95.3975 100.603L82.8975 100.603ZM288.752 37.6915L282.108 31.6025L273.289 31.6025L264.47 31.6025L257.934 37.7175L251.397 43.8315L251.397 53.0535L251.397 62.2745L258.3 68.9385L265.203 75.6025L273.763 75.6025L282.324 75.6025L288.86 69.4876L295.397 63.3735L295.397 53.5765L295.397 43.7795L288.752 37.6915ZM175.86 37.7175L169.324 31.6025L160.397 31.6025L151.47 31.6025L144.934 37.7175L138.397 43.8315L138.397 53.0535L138.397 62.2745L145.3 68.9385L152.203 75.6025L160.763 75.6025L169.324 75.6025L175.86 69.4876L182.397 63.3735L182.397 53.6025L182.397 43.8315L175.86 37.7175Z" fill="#004DFF"/>
</svg>
