<svg width="413" height="389" viewBox="0 0 413 389" fill="none" xmlns="http://www.w3.org/2000/svg">
<g filter="url(#filter0_d_50_5)">
<path d="M110 189L124.641 220.547L164.641 197.453L110 189ZM244.945 266.911L230.304 235.364L190.304 258.458L244.945 266.911ZM137.713 209L210.304 250.911L217.232 246.911L144.641 205L137.713 209Z" fill="white" fill-opacity="0.5"/>
</g>
<rect width="129.467" height="180.525" transform="matrix(0.866025 0.5 -0.866025 0.5 300.813 233.097)" fill="#F0F0F0"/>
<g filter="url(#filter1_f_50_5)">
<path d="M371.43 294.6L301.33 335.78L231.57 294.95L301.67 253.77L371.43 294.6Z" fill="#38A39E"/>
</g>
<path d="M371.43 294.6L301.33 335.78L231.57 294.95L301.67 253.77L371.43 294.6Z" fill="#800080"/>
<path d="M301.879 252.712L250 282.664L301.879 312.616L353.757 282.664L301.879 252.712Z" fill="#38A39E" fill-opacity="0.5"/>
<path d="M352.61 282.664L301.879 311.954L251.147 282.664L301.879 253.375L352.61 282.664Z" stroke="url(#paint0_linear_50_5)" stroke-width="1.14709"/>
<path d="M301.879 221.808L250 251.76L301.879 281.712L353.757 251.76L301.879 221.808Z" fill="#38A39E" fill-opacity="0.5"/>
<path d="M352.61 251.76L301.879 281.05L251.147 251.76L301.879 222.471L352.61 251.76Z" stroke="url(#paint1_linear_50_5)" stroke-width="1.14709"/>
<path d="M301.879 190.904L250 220.856L301.879 250.808L353.757 220.856L301.879 190.904Z" fill="#38A39E" fill-opacity="0.5"/>
<path d="M352.61 220.856L301.879 250.146L251.147 220.856L301.879 191.566L352.61 220.856Z" stroke="url(#paint2_linear_50_5)" stroke-width="1.14709"/>
<path d="M301.879 160L250 189.952L301.879 219.904L353.757 189.952L301.879 160Z" fill="#38A39E" fill-opacity="0.5"/>
<path d="M352.61 189.952L301.879 219.242L251.147 189.952L301.879 160.662L352.61 189.952Z" stroke="url(#paint3_linear_50_5)" stroke-width="1.14709"/>
<path opacity="0.36" d="M232 170.18V295.18L301.76 336.01L371.87 294.83V169.83L302.11 129L232 170.18Z" fill="url(#paint4_linear_50_5)"/>
<g opacity="0.9" clip-path="url(#clip0_50_5)">
<path d="M320.129 196.66L309.252 190.381C308.99 190.229 308.843 190.024 308.843 189.81C308.843 189.596 308.99 189.39 309.252 189.239L320.588 182.694C321.427 182.21 321.427 181.424 320.588 180.939L316.706 178.697C315.866 178.213 314.505 178.213 313.665 178.698L302.398 185.203C301.814 185.54 300.866 185.542 300.279 185.206L296.698 183.158C296.105 182.819 296.104 182.266 296.694 181.927L307.996 175.427C308.839 174.943 308.84 174.156 307.999 173.671L304.12 171.431C303.28 170.946 301.919 170.947 301.079 171.431L269.338 189.757C268.592 190.188 268.592 190.885 269.337 191.315L299.362 208.65C300.108 209.081 301.316 209.081 302.062 208.65L320.129 198.219C320.875 197.788 320.875 197.091 320.129 196.66ZM303.111 200.596C302.134 201.16 300.549 201.16 299.572 200.596L296.503 198.825C295.526 198.26 295.526 197.345 296.503 196.781L299.572 195.01C300.549 194.445 302.134 194.445 303.111 195.01L306.179 196.781C307.157 197.345 307.157 198.26 306.179 198.825L303.111 200.596Z" fill="#FF6600"/>
</g>
<path opacity="0.75" d="M168.796 332.079L193.765 324.094L199.197 327.23L185.368 341.647L180.63 338.911L183.456 336.158L178.135 333.086L173.341 334.703L168.796 332.079ZM182.791 331.519L186.2 333.487L191.133 328.687L182.791 331.519ZM186.494 342.296L205.893 331.096L210.909 333.992L207.14 338.728L215.287 336.52L220.303 339.416L200.905 350.616L196.886 348.296L209.523 341L198.355 343.736L203.122 337.304L190.457 344.584L186.494 342.296ZM213.475 359.186L213.78 357.634C212.395 357.346 211.138 356.877 210.011 356.226C208.552 355.383 207.619 354.397 207.212 353.266C206.806 352.135 206.991 350.941 207.766 349.682C208.579 348.423 210.057 347.175 212.201 345.938C214.344 344.701 216.496 343.853 218.658 343.394C220.856 342.935 222.935 342.823 224.893 343.058C226.851 343.293 228.56 343.831 230.02 344.674C231.479 345.517 232.412 346.503 232.819 347.634C233.225 348.765 233.022 349.959 232.209 351.218C231.433 352.477 229.974 353.725 227.831 354.962C226.371 355.805 224.884 356.461 223.369 356.93C221.872 357.41 220.404 357.725 218.962 357.874L218.464 360.338L213.475 359.186ZM214.251 353.778C214.381 353.853 214.491 353.906 214.584 353.938L215.11 351.298L220.099 352.45L219.849 353.682C220.33 353.511 220.838 353.303 221.373 353.058C221.909 352.813 222.464 352.525 223.036 352.194C224.366 351.426 225.318 350.717 225.891 350.066C226.482 349.426 226.75 348.855 226.694 348.354C226.657 347.863 226.353 347.453 225.78 347.122C225.207 346.791 224.487 346.61 223.618 346.578C222.768 346.557 221.78 346.711 220.653 347.042C219.544 347.383 218.325 347.938 216.995 348.706C215.665 349.474 214.704 350.178 214.113 350.818C213.54 351.469 213.272 352.039 213.309 352.53C213.364 353.031 213.679 353.447 214.251 353.778ZM220.199 361.756L239.598 350.556L246.997 354.828C248.383 355.628 249.306 356.481 249.768 357.388C250.249 358.305 250.286 359.201 249.879 360.076C249.491 360.961 248.678 361.761 247.44 362.476C246.276 363.148 244.937 363.59 243.422 363.804C241.926 364.028 240.383 364.001 238.794 363.724C237.224 363.457 235.746 362.924 234.36 362.124L231.727 360.604L224.965 364.508L220.199 361.756ZM235.552 358.396L237.353 359.436C238.314 359.99 239.256 360.268 240.18 360.268C241.14 360.268 241.963 360.07 242.646 359.676C243.348 359.27 243.69 358.796 243.671 358.252C243.671 357.718 243.191 357.174 242.23 356.62L240.429 355.58L235.552 358.396Z" fill="black"/>
<rect width="75.8355" height="228.578" transform="matrix(0.866025 0.5 -0.866025 0.5 280.955 13.6248)" fill="#A52A2A"/>
<path d="M195.979 131.251C194.501 132.104 192.884 132.782 191.129 133.283C189.392 133.774 187.471 134.136 185.365 134.371L184.118 130.963C186.169 130.718 187.822 130.446 189.078 130.147C190.316 129.838 191.36 129.438 192.21 128.947C192.82 128.595 193.254 128.248 193.512 127.907C193.79 127.555 193.9 127.224 193.845 126.915C193.79 126.606 193.568 126.339 193.18 126.115C192.626 125.795 192.007 125.662 191.323 125.715C190.64 125.768 189.901 125.928 189.106 126.195C188.293 126.451 187.443 126.76 186.557 127.123C185.651 127.475 184.718 127.811 183.758 128.131C182.778 128.44 181.781 128.664 180.765 128.803C179.748 128.942 178.723 128.936 177.688 128.787C176.635 128.627 175.582 128.243 174.529 127.635C173.254 126.899 172.46 126.099 172.146 125.235C171.813 124.36 171.952 123.459 172.562 122.531C173.19 121.592 174.289 120.67 175.859 119.763C177.282 118.942 178.862 118.275 180.598 117.763C182.353 117.24 184.081 116.926 185.781 116.819L186.834 120.211C185.3 120.328 183.924 120.547 182.704 120.867C181.504 121.176 180.432 121.603 179.49 122.147C178.621 122.648 178.123 123.139 177.993 123.619C177.864 124.099 178.067 124.494 178.603 124.803C179.102 125.091 179.684 125.203 180.349 125.139C180.996 125.064 181.725 124.888 182.538 124.611C183.351 124.334 184.21 124.019 185.115 123.667C186.021 123.294 186.972 122.958 187.97 122.659C188.968 122.339 189.993 122.11 191.046 121.971C192.081 121.822 193.134 121.832 194.205 122.003C195.277 122.174 196.339 122.563 197.392 123.171C198.63 123.886 199.415 124.702 199.748 125.619C200.062 126.526 199.905 127.47 199.277 128.451C198.649 129.411 197.549 130.344 195.979 131.251ZM206.028 125.097L186.629 113.897L200.042 106.153L204.033 108.457L195.386 113.449L199.072 115.577L204.531 112.425L208.411 114.665L202.952 117.817L206.804 120.041L215.561 114.985L219.552 117.289L206.028 125.097ZM222.174 115.775L202.775 104.575L210.119 100.335C211.449 99.5675 212.89 99.0342 214.442 98.7355C215.994 98.4368 217.518 98.3888 219.014 98.5915C220.529 98.7835 221.896 99.2315 223.116 99.9355C224.354 100.65 225.139 101.455 225.471 102.351C225.785 103.237 225.675 104.122 225.139 105.007L237.083 107.167L232.067 110.063L221.481 107.983L219.846 108.927L226.94 113.023L222.174 115.775ZM216.077 106.751L218.211 105.519C218.95 105.093 219.328 104.629 219.347 104.127C219.384 103.615 219.061 103.162 218.377 102.767C217.675 102.362 216.89 102.175 216.021 102.207C215.153 102.218 214.349 102.437 213.61 102.863L211.476 104.095L216.077 106.751ZM242.809 103.862L217.84 95.8777L222.578 93.1417L240.287 99.2057L229.867 88.9337L234.412 86.3097L248.241 100.726L242.809 103.862ZM255.047 96.796L251.056 94.492L255.768 91.772L244.35 85.18L239.639 87.9L235.648 85.596L249.837 77.404L253.828 79.708L249.116 82.428L260.534 89.02L265.245 86.3L269.236 88.604L255.047 96.796ZM272.662 82.0182L273.687 81.4262C274.426 80.9996 274.879 80.4929 275.045 79.9062C275.211 79.3196 275.054 78.6849 274.574 78.0022C274.075 77.3089 273.188 76.5942 271.913 75.8582C270.639 75.1222 269.41 74.6156 268.228 74.3382C267.027 74.0502 265.918 73.9542 264.902 74.0502C263.886 74.1462 263.008 74.4076 262.269 74.8342L261.244 75.4262L272.662 82.0182ZM271.886 87.0742L252.487 75.8742L258.639 72.3222C260.209 71.4156 262.011 70.8236 264.043 70.5462C266.057 70.2582 268.163 70.3222 270.361 70.7382C272.56 71.1329 274.675 71.9169 276.708 73.0902C278.74 74.2636 280.107 75.4902 280.809 76.7702C281.511 78.0289 281.622 79.2449 281.142 80.4182C280.643 81.5809 279.608 82.6156 278.038 83.5222L271.886 87.0742ZM295.68 73.6885C294.221 74.5312 292.512 75.0698 290.553 75.3045C288.595 75.5392 286.526 75.4325 284.346 74.9845C282.165 74.5152 280.004 73.6618 277.861 72.4245C275.718 71.1872 274.249 69.9445 273.454 68.6965C272.66 67.4272 272.466 66.2272 272.872 65.0965C273.279 63.9658 274.212 62.9792 275.671 62.1365C277.131 61.2938 278.84 60.7552 280.798 60.5205C282.757 60.2858 284.826 60.4032 287.006 60.8725C289.186 61.3205 291.348 62.1632 293.491 63.4005C295.634 64.6378 297.103 65.8912 297.897 67.1605C298.692 68.4085 298.886 69.5978 298.479 70.7285C298.073 71.8592 297.14 72.8458 295.68 73.6885ZM291.44 71.2405C292.013 70.9098 292.318 70.4992 292.355 70.0085C292.41 69.5072 292.142 68.9365 291.551 68.2965C290.978 67.6458 290.027 66.9365 288.696 66.1685C287.366 65.4005 286.138 64.8512 285.011 64.5205C283.902 64.1792 282.914 64.0245 282.045 64.0565C281.196 64.0778 280.484 64.2538 279.911 64.5845C279.339 64.9152 279.025 65.3312 278.969 65.8325C278.932 66.3232 279.2 66.8938 279.773 67.5445C280.364 68.1845 281.325 68.8885 282.655 69.6565C283.985 70.4245 285.205 70.9792 286.313 71.3205C287.44 71.6512 288.429 71.8058 289.278 71.7845C290.147 71.7525 290.867 71.5712 291.44 71.2405ZM305.258 67.8067L285.859 56.6067L293.203 52.3667C294.533 51.5987 295.974 51.0654 297.526 50.7667C299.078 50.4681 300.602 50.4201 302.099 50.6227C303.614 50.8147 304.981 51.2627 306.2 51.9667C307.438 52.6814 308.223 53.4867 308.556 54.3827C308.87 55.2681 308.759 56.1534 308.223 57.0387L320.167 59.1987L315.151 62.0947L304.565 60.0147L302.93 60.9587L310.024 65.0547L305.258 67.8067ZM299.161 58.7827L301.295 57.5507C302.034 57.1241 302.413 56.6601 302.431 56.1587C302.468 55.6467 302.145 55.1934 301.461 54.7987C300.759 54.3934 299.974 54.2067 299.106 54.2387C298.237 54.2494 297.434 54.4681 296.695 54.8947L294.561 56.1267L299.161 58.7827Z" fill="white"/>
<path d="M77.6175 186.208L13.588 149.241C12.7331 148.747 12.0396 149.272 12.0396 150.411V167.553C12.0396 168.35 12.5252 169.279 13.1236 169.625L76.0681 205.965C76.923 206.459 77.6175 205.934 77.6175 204.795V186.208ZM145.348 149.314C145.348 148.429 144.81 148.022 144.146 148.404L77.6175 186.815V204.454C77.6175 205.782 78.4257 206.393 79.4214 205.818L144.296 168.363C144.877 168.028 145.348 167.126 145.348 166.352V149.314Z" fill="#BBC6E6"/>
<path d="M79.0689 127.678L27.0283 157.723L78.4531 187.414L130.495 157.367L79.0689 127.678Z" fill="#243462"/>
<path d="M74.6208 186.656L81.5867 186.118L82.8797 199.11L78.3403 201.732C78.3403 201.732 77.8206 202.273 76.5432 201.529C75.2659 200.785 74.6208 186.656 74.6208 186.656Z" fill="#BBC6E6"/>
<path d="M18.3422 158.888L16.6238 157.896V166.755L18.3422 167.747V158.888ZM23.1205 161.647L21.4021 160.655V169.514L23.1205 170.506V161.647ZM27.8988 164.405L26.1804 163.414V172.272L27.8988 173.264V164.405ZM32.6761 167.164L30.9577 166.171V175.03L32.6761 176.023V167.164ZM67.5541 189.871C68.5799 190.464 69.4133 191.907 69.4133 193.092C69.4133 194.277 68.5799 194.758 67.5541 194.165C66.5273 193.573 65.6938 192.13 65.6938 190.945C65.6938 189.76 66.5273 189.279 67.5541 189.871Z" fill="black"/>
<path d="M75.4028 205.581C75.4028 205.581 77.5894 207.339 79.8635 205.563C82.1365 203.787 79.9674 198.75 79.9674 198.75L75.4543 198.765L75.4028 205.581Z" fill="#BBC6E6"/>
<path d="M77.6177 187.643C77.6177 187.643 78.2442 187.743 78.9592 187.502C79.3283 187.378 79.6324 187.297 79.9976 187.019L83.5791 184.94V193.409L80.4027 195.265V200.534L83.5791 198.722V203.417L79.6761 205.72C79.6761 205.72 79.272 205.965 78.8766 206.133C78.6594 206.224 78.4311 206.286 78.1976 206.317C78.082 206.329 77.9693 206.346 77.8732 206.352C77.7245 206.36 77.6177 206.357 77.6177 206.357V187.643Z" fill="#8EA1D6"/>
<path d="M12.137 149.286C12.3711 148.899 13.4445 149.158 13.4445 149.158L76.2539 185.421C76.2539 185.421 77.1515 186.309 78.7504 185.554C80.2046 184.867 134.059 153.649 143.838 147.98C144.815 147.413 145.348 148.708 145.348 148.708L145.345 150.24L80.0579 187.933C80.0579 187.933 78.1763 189.573 74.8551 187.748C71.5349 185.923 12.0398 151.481 12.0398 151.481C12.0398 151.481 11.9029 149.674 12.137 149.286Z" fill="#F3F5FB"/>
<path d="M77.676 112.054L79.3575 111.369L144.124 147.345L143.997 148.055L139.637 150.415L77.676 114.624V112.054Z" fill="#F3F5FB"/>
<path d="M144.124 147.345C144.124 147.345 145.441 147.753 145.348 148.783L144.579 149.086L143.719 148.425L143.581 147.657L144.124 147.345ZM13.9581 149.206L13.925 147.257L75.665 111.612L77.6758 112.054V114.467L15.8406 150.167L13.9581 149.206Z" fill="#F3F5FB"/>
<path d="M75.5776 111.662C75.5776 111.662 77.1474 110.393 79.3573 111.369L79.0834 112.193L77.6176 113.593L76.8055 113.372L76.1721 112.593L75.5776 111.662Z" fill="#F3F5FB"/>
<path d="M77.6167 114.058L77.8848 113.828L141.745 148.717C141.935 148.821 141.987 148.911 141.993 149.013C141.999 149.116 141.957 149.231 141.778 149.332L127.715 157.348L77.5769 128.401L77.6167 114.058Z" fill="#375198"/>
<path d="M77.2339 113.904C77.2339 113.904 77.4971 113.708 77.8847 113.828L77.8789 113.981L77.6156 114.199L77.2825 114.052L77.2339 113.904Z" fill="#375198"/>
<path d="M137.234 161.134C138.261 160.54 139.094 161.022 139.094 162.208C139.094 163.393 138.261 164.838 137.234 165.43C136.206 166.023 135.373 165.542 135.373 164.356C135.373 163.171 136.206 161.726 137.234 161.134ZM129.208 167.49C129.208 166.07 128.343 165.417 127.278 166.031L95.6846 184.271C94.6189 184.887 93.7544 186.54 93.7544 187.96C93.7544 189.38 94.6189 190.034 95.6846 189.419L127.278 171.178C128.343 170.563 129.208 168.911 129.208 167.49Z" fill="black"/>
<path d="M12.0397 150.521C12.0397 150.521 11.521 148.178 14.6499 146.839L14 147.756C17.4184 151.422 16.6451 151.951 12.4613 149.927L12.0397 150.521Z" fill="#F3F5FB"/>
<path d="M27.655 157.362L77.6178 128.516V114.149C77.6178 114.149 77.474 113.764 77.202 113.921C72.2936 116.741 25.4286 143.675 15.6777 149.375C15.4601 149.503 15.1619 149.771 15.2318 150.079C15.2911 150.338 15.6874 150.642 15.8642 150.759C17.8604 152.091 27.655 157.362 27.655 157.362Z" fill="#375198"/>
<path d="M77.6175 165.208L13.588 128.241C12.7331 127.747 12.0396 128.272 12.0396 129.411V146.553C12.0396 147.35 12.5252 148.279 13.1236 148.625L76.0681 184.965C76.923 185.459 77.6175 184.934 77.6175 183.795V165.208ZM145.348 128.314C145.348 127.429 144.81 127.022 144.146 127.404L77.6175 165.815V183.454C77.6175 184.782 78.4257 185.393 79.4214 184.818L144.296 147.363C144.877 147.028 145.348 146.126 145.348 145.352V128.314Z" fill="#BBC6E6"/>
<path d="M79.0689 106.678L27.0283 136.723L78.4531 166.414L130.495 136.367L79.0689 106.678Z" fill="#243462"/>
<path d="M74.6208 165.656L81.5867 165.118L82.8797 178.11L78.3403 180.732C78.3403 180.732 77.8206 181.273 76.5432 180.529C75.2659 179.785 74.6208 165.656 74.6208 165.656Z" fill="#BBC6E6"/>
<path d="M18.3422 137.888L16.6238 136.896V145.755L18.3422 146.747V137.888ZM23.1205 140.647L21.4021 139.655V148.514L23.1205 149.506V140.647ZM27.8988 143.405L26.1804 142.414V151.272L27.8988 152.264V143.405ZM32.6761 146.164L30.9577 145.171V154.03L32.6761 155.023V146.164ZM67.5541 168.871C68.5799 169.464 69.4133 170.907 69.4133 172.092C69.4133 173.277 68.5799 173.758 67.5541 173.165C66.5273 172.573 65.6938 171.13 65.6938 169.945C65.6938 168.76 66.5273 168.279 67.5541 168.871Z" fill="black"/>
<path d="M75.4028 184.581C75.4028 184.581 77.5894 186.339 79.8635 184.563C82.1365 182.787 79.9674 177.75 79.9674 177.75L75.4543 177.765L75.4028 184.581Z" fill="#BBC6E6"/>
<path d="M77.6177 166.643C77.6177 166.643 78.2442 166.743 78.9592 166.502C79.3283 166.378 79.6324 166.297 79.9976 166.019L83.5791 163.94V172.409L80.4027 174.265V179.534L83.5791 177.722V182.417L79.6761 184.72C79.6761 184.72 79.272 184.965 78.8766 185.133C78.6594 185.224 78.4311 185.286 78.1976 185.317C78.082 185.329 77.9693 185.346 77.8732 185.352C77.7245 185.36 77.6177 185.357 77.6177 185.357V166.643Z" fill="#8EA1D6"/>
<path d="M12.137 128.286C12.3711 127.899 13.4445 128.158 13.4445 128.158L76.2539 164.421C76.2539 164.421 77.1515 165.309 78.7504 164.554C80.2046 163.867 134.059 132.649 143.838 126.98C144.815 126.413 145.348 127.708 145.348 127.708L145.345 129.24L80.0579 166.933C80.0579 166.933 78.1763 168.573 74.8551 166.748C71.5349 164.923 12.0398 130.481 12.0398 130.481C12.0398 130.481 11.9029 128.674 12.137 128.286Z" fill="#F3F5FB"/>
<path d="M77.676 91.0539L79.3575 90.369L144.124 126.345L143.997 127.055L139.637 129.415L77.676 93.6242V91.0539Z" fill="#F3F5FB"/>
<path d="M144.124 126.345C144.124 126.345 145.441 126.753 145.348 127.783L144.579 128.086L143.719 127.425L143.581 126.657L144.124 126.345ZM13.9581 128.206L13.925 126.257L75.665 90.6118L77.6758 91.0538V93.4668L15.8406 129.167L13.9581 128.206Z" fill="#F3F5FB"/>
<path d="M75.5776 90.6624C75.5776 90.6624 77.1474 89.3928 79.3573 90.369L79.0834 91.1928L77.6176 92.5925L76.8055 92.372L76.1721 91.593L75.5776 90.6624Z" fill="#F3F5FB"/>
<path d="M77.6167 93.0579L77.8848 92.8276L141.745 127.717C141.935 127.821 141.987 127.911 141.993 128.013C141.999 128.116 141.957 128.231 141.778 128.332L127.715 136.348L77.5769 107.401L77.6167 93.0579Z" fill="#375198"/>
<path d="M77.2339 92.9044C77.2339 92.9044 77.4971 92.7082 77.8847 92.8276L77.8789 92.9811L77.6156 93.1987L77.2825 93.052L77.2339 92.9044Z" fill="#375198"/>
<path d="M137.234 140.134C138.261 139.54 139.094 140.022 139.094 141.208C139.094 142.393 138.261 143.838 137.234 144.43C136.206 145.023 135.373 144.542 135.373 143.356C135.373 142.171 136.206 140.726 137.234 140.134ZM129.208 146.49C129.208 145.07 128.343 144.417 127.278 145.031L95.6846 163.271C94.6189 163.887 93.7544 165.54 93.7544 166.96C93.7544 168.38 94.6189 169.034 95.6846 168.419L127.278 150.178C128.343 149.563 129.208 147.911 129.208 146.49Z" fill="black"/>
<path d="M12.0397 129.521C12.0397 129.521 11.521 127.178 14.6499 125.839L14 126.756C17.4184 130.422 16.6451 130.951 12.4613 128.927L12.0397 129.521Z" fill="#F3F5FB"/>
<path d="M27.655 136.362L77.6178 107.516V93.1491C77.6178 93.1491 77.474 92.7644 77.202 92.9208C72.2936 95.7408 25.4286 122.675 15.6777 128.375C15.4601 128.503 15.1619 128.771 15.2318 129.079C15.2911 129.338 15.6874 129.642 15.8642 129.759C17.8604 131.091 27.655 136.362 27.655 136.362Z" fill="#375198"/>
<path d="M77.8683 144.205L13.8387 107.237C12.9839 106.744 12.2903 107.269 12.2903 108.408V125.549C12.2903 126.347 12.776 127.275 13.3744 127.621L76.3189 163.962C77.1737 164.456 77.8683 163.931 77.8683 162.792V144.205ZM145.599 107.31C145.599 106.425 145.061 106.018 144.396 106.401L77.8683 144.812V162.451C77.8683 163.779 78.6765 164.39 79.6721 163.814L144.547 126.359C145.128 126.024 145.599 125.123 145.599 124.349V107.31Z" fill="#BBC6E6"/>
<path d="M79.3197 85.6744L27.2791 115.72L78.7038 145.41L130.745 115.364L79.3197 85.6744Z" fill="#243462"/>
<path d="M74.8716 144.653L81.8375 144.115L83.1304 157.107L78.5911 159.729C78.5911 159.729 78.0714 160.27 76.794 159.526C75.5166 158.782 74.8716 144.653 74.8716 144.653Z" fill="#BBC6E6"/>
<path d="M18.5929 116.884L16.8745 115.893V124.752L18.5929 125.744V116.884ZM23.3712 119.643L21.6528 118.651V127.511L23.3712 128.502V119.643ZM28.1495 122.402L26.4311 121.41V130.268L28.1495 131.261V122.402ZM32.9268 125.161L31.2084 124.168V133.027L32.9268 134.02V125.161ZM67.8048 147.868C68.8306 148.461 69.6641 149.903 69.6641 151.088C69.6641 152.273 68.8306 152.754 67.8048 152.162C66.778 151.57 65.9446 150.127 65.9446 148.942C65.9446 147.756 66.778 147.276 67.8048 147.868Z" fill="black"/>
<path d="M75.6536 163.578C75.6536 163.578 77.8402 165.336 80.1142 163.56C82.3873 161.783 80.2181 156.747 80.2181 156.747L75.705 156.761L75.6536 163.578Z" fill="#BBC6E6"/>
<path d="M77.8684 145.64C77.8684 145.64 78.495 145.74 79.2099 145.499C79.579 145.374 79.8831 145.294 80.2483 145.016L83.8299 142.936V151.406L80.6534 153.261V158.531L83.8299 156.718V161.414L79.9268 163.716C79.9268 163.716 79.5227 163.962 79.1273 164.129C78.9101 164.22 78.6818 164.282 78.4483 164.314C78.3327 164.325 78.2201 164.343 78.1239 164.349C77.9753 164.357 77.8684 164.354 77.8684 164.354V145.64Z" fill="#8EA1D6"/>
<path d="M12.3877 107.283C12.6218 106.896 13.6952 107.155 13.6952 107.155L76.5047 143.418C76.5047 143.418 77.4022 144.306 79.0012 143.55C80.4553 142.863 134.31 111.646 144.089 105.977C145.066 105.409 145.599 106.704 145.599 106.704L145.596 108.237L80.3087 145.93C80.3087 145.93 78.4271 147.57 75.1059 145.745C71.7856 143.919 12.2906 109.478 12.2906 109.478C12.2906 109.478 12.1536 107.671 12.3877 107.283Z" fill="#F3F5FB"/>
<path d="M77.9268 70.0506L79.6082 69.3657L144.375 105.341L144.248 106.051L139.887 108.412L77.9268 72.6209V70.0506Z" fill="#F3F5FB"/>
<path d="M144.375 105.341C144.375 105.341 145.692 105.749 145.599 106.78L144.829 107.083L143.97 106.422L143.832 105.654L144.375 105.341ZM14.2088 107.203L14.1758 105.254L75.9158 69.6085L77.9266 70.0505V72.4635L16.0914 108.164L14.2088 107.203Z" fill="#F3F5FB"/>
<path d="M75.8284 69.6591C75.8284 69.6591 77.3981 68.3895 79.6081 69.3657L79.3341 70.1895L77.8683 71.5892L77.0562 71.3687L76.4229 70.5897L75.8284 69.6591Z" fill="#F3F5FB"/>
<path d="M77.8675 72.0546L78.1356 71.8243L141.996 106.714C142.186 106.818 142.238 106.907 142.244 107.009C142.25 107.112 142.208 107.228 142.029 107.329L127.965 115.345L77.8276 86.3982L77.8675 72.0546Z" fill="#375198"/>
<path d="M77.4846 71.9011C77.4846 71.9011 77.7479 71.7049 78.1355 71.8243L78.1296 71.9778L77.8664 72.1954L77.5332 72.0487L77.4846 71.9011Z" fill="#375198"/>
<path d="M137.485 119.13C138.512 118.537 139.345 119.019 139.345 120.205C139.345 121.39 138.512 122.834 137.485 123.427C136.457 124.019 135.624 123.539 135.624 122.352C135.624 121.167 136.457 119.723 137.485 119.13ZM129.459 125.487C129.459 124.067 128.594 123.413 127.529 124.028L95.9353 142.268C94.8697 142.884 94.0051 144.536 94.0051 145.956C94.0051 147.377 94.8697 148.03 95.9353 147.415L127.529 129.175C128.594 128.56 129.459 126.907 129.459 125.487Z" fill="black"/>
<path d="M12.2905 108.518C12.2905 108.518 11.7717 106.175 14.9006 104.836L14.2507 105.753C17.6691 109.418 16.8959 109.948 12.7121 107.923L12.2905 108.518Z" fill="#F3F5FB"/>
<path d="M27.9057 115.358L77.8685 86.5128V72.1458C77.8685 72.1458 77.7248 71.7611 77.4528 71.9175C72.5443 74.7375 25.6793 101.671 15.9284 107.372C15.7108 107.5 15.4126 107.768 15.4826 108.076C15.5418 108.335 15.9381 108.638 16.1149 108.756C18.1112 110.088 27.9057 115.358 27.9057 115.358Z" fill="#375198"/>
<path d="M77.2601 129.725L11.6821 91.8635V104.667C11.6821 105.199 12.0056 105.818 12.4048 106.048L76.2275 142.896C76.7967 143.225 77.2601 142.875 77.2601 142.116V129.725ZM144.987 90.6221L77.2601 129.725V142.529C77.2601 143.061 77.5836 143.306 77.9828 143.076L144.264 104.807C144.663 104.577 144.987 103.958 144.987 103.426V90.6221Z" fill="#BBC6E6"/>
<path d="M76.9307 123.536L77.26 129.725L144.987 90.6221L145.013 85.4659L76.9307 123.536Z" fill="#DADADA"/>
<path d="M11.8142 85.3892L11.6821 91.8635L77.2601 129.725V123.729L11.8142 85.3892Z" fill="#DADADA"/>
<path d="M82.9195 48.1721C80.6533 46.8636 77.2203 46.7218 75.2581 47.8544L13.1189 83.731C11.1567 84.8636 11.4034 86.8462 13.6687 88.1537L73.8884 122.922C76.1537 124.229 79.5876 124.372 81.5499 123.24L143.689 87.363C145.651 86.2304 145.405 84.2478 143.138 82.9403L82.9195 48.1721Z" fill="#BBBBBB"/>
<path d="M74.2634 127.999L81.2293 127.461L82.5222 140.454L77.9829 143.076C77.9829 143.076 77.4632 143.617 76.1858 142.872C74.9084 142.128 74.2634 127.999 74.2634 127.999Z" fill="#BBC6E6"/>
<path d="M11.6492 90.4074L75.9429 127.296C75.9429 127.296 77.1961 128.002 78.795 127.247C80.3949 126.492 144.995 89.1368 144.995 89.1368L144.987 90.6221L79.7003 128.315C79.7003 128.315 77.8187 129.955 74.4975 128.13C71.1773 126.304 11.6822 91.8635 11.6822 91.8635L11.6492 90.4074Z" fill="#F3F5FB"/>
<g filter="url(#filter2_f_50_5)">
<path d="M67.1954 128.651C68.2222 129.244 69.0557 130.686 69.0557 131.871C69.0557 133.057 68.2222 133.537 67.1954 132.945C66.1696 132.352 65.3362 130.91 65.3362 129.725C65.3362 128.54 66.1696 128.059 67.1954 128.651ZM136.877 99.7027C137.903 99.1101 138.737 99.5909 138.737 100.777C138.737 101.963 137.903 103.407 136.877 104C135.849 104.593 135.015 104.111 135.015 102.926C135.015 101.74 135.849 100.295 136.877 99.7027Z" fill="#00FF00"/>
<path d="M66.7734 133.675L66.7737 133.676C67.4411 134.061 68.2429 134.203 68.9323 133.806C69.6218 133.408 69.8994 132.642 69.8994 131.871C69.8994 131.096 69.6323 130.294 69.2412 129.617C68.8501 128.94 68.2891 128.308 67.6172 127.92C66.9501 127.535 66.1486 127.393 65.4593 127.791C64.77 128.188 64.4924 128.954 64.4924 129.725C64.4924 130.5 64.7596 131.302 65.1505 131.979C65.5414 132.656 66.1021 133.288 66.7734 133.675ZM137.298 104.731L137.299 104.731C137.971 104.342 138.531 103.71 138.922 103.033C139.314 102.355 139.581 101.553 139.581 100.777C139.581 100.006 139.303 99.2403 138.614 98.8421C137.924 98.4441 137.122 98.5867 136.455 98.9719C135.782 99.3598 135.221 99.9923 134.83 100.67C134.439 101.347 134.172 102.15 134.172 102.926C134.172 103.696 134.449 104.462 135.139 104.86C135.828 105.258 136.63 105.116 137.298 104.731Z" stroke="white" stroke-width="1.6875"/>
</g>
<path d="M67.1954 128.651C68.2222 129.244 69.0557 130.686 69.0557 131.871C69.0557 133.057 68.2222 133.537 67.1954 132.945C66.1696 132.352 65.3362 130.91 65.3362 129.725C65.3362 128.54 66.1696 128.059 67.1954 128.651ZM136.877 99.7027C137.903 99.1101 138.737 99.5909 138.737 100.777C138.737 101.963 137.903 103.407 136.877 104C135.849 104.593 135.015 104.111 135.015 102.926C135.015 101.74 135.849 100.295 136.877 99.7027Z" fill="#00FF00"/>
<path d="M16.2661 96.9644L17.9845 97.9562V106.815L16.2661 105.823V96.9644Z" fill="black"/>
<path d="M21.0444 99.7231L22.7628 100.715V109.574L21.0444 108.582V99.7231Z" fill="black"/>
<path d="M25.8227 102.482L27.5411 103.474V112.333L25.8227 111.341V102.482Z" fill="black"/>
<path d="M30.6 105.241L32.3184 106.232V115.092L30.6 114.099V105.241Z" fill="black"/>
<path d="M77.26 128.986C77.26 128.986 77.941 129.021 78.6549 128.83C79.0241 128.732 79.3349 128.536 79.7002 128.315L83.2215 126.283V132.635L80.045 134.469V138.646L83.1875 136.832V140.133L77.8691 143.155C77.8691 143.155 77.8118 143.186 77.7418 143.211C77.686 143.229 77.6288 143.242 77.5709 143.251C77.4727 143.269 77.26 143.26 77.26 143.26V128.986Z" fill="#8EA1D6"/>
<path d="M128.851 106.485C128.851 105.065 127.985 104.411 126.921 105.026L95.3271 123.266C94.2615 123.882 93.397 125.534 93.397 126.954C93.397 128.374 94.2615 129.028 95.3271 128.413L126.921 110.172C127.985 109.557 128.851 107.905 128.851 106.485Z" fill="black"/>
<g clip-path="url(#clip1_50_5)">
<path d="M52.3525 71.3869C38.0708 79.6324 38.0763 93.0575 52.3525 101.3C66.6287 109.542 89.8872 109.542 104.163 101.3C118.44 93.0575 118.44 79.6292 104.163 71.3869C89.8872 63.1445 66.6287 63.1445 52.3525 71.3869ZM54.6159 72.7379C55.0703 72.4888 55.6758 72.3524 56.3034 72.3577C56.931 72.363 57.5309 72.5097 57.9753 72.7664C58.4273 73.0274 58.6813 73.3813 58.6813 73.7504C58.6813 74.1195 58.4273 74.4735 57.9753 74.7344C57.5233 74.9954 56.9102 75.142 56.2709 75.142C55.6316 75.142 55.0186 74.9954 54.5665 74.7344C54.3384 74.6028 54.1583 74.4461 54.037 74.2736C53.9156 74.1011 53.8555 73.9163 53.8601 73.7302C53.8647 73.544 53.9339 73.3602 54.0638 73.1898C54.1936 73.0194 54.3813 72.8657 54.6159 72.7379ZM61.3238 72.1051C64.8762 70.7012 68.9155 69.7606 73.1609 69.3486C77.4063 68.9366 81.7562 69.0632 85.9085 69.7194L88.4349 73.5005C88.8733 74.1522 90.1502 74.4781 91.2792 74.2313L96.8636 72.9879C98.1931 73.6168 99.4253 74.3113 100.546 75.0635L98.3926 76.307C98.1789 76.4304 98.2337 76.5633 98.4419 76.6835L99.4284 77.253C101.752 78.5946 100.952 79.6451 99.9271 80.3823C98.9571 81.0879 97.1596 81.4486 96.3375 81.1512C92.0574 79.4267 90.2105 79.6008 87.1689 79.8064C87.9417 77.8162 88.1554 75.4084 85.5139 73.8833C82.6586 72.2348 78.9046 72.3266 76.6906 72.586C73.5832 72.9562 71.2651 74.0099 70.7061 74.3326L48.456 87.1787C48.0956 83.418 49.8927 79.6936 53.5691 76.5823L58.9453 76.655C60.1565 76.6708 61.1648 76.1203 61.1868 75.4179L61.3238 72.1051ZM49.7164 93.3739C50.1727 93.1253 50.7789 92.9892 51.4062 92.9945C52.0335 92.9999 52.6325 93.1462 53.0759 93.4024C53.5279 93.6634 53.7819 94.0174 53.7819 94.3864C53.7819 94.7555 53.5279 95.1095 53.0759 95.3705C52.6239 95.6314 52.0108 95.7781 51.3715 95.778C50.7322 95.7781 50.1192 95.6314 49.6671 95.3705C49.439 95.2389 49.2589 95.0822 49.1376 94.9097C49.0162 94.7372 48.9561 94.5523 48.9607 94.3662C48.9653 94.18 49.0345 93.9963 49.1644 93.8258C49.2942 93.6554 49.4819 93.5017 49.7164 93.3739ZM90.4297 69.9567C90.886 69.7081 91.4922 69.572 92.1195 69.5773C92.7467 69.5826 93.3457 69.729 93.7892 69.9852C94.2412 70.2462 94.4951 70.6001 94.4951 70.9692C94.4951 71.3383 94.2412 71.6922 93.7892 71.9532C93.3371 72.2142 92.724 72.3608 92.0848 72.3608C91.4455 72.3608 90.8324 72.2142 90.3804 71.9532C90.1523 71.8216 89.9722 71.6649 89.8509 71.4924C89.7295 71.3199 89.6694 71.1351 89.674 70.9489C89.6786 70.7628 89.7478 70.579 89.8776 70.4086C90.0075 70.2382 90.1952 70.0845 90.4297 69.9567ZM53.2787 91.7223L56.249 90.0074L69.6429 97.7403L63.6474 101.202C60.3068 100.128 57.3572 98.6916 54.9611 96.9715L56.9998 93.9087C57.4327 93.2537 56.8737 92.5196 55.7393 92.2697L53.2787 91.7223ZM65.8176 84.6474L72.8927 80.5626C73.2599 80.3506 75.8959 79.316 77.5565 80.2747C78.932 81.0689 77.7263 82.3345 76.3289 83.1413L69.7634 86.9319L65.8176 84.6474ZM75.4411 90.2035L80.8611 87.0743C81.3543 86.7895 83.6506 85.6283 87.0867 86.8212C88.1444 87.185 91.3723 88.4981 92.578 88.8208C93.8878 89.2037 97.1705 89.5865 98.568 88.7797L107.413 83.6729C107.614 84.4735 107.717 85.2813 107.72 86.0903L103.347 87.7229C102.327 88.1026 102.037 88.8905 102.695 89.479L105.829 92.276C104.326 94.5823 101.977 96.674 98.9451 98.4082C95.9129 100.143 92.268 101.479 88.2595 102.325L83.4149 100.515C82.3956 100.136 81.0365 100.3 80.3788 100.889L77.6113 103.36C76.2828 103.348 74.9572 103.284 73.6435 103.17L90.7805 93.2758C90.9723 93.1651 91.0709 93.0702 90.8901 92.9658L84.8288 89.4663C84.6535 89.3651 84.4836 89.4189 84.2918 89.5296L79.2773 92.4247L75.4411 90.2035ZM81.4146 102.784C81.8709 102.535 82.477 102.399 83.1043 102.404C83.7316 102.41 84.3306 102.556 84.774 102.812C85.2261 103.073 85.48 103.427 85.48 103.796C85.48 104.165 85.2261 104.519 84.774 104.78C84.322 105.041 83.7089 105.188 83.0697 105.188C82.4304 105.188 81.8173 105.041 81.3653 104.78C81.1371 104.649 80.9571 104.492 80.8357 104.32C80.7144 104.147 80.6542 103.962 80.6588 103.776C80.6634 103.59 80.7327 103.406 80.8625 103.236C80.9923 103.065 81.1801 102.912 81.4146 102.784ZM106.728 88.2576C107.184 88.009 107.791 87.8729 108.418 87.8783C109.045 87.8836 109.644 88.0299 110.088 88.2861C110.54 88.5471 110.794 88.9011 110.794 89.2701C110.794 89.6392 110.54 89.9932 110.088 90.2542C109.636 90.5151 109.023 90.6618 108.383 90.6618C107.744 90.6618 107.131 90.5151 106.679 90.2542C106.451 90.1226 106.271 89.9659 106.149 89.7934C106.028 89.6209 105.968 89.436 105.972 89.2499C105.977 89.0637 106.046 88.88 106.176 88.7095C106.306 88.5391 106.494 88.3854 106.728 88.2576Z" fill="black"/>
<path fill-rule="evenodd" clip-rule="evenodd" d="M102.717 72.2222C109.204 75.9673 112.848 81.0469 112.848 86.3434C112.848 91.6399 109.204 96.7194 102.717 100.465C96.2299 104.21 87.4318 106.314 78.258 106.314C69.0843 106.314 60.2862 104.21 53.7994 100.465C47.3125 96.7194 43.6683 91.6399 43.6683 86.3434C43.6683 81.0469 47.3125 75.9673 53.7994 72.2222C60.2862 68.477 69.0843 66.373 78.258 66.373C87.4318 66.373 96.2298 68.477 102.717 72.2222ZM99.8943 71.1242L106.071 70.2858L104.618 73.8517L110.959 73.7283L108.334 77.06L114.598 77.6517L110.888 80.6291L116.839 81.9137L112.192 84.4133L117.596 86.3434L112.192 88.2735L116.839 90.7731L110.888 92.0577L114.598 95.0351L108.334 95.6267L110.959 98.9585L104.618 98.8351L106.071 102.401L99.8943 101.563L100.108 105.223L94.3373 103.708L93.3125 107.324L88.1555 105.182L85.9305 108.618L81.601 105.935L78.258 109.055L74.915 105.935L70.5856 108.618L68.3606 105.182L63.2036 107.324L62.1788 103.708L56.408 105.223L56.6217 101.563L50.4454 102.401L51.8977 98.8351L45.557 98.9585L48.1821 95.6267L41.918 95.0351L45.6282 92.0577L39.6766 90.7731L44.3239 88.2735L38.9203 86.3434L44.3239 84.4133L39.6766 81.9137L45.6282 80.6291L41.918 77.6517L48.1821 77.06L45.557 73.7283L51.8977 73.8517L50.4454 70.2858L56.6217 71.1242L56.408 67.4634L62.1788 68.979L63.2036 65.3625L68.3606 67.5046L70.5856 64.0684L74.915 66.7515L78.258 63.6317L81.601 66.7515L85.9305 64.0684L88.1555 67.5046L93.3125 65.3625L94.3373 68.979L100.108 67.4634L99.8943 71.1242Z" fill="black" stroke="black" stroke-width="1.89844" stroke-linecap="round" stroke-linejoin="round"/>
</g>
<defs>
<filter id="filter0_d_50_5" x="106" y="189" width="142.945" height="85.9106" filterUnits="userSpaceOnUse" color-interpolation-filters="sRGB">
<feFlood flood-opacity="0" result="BackgroundImageFix"/>
<feColorMatrix in="SourceAlpha" type="matrix" values="0 0 0 0 0 0 0 0 0 0 0 0 0 0 0 0 0 0 127 0" result="hardAlpha"/>
<feOffset dy="4"/>
<feGaussianBlur stdDeviation="2"/>
<feComposite in2="hardAlpha" operator="out"/>
<feColorMatrix type="matrix" values="0 0 0 0 0 0 0 0 0 0 0 0 0 0 0 0 0 0 0.25 0"/>
<feBlend mode="normal" in2="BackgroundImageFix" result="effect1_dropShadow_50_5"/>
<feBlend mode="normal" in="SourceGraphic" in2="effect1_dropShadow_50_5" result="shape"/>
</filter>
<filter id="filter1_f_50_5" x="196.57" y="218.77" width="209.86" height="152.01" filterUnits="userSpaceOnUse" color-interpolation-filters="sRGB">
<feFlood flood-opacity="0" result="BackgroundImageFix"/>
<feBlend mode="normal" in="SourceGraphic" in2="BackgroundImageFix" result="shape"/>
<feGaussianBlur stdDeviation="17.5" result="effect1_foregroundBlur_50_5"/>
</filter>
<filter id="filter2_f_50_5" x="56.8987" y="91.0103" width="90.2756" height="50.627" filterUnits="userSpaceOnUse" color-interpolation-filters="sRGB">
<feFlood flood-opacity="0" result="BackgroundImageFix"/>
<feBlend mode="normal" in="SourceGraphic" in2="BackgroundImageFix" result="shape"/>
<feGaussianBlur stdDeviation="3.375" result="effect1_foregroundBlur_50_5"/>
</filter>
<linearGradient id="paint0_linear_50_5" x1="301.879" y1="252.712" x2="301.879" y2="312.616" gradientUnits="userSpaceOnUse">
<stop stop-color="white"/>
<stop offset="1" stop-color="white" stop-opacity="0"/>
</linearGradient>
<linearGradient id="paint1_linear_50_5" x1="301.879" y1="221.808" x2="301.879" y2="281.712" gradientUnits="userSpaceOnUse">
<stop stop-color="white"/>
<stop offset="1" stop-color="white" stop-opacity="0"/>
</linearGradient>
<linearGradient id="paint2_linear_50_5" x1="301.879" y1="190.904" x2="301.879" y2="250.808" gradientUnits="userSpaceOnUse">
<stop stop-color="white"/>
<stop offset="1" stop-color="white" stop-opacity="0"/>
</linearGradient>
<linearGradient id="paint3_linear_50_5" x1="301.879" y1="160" x2="301.879" y2="219.904" gradientUnits="userSpaceOnUse">
<stop stop-color="white"/>
<stop offset="1" stop-color="white" stop-opacity="0"/>
</linearGradient>
<linearGradient id="paint4_linear_50_5" x1="302" y1="47.5" x2="539.992" y2="283.529" gradientUnits="userSpaceOnUse">
<stop stop-color="#37C2BC" stop-opacity="0"/>
<stop offset="0.700235" stop-color="#635BFF"/>
</linearGradient>
<clipPath id="clip0_50_5">
<rect width="40" height="40" fill="white" transform="matrix(0.866025 0.5 -0.866025 0.5 301.641 170)"/>
</clipPath>
<clipPath id="clip1_50_5">
<rect width="91.125" height="91.125" rx="12.6562" transform="matrix(0.866025 -0.5 0.866025 0.5 0.4375 86.375)" fill="white"/>
</clipPath>
</defs>
</svg>
