<svg width="356" height="318" viewBox="0 0 356 318" fill="none" xmlns="http://www.w3.org/2000/svg">
<g clip-path="url(#clip0_40_3903)">
<mask id="mask0_40_3903" style="mask-type:luminance" maskUnits="userSpaceOnUse" x="0" y="0" width="356" height="318">
<path d="M356 0H0V318H356V0Z" fill="white"/>
</mask>
<g mask="url(#mask0_40_3903)">
<path opacity="0.3" fill-rule="evenodd" clip-rule="evenodd" d="M61.2146 141.94C58.9172 134.382 57.8848 129.544 58.6867 128.686C61.9692 125.193 77.3596 120.401 78.518 123.445C78.6701 123.854 80.0938 127.626 82.4393 133.821C82.956 135.185 84.3947 135.946 85.8197 135.648C87.6205 135.271 89.4207 134.953 91.2204 134.693C92.5983 134.494 93.6822 133.375 93.8196 131.979C94.6038 124.015 95.5329 119.093 96.5914 118.59C100.925 116.556 116.855 117.826 116.722 121C116.7 121.451 116.552 125.494 116.319 132.118C116.266 133.606 117.327 134.885 118.778 135.148C120.713 135.5 122.625 135.922 124.525 136.412C125.86 136.756 127.272 136.146 127.932 134.918C131.774 127.769 134.543 123.52 135.717 123.452C140.471 123.197 154.507 130.47 153.151 133.38C153.083 133.525 152.814 134.112 152.362 135.095C151.574 136.81 150.234 139.729 148.444 143.615C147.817 144.975 148.302 146.581 149.543 147.387C151.007 148.338 152.442 149.335 153.842 150.38C154.95 151.207 156.488 151.179 157.558 150.285C163.809 145.061 167.978 142.105 169.078 142.496C173.543 144.058 183.583 156.148 181.235 158.337C181.023 158.526 179.639 159.835 177.31 162.038C176.1 163.183 174.634 164.57 172.944 166.167C171.87 167.182 171.708 168.835 172.525 170.054C173.468 171.46 174.374 172.9 175.235 174.376C175.964 175.625 177.472 176.193 178.829 175.689C184.901 173.433 188.741 172.075 189.454 171.94C194.813 171.007 200.391 189.037 195.376 190.967C194.956 191.128 193.416 191.774 190.926 192.816C189.64 193.354 188.101 193.999 186.333 194.737C184.988 195.299 184.256 196.768 184.556 198.197C185.029 200.445 185.39 202.691 185.671 204.943C185.853 206.403 187.052 207.523 188.513 207.56C194.896 207.721 198.911 207.895 199.609 208.046C204.875 209.168 203.048 228.106 197.716 228.032C197.059 228.032 193.575 228.071 187.99 228.153C186.559 228.175 185.353 229.243 185.084 230.662C184.62 233.113 184.026 235.537 183.345 237.941C182.941 239.368 183.614 240.882 184.95 241.485C190.697 244.08 194.286 245.753 194.864 246.158C199.253 249.244 190.177 266.196 185.35 264.091C184.77 263.822 181.708 262.596 176.793 260.63L176.377 260.463C175.061 259.937 173.557 260.449 172.774 261.65C171.479 263.636 170.102 265.568 168.65 267.453C167.748 268.624 167.799 270.281 168.799 271.352C173.054 275.911 175.685 278.821 176.071 279.415C178.897 283.917 164.074 296.362 160.471 292.579C160.037 292.105 157.597 289.698 153.697 285.868C152.671 284.861 151.067 284.77 149.887 285.607C147.809 287.08 145.642 288.459 143.402 289.756C142.14 290.487 141.553 292.02 142.044 293.392C144.157 299.295 145.424 303.03 145.542 303.728C146.352 309.005 127.97 314.975 126.143 310.063C125.913 309.443 124.642 306.297 122.588 301.272C122.037 299.923 120.58 299.203 119.161 299.53C116.81 300.071 114.463 300.494 112.112 300.835C110.697 301.04 109.604 302.221 109.53 303.659C109.206 309.996 108.928 313.984 108.758 314.678C107.49 319.915 88.3766 318.584 88.5854 313.309C88.6018 312.664 88.6492 309.276 88.7056 303.84C88.721 302.355 87.6309 301.106 86.1777 300.871C83.6833 300.466 81.2195 299.931 78.7788 299.308C77.4115 298.958 75.9713 299.618 75.3522 300.903C72.5502 306.721 70.7465 310.358 70.3194 310.943C67.0863 315.361 50.1645 306.811 52.415 301.984C52.7019 301.403 54.0169 298.348 56.1275 293.443L56.2572 293.142C56.8462 291.773 56.3276 290.189 55.078 289.408C53.1237 288.186 51.2252 286.884 49.3749 285.508C48.2364 284.661 46.6514 284.727 45.5964 285.694C40.8134 290.077 37.7598 292.791 37.1446 293.192C32.5194 296.099 20.3004 281.752 24.2179 278.093C24.7084 277.653 27.1966 275.187 31.1583 271.244C32.2072 270.201 32.3229 268.542 31.4732 267.343C29.9615 265.208 28.5481 262.987 27.233 260.678C26.5352 259.454 25.0856 258.87 23.7423 259.299C15.9988 261.777 11.0515 262.928 10.2019 262.154C6.72696 259.005 2.26466 243.903 5.26467 242.749C5.70496 242.58 9.58947 241.064 15.9618 238.571C17.3133 238.042 18.0795 236.597 17.8093 235.168C17.4854 233.455 17.2169 231.742 17.0035 230.028C16.8262 228.603 15.6888 227.491 14.2672 227.389C6.25313 226.813 1.31246 226.019 0.8311 224.987C-1.11843 220.751 0.56703 204.964 3.77425 205.016C4.23426 205.027 8.3819 205.072 15.1729 205.137C16.6006 205.151 17.8325 204.117 18.129 202.707C18.5278 200.809 18.9932 198.923 19.5252 197.05C19.9211 195.655 19.2999 194.169 18.0217 193.52C10.9555 189.93 6.77196 187.32 6.73277 186.167C6.59442 181.472 14.305 167.407 17.2144 168.675C17.3595 168.738 17.9461 168.99 18.9292 169.412C20.6613 170.155 23.6242 171.426 27.571 173.125C28.879 173.688 30.4044 173.208 31.211 172.016C32.2229 170.52 33.2817 169.052 34.3896 167.618C35.2702 166.479 35.2596 164.874 34.337 163.784C29.2656 157.792 26.4165 153.785 26.8378 152.694C28.5302 148.238 41.0137 138.004 43.1691 140.271C43.3556 140.477 44.6455 141.813 46.8171 144.062C47.9495 145.235 49.3216 146.656 50.9021 148.295C51.8978 149.327 53.4955 149.467 54.6925 148.661C56.3466 147.546 58.0491 146.48 59.7988 145.472C61.0272 144.763 61.6267 143.296 61.2146 141.94ZM101.515 276.878C134.089 276.878 160.496 250.471 160.496 217.897C160.496 185.323 134.089 158.916 101.515 158.916C68.9405 158.916 42.5339 185.323 42.5339 217.897C42.5339 250.471 68.9405 276.878 101.515 276.878Z" fill="url(#paint0_linear_40_3903)"/>
<path opacity="0.2" d="M270.257 39.7606C270.217 39.973 270.735 40.8072 271.642 42.0728C273.816 45.1053 273.907 49.1531 272.526 52.6193C271.09 56.224 268.075 59.0989 264.221 59.5489C262.856 59.7081 261.987 59.8304 261.803 59.9012C260.482 60.3508 260.044 66.9586 261.826 69.5963C261.952 69.7939 263.103 70.0449 264.937 70.3304C268.528 70.8896 271.349 73.5225 272.769 76.8683C274.248 80.3533 274.208 84.5133 271.85 87.4748C270.826 88.7606 270.182 89.6055 270.092 89.8081C269.475 91.0537 273.835 96.0214 276.946 96.6503C277.167 96.6912 278.117 96.092 279.554 95.0517C282.673 92.7941 286.856 92.6951 290.444 94.0904C294.085 95.5063 297.034 98.457 297.667 102.312C297.984 104.24 298.237 105.483 298.386 105.7C298.778 106.29 300.779 106.345 302.862 106.226C305.938 106.052 308.082 105.704 308.347 102.634C308.6 99.7055 310.941 95.1575 313.677 94.0833C314.082 93.9245 314.484 93.757 314.883 93.5808C318.229 92.1042 322.179 92.1007 325.142 94.2443C326.886 95.5058 328.06 96.2923 328.342 96.3552C329.054 96.4991 330.546 95.0772 331.956 93.4918C333.958 91.24 335.202 89.5184 333.264 87.2111C331.409 85.0033 329.894 80.2253 331.078 77.5961C331.288 77.1305 331.485 76.6608 331.672 76.1876C333.032 72.7323 335.872 69.9037 339.537 69.3031C341.454 68.9889 342.69 68.7384 342.917 68.601C343.53 68.1929 343.565 66.0458 343.428 63.8756C343.243 60.9492 342.92 58.9094 339.999 58.6554C337.218 58.4136 332.899 56.1678 331.932 53.5484C331.723 52.9849 331.499 52.4261 331.258 51.8727C329.737 48.3757 329.734 44.261 331.95 41.1576C332.929 39.7868 333.524 38.8795 333.572 38.6446C333.722 37.9002 332.159 36.3015 330.488 34.8366C328.353 32.9648 326.751 31.773 324.58 33.6034C322.501 35.3562 317.978 36.7996 315.512 35.6553C315.028 35.431 314.54 35.2195 314.047 35.0209C310.636 33.6453 307.864 30.7708 307.442 27.1166C307.284 25.7434 307.162 24.865 307.09 24.6767C306.64 23.3552 300.032 22.9174 297.395 24.6993C297.225 24.807 297.022 25.6155 296.794 26.9353C296.141 30.7282 293.314 33.6871 289.759 35.1621C286.162 36.6548 281.895 36.6289 278.839 34.2138C277.883 33.4579 277.264 32.9891 277.099 32.9062C275.843 32.2623 270.886 36.6492 270.257 39.7606ZM313.922 52.5524C320.511 59.1007 320.543 69.7686 313.958 76.3406C307.409 82.9288 296.741 82.9611 290.169 76.3759C283.581 69.8276 283.549 59.1597 290.134 52.5877C296.682 45.9995 307.324 45.9775 313.922 52.5524Z" fill="url(#paint1_linear_40_3903)"/>
<path opacity="0.2" d="M189.119 17.0206C189.08 17.233 189.598 18.0672 190.505 19.3328C192.679 22.3653 192.769 26.4131 191.389 29.8793C189.953 33.484 186.937 36.3589 183.084 36.8089C181.719 36.9681 180.85 37.0904 180.666 37.1613C179.345 37.6108 178.907 44.2186 180.689 46.8564C180.814 47.0539 181.966 47.3049 183.799 47.5904C187.391 48.1496 190.212 50.7825 191.632 54.1283C193.111 57.6133 193.071 61.7733 190.713 64.7348C189.689 66.0206 189.045 66.8655 188.955 67.0682C188.337 68.3137 192.698 73.2815 195.809 73.9104C196.03 73.9512 196.98 73.352 198.417 72.3117C201.536 70.0541 205.718 69.9551 209.307 71.3505C212.948 72.7664 215.897 75.717 216.53 79.572C216.847 81.4999 217.1 82.7428 217.248 82.9605C217.641 83.5501 219.642 83.6047 221.725 83.4863C224.801 83.3115 226.945 82.9637 227.21 79.8944C227.463 76.9656 229.803 72.4175 232.54 71.3433C232.944 71.1845 233.346 71.017 233.746 70.8408C237.092 69.3642 241.041 69.3608 244.005 71.5043C245.749 72.7658 246.922 73.5523 247.205 73.6152C247.916 73.7591 249.409 72.3372 250.818 70.7518C252.821 68.5 254.065 66.7784 252.126 64.4711C250.272 62.2633 248.757 57.4853 249.941 54.8561C250.15 54.3905 250.348 53.9208 250.535 53.4476C251.895 49.9923 254.735 47.1637 258.4 46.5631C260.316 46.2489 261.552 45.9984 261.78 45.861C262.393 45.4529 262.428 43.3058 262.291 41.1356C262.106 38.2092 261.783 36.1694 258.862 35.9154C256.08 35.6736 251.762 33.4278 250.794 30.8084C250.586 30.2449 250.362 29.6861 250.121 29.1327C248.6 25.6357 248.597 21.521 250.813 18.4176C251.792 17.0468 252.386 16.1396 252.435 15.9046C252.585 15.1602 251.022 13.5615 249.351 12.0966C247.216 10.2248 245.614 9.03295 243.443 10.8634C241.364 12.6162 236.841 14.0596 234.374 12.9153C233.891 12.691 233.402 12.4795 232.91 12.2809C229.498 10.9053 226.727 8.0308 226.305 4.37656C226.146 3.0034 226.025 2.12497 225.952 1.93672C225.503 0.615139 218.895 0.177407 216.257 1.95932C216.088 2.06699 215.884 2.8755 215.657 4.19532C215.004 7.98819 212.177 10.9471 208.622 12.4221C205.025 13.9148 200.758 13.8889 197.702 11.4738C196.746 10.7179 196.127 10.2491 195.962 10.1662C194.706 9.52227 189.748 13.9092 189.119 17.0206ZM232.785 29.8124C239.373 36.3607 239.406 47.0286 232.82 53.6006C226.272 60.1889 215.604 60.2211 209.032 53.6359C202.444 47.0876 202.412 36.4198 208.997 29.8478C215.545 23.2595 226.186 23.2375 232.785 29.8124Z" fill="url(#paint2_linear_40_3903)"/>
<path d="M353.56 193.779C357.057 137.391 314.181 88.8437 257.793 85.3462C201.405 81.8486 152.858 124.725 149.36 181.113C145.863 237.501 188.739 286.048 245.127 289.546C301.515 293.043 350.062 250.167 353.56 193.779Z" stroke="#E9ECEE" stroke-width="3.32304" stroke-linecap="round" stroke-linejoin="round" stroke-dasharray="5.54 11.08"/>
<g filter="url(#filter0_d_40_3903)">
<path d="M308.273 45.8148H78.6451C76.1981 45.8148 74.2144 47.7985 74.2144 50.2455V227.952C74.2144 230.399 76.1981 232.383 78.6451 232.383H308.273C310.72 232.383 312.703 230.399 312.703 227.952V50.2455C312.703 47.7985 310.72 45.8148 308.273 45.8148Z" fill="white"/>
</g>
<mask id="mask1_40_3903" style="mask-type:luminance" maskUnits="userSpaceOnUse" x="136" y="86" width="116" height="116">
<path d="M251.444 86.2605H136.245V201.459H251.444V86.2605Z" fill="white"/>
</mask>
<g mask="url(#mask1_40_3903)">
<path d="M242.443 86.2605H145.245C140.274 86.2605 136.245 90.2899 136.245 95.2604V192.459C136.245 197.43 140.274 201.459 145.245 201.459H242.443C247.414 201.459 251.443 197.43 251.443 192.459V95.2604C251.443 90.2899 247.414 86.2605 242.443 86.2605Z" fill="#3178C6"/>
<path fill-rule="evenodd" clip-rule="evenodd" d="M203.977 176.473V188.902C205.998 189.938 208.389 190.715 211.149 191.233C213.909 191.751 216.818 192.009 219.876 192.009C222.856 192.009 225.687 191.724 228.369 191.155C231.051 190.585 233.403 189.646 235.424 188.339C237.445 187.031 239.045 185.322 240.225 183.212C241.404 181.102 241.993 178.493 241.993 175.386C241.993 173.133 241.656 171.159 240.983 169.463C240.309 167.767 239.337 166.258 238.067 164.938C236.798 163.617 235.275 162.433 233.5 161.384C231.725 160.335 229.723 159.345 227.494 158.413C225.862 157.739 224.398 157.086 223.102 156.452C221.806 155.817 220.705 155.17 219.798 154.509C218.891 153.849 218.191 153.15 217.699 152.412C217.206 151.674 216.96 150.839 216.96 149.907C216.96 149.052 217.18 148.282 217.621 147.596C218.061 146.91 218.684 146.321 219.487 145.829C220.29 145.337 221.275 144.955 222.441 144.683C223.607 144.411 224.903 144.275 226.328 144.275C227.365 144.275 228.46 144.353 229.613 144.508C230.766 144.663 231.926 144.903 233.092 145.227C234.258 145.55 235.391 145.958 236.493 146.45C237.594 146.942 238.612 147.512 239.545 148.159V136.546C237.653 135.821 235.586 135.284 233.344 134.934C231.103 134.585 228.531 134.41 225.628 134.41C222.674 134.41 219.876 134.727 217.232 135.362C214.589 135.996 212.263 136.986 210.255 138.333C208.246 139.679 206.659 141.395 205.493 143.479C204.327 145.563 203.744 148.056 203.744 150.956C203.744 154.658 204.813 157.817 206.951 160.433C209.089 163.048 212.334 165.262 216.688 167.074C218.398 167.773 219.992 168.459 221.469 169.133C222.946 169.806 224.223 170.505 225.298 171.23C226.374 171.955 227.222 172.745 227.844 173.599C228.466 174.454 228.777 175.425 228.777 176.512C228.777 177.315 228.583 178.059 228.194 178.746C227.805 179.431 227.216 180.027 226.425 180.532C225.635 181.037 224.65 181.432 223.471 181.717C222.292 182.001 220.912 182.144 219.331 182.144C216.636 182.144 213.967 181.672 211.324 180.726C208.68 179.781 206.231 178.364 203.977 176.473ZM183.261 145.544H199.244V135.31H154.694V145.544H170.599V191.109H183.261V145.544Z" fill="white"/>
</g>
<path d="M74.7139 50.2456C74.7139 47.7985 76.6976 45.8148 79.1446 45.8148H308.772C311.219 45.8148 313.203 47.7985 313.203 50.2456V65.1608H74.7139V50.2456Z" fill="#ADBCC9"/>
<path d="M300.895 55.4871C300.895 53.1879 299.031 51.324 296.732 51.324C294.433 51.324 292.569 53.1879 292.569 55.4871C292.569 57.7864 294.433 59.6503 296.732 59.6503C299.031 59.6503 300.895 57.7864 300.895 55.4871Z" fill="#5B7993" stroke="#ADBCC9" stroke-width="1.10768"/>
<path d="M307.971 55.4871C307.971 53.1879 306.107 51.324 303.808 51.324C301.509 51.324 299.645 53.1879 299.645 55.4871C299.645 57.7864 301.509 59.6503 303.808 59.6503C306.107 59.6503 307.971 57.7864 307.971 55.4871Z" fill="#5B7993" stroke="#ADBCC9" stroke-width="1.10768"/>
<path d="M180.463 178.984H48.8862V268.702H180.463V178.984Z" fill="url(#paint3_linear_40_3903)"/>
<path opacity="0.3" d="M113.55 207.295H64.0836C63.058 207.295 62.2266 208.126 62.2266 209.152C62.2266 210.178 63.058 211.009 64.0836 211.009H113.55C114.575 211.009 115.407 210.178 115.407 209.152C115.407 208.126 114.575 207.295 113.55 207.295Z" fill="white"/>
<path d="M70.0903 193.098H64.0836C63.058 193.098 62.2266 193.929 62.2266 194.955C62.2266 195.98 63.058 196.812 64.0836 196.812H70.0903C71.1159 196.812 71.9473 195.98 71.9473 194.955C71.9473 193.929 71.1159 193.098 70.0903 193.098Z" fill="white"/>
<path d="M95.4853 193.098H77.6534C76.6278 193.098 75.7964 193.929 75.7964 194.955C75.7964 195.98 76.6278 196.812 77.6534 196.812H95.4853C96.5109 196.812 97.3423 195.98 97.3423 194.955C97.3423 193.929 96.5109 193.098 95.4853 193.098Z" fill="white"/>
<path opacity="0.3" d="M91.001 215.949H64.0836C63.058 215.949 62.2266 216.78 62.2266 217.806C62.2266 218.832 63.058 219.663 64.0836 219.663H91.001C92.0266 219.663 92.858 218.832 92.858 217.806C92.858 216.78 92.0266 215.949 91.001 215.949Z" fill="white"/>
<path opacity="0.3" d="M141.709 215.949H99.6036C98.578 215.949 97.7466 216.78 97.7466 217.806C97.7466 218.832 98.578 219.663 99.6036 219.663H141.709C142.734 219.663 143.566 218.832 143.566 217.806C143.566 216.78 142.734 215.949 141.709 215.949Z" fill="white"/>
<path opacity="0.3" d="M106.189 224.604H64.0836C63.058 224.604 62.2266 225.435 62.2266 226.461C62.2266 227.487 63.058 228.318 64.0836 228.318H106.189C107.214 228.318 108.046 227.487 108.046 226.461C108.046 225.435 107.214 224.604 106.189 224.604Z" fill="white"/>
<path opacity="0.3" d="M154.545 224.604H112.44C111.414 224.604 110.583 225.435 110.583 226.461C110.583 227.487 111.414 228.318 112.44 228.318H154.545C155.571 228.318 156.402 227.487 156.402 226.461C156.402 225.435 155.571 224.604 154.545 224.604Z" fill="white"/>
<path opacity="0.3" d="M77.1604 233.26H64.0836C63.058 233.26 62.2266 234.091 62.2266 235.117C62.2266 236.143 63.058 236.974 64.0836 236.974H77.1604C78.186 236.974 79.0174 236.143 79.0174 235.117C79.0174 234.091 78.186 233.26 77.1604 233.26Z" fill="white"/>
<path opacity="0.3" d="M67.5217 241.329H64.0836C63.058 241.329 62.2266 242.16 62.2266 243.186C62.2266 244.211 63.058 245.043 64.0836 245.043H67.5217C68.5473 245.043 69.3787 244.211 69.3787 243.186C69.3787 242.16 68.5473 241.329 67.5217 241.329Z" fill="white"/>
<path opacity="0.3" d="M86.5536 249.399H64.0836C63.058 249.399 62.2266 250.23 62.2266 251.256C62.2266 252.282 63.058 253.113 64.0836 253.113H86.5536C87.5792 253.113 88.4107 252.282 88.4107 251.256C88.4107 250.23 87.5792 249.399 86.5536 249.399Z" fill="white"/>
<path opacity="0.3" d="M99.9695 249.399H94.7149C93.6893 249.399 92.8579 250.23 92.8579 251.256C92.8579 252.282 93.6893 253.113 94.7149 253.113H99.9695C100.995 253.113 101.827 252.282 101.827 251.256C101.827 250.23 100.995 249.399 99.9695 249.399Z" fill="white"/>
<path opacity="0.3" d="M127.772 207.295H121.219C120.193 207.295 119.362 208.126 119.362 209.152C119.362 210.178 120.193 211.009 121.219 211.009H127.772C128.798 211.009 129.629 210.178 129.629 209.152C129.629 208.126 128.798 207.295 127.772 207.295Z" fill="white"/>
<path opacity="0.3" d="M137.846 207.295H135.349C134.323 207.295 133.492 208.126 133.492 209.152C133.492 210.178 134.323 211.009 135.349 211.009H137.846C138.871 211.009 139.703 210.178 139.703 209.152C139.703 208.126 138.871 207.295 137.846 207.295Z" fill="white"/>
<path opacity="0.3" d="M164.675 207.295H145.422C144.396 207.295 143.565 208.126 143.565 209.152C143.565 210.178 144.396 211.009 145.422 211.009H164.675C165.7 211.009 166.532 210.178 166.532 209.152C166.532 208.126 165.7 207.295 164.675 207.295Z" fill="white"/>
</g>
</g>
<defs>
<filter id="filter0_d_40_3903" x="52.0608" y="34.738" width="282.796" height="230.875" filterUnits="userSpaceOnUse" color-interpolation-filters="sRGB">
<feFlood flood-opacity="0" result="BackgroundImageFix"/>
<feColorMatrix in="SourceAlpha" type="matrix" values="0 0 0 0 0 0 0 0 0 0 0 0 0 0 0 0 0 0 127 0" result="hardAlpha"/>
<feOffset dy="11.0768"/>
<feGaussianBlur stdDeviation="11.0768"/>
<feColorMatrix type="matrix" values="0 0 0 0 0.122344 0 0 0 0 0.237341 0 0 0 0 0.3375 0 0 0 0.12 0"/>
<feBlend mode="normal" in2="BackgroundImageFix" result="effect1_dropShadow_40_3903"/>
<feBlend mode="normal" in="SourceGraphic" in2="effect1_dropShadow_40_3903" result="shape"/>
</filter>
<linearGradient id="paint0_linear_40_3903" x1="66.3312" y1="224.476" x2="150.141" y2="363.404" gradientUnits="userSpaceOnUse">
<stop stop-color="#49D6F9"/>
<stop offset="1" stop-color="#D96BFF"/>
</linearGradient>
<linearGradient id="paint1_linear_40_3903" x1="295.226" y1="53.2971" x2="372.828" y2="95.6481" gradientUnits="userSpaceOnUse">
<stop stop-color="#49D6F9"/>
<stop offset="1" stop-color="#D96BFF"/>
</linearGradient>
<linearGradient id="paint2_linear_40_3903" x1="214.089" y1="30.5571" x2="291.69" y2="72.9081" gradientUnits="userSpaceOnUse">
<stop stop-color="#49D6F9"/>
<stop offset="1" stop-color="#D96BFF"/>
</linearGradient>
<linearGradient id="paint3_linear_40_3903" x1="48.8862" y1="223.843" x2="180.463" y2="223.843" gradientUnits="userSpaceOnUse">
<stop stop-color="#4776E6"/>
<stop offset="1" stop-color="#8E54E9"/>
</linearGradient>
<clipPath id="clip0_40_3903">
<rect width="356" height="318" fill="white"/>
</clipPath>
</defs>
</svg>
