<svg width="376" height="284" viewBox="0 0 376 284" fill="none" xmlns="http://www.w3.org/2000/svg">
<g clip-path="url(#clip0_41_3938)">
<g opacity="0.2">
<path opacity="0.091" d="M256.7 100.3L73.4 205.8C68.8 208.5 66.2 212.6 66.2 217.3C66.2 222.4 69.4 227.1 74.9 230.3L150.4 273.9C150.5 274 154.2 276.1 154.4 276.1C159.1 278.6 164.8 279.9 170.5 279.7C175.1 279.7 180.2 278.1 183.5 276.2L365.8 171.3C370.4 168.6 373 164.5 373 159.8C373 154.7 369.8 150 364.3 146.8L285.7 101.4C284.1 100.5 281.8 99.4 279.9 98.8C276.8 97.8 273.4 97.2 269.9 97.2C264.8 97.2 260.2 98.3 256.7 100.3Z" fill="black"/>
<path opacity="0.182" d="M256.8 100.6L73.4999 206.1C69.0999 208.7 66.5999 212.6 66.6999 217C66.6999 221.8 69.7999 226.3 75.0999 229.3L151 273.1C151.2 273.2 154.7 275.2 155 275.3C159.8 277.8 165.7 278.9 171.2 278.4C175.3 278.4 181 276.3 184 274.6L365.3 170.3C369.7 167.7 372.2 163.8 372.1 159.4C372.1 154.6 369 150.1 363.7 147.1L285.6 102C284.1 101.1 281.5 99.9 279.8 99.4C276.7 98.4 273.3 97.7 269.9 97.6C264.9 97.6 260.3 98.6 256.8 100.6Z" fill="black"/>
<path opacity="0.273" d="M257 100.9L73.6999 206.4C69.4999 208.8 67.0999 212.6 67.1999 216.8C67.2999 221.3 70.1999 225.6 75.1999 228.5L151.4 272.5C151.8 272.7 155 274.5 155.4 274.7C160.3 277.1 166.3 278.1 171.7 277.4C175.3 277.4 181.7 274.9 184.3 273.3L364.5 169.6C368.7 167.2 371.1 163.4 371 159.2C370.9 154.7 368 150.4 363 147.5L285.4 102.7C284.1 101.9 281.2 100.5 279.7 100C276.6 99 273.3 98.2 269.9 98.1C265 98 260.5 98.9 257 100.9Z" fill="black"/>
<path opacity="0.364" d="M257.1 101.3L73.7999 206.8C69.7999 209.1 67.5999 212.7 67.6999 216.6C67.7999 220.8 70.4999 224.8 75.3999 227.6L152 271.8C152.5 272.1 155.5 273.7 156.1 273.9C161.1 276.2 167.2 277 172.5 276.1C175.7 276.1 182.6 273.1 184.9 271.8L364 168.6C368 166.3 370.2 162.7 370.1 158.8C370 154.6 367.3 150.6 362.4 147.8L285.2 103.2C284.1 102.5 280.9 101 279.6 100.5C276.6 99.4 273.3 98.6 269.9 98.5C265.1 98.3 260.6 99.3 257.1 101.3Z" fill="black"/>
<path opacity="0.455" d="M257.3 101.6L74 207.1C70.1 209.3 68.1 212.7 68.2 216.4C68.3 220.3 70.9 224.1 75.5 226.8L152.4 271.2C153 271.5 155.8 273.1 156.5 273.3C161.6 275.5 167.9 276.2 173 275.1C175.7 275.1 183.3 271.6 185.2 270.5L363.4 167.9C367.3 165.7 369.3 162.3 369.2 158.6C369.1 154.7 366.5 150.9 361.9 148.2L285.2 103.9C284.2 103.3 280.8 101.6 279.6 101.1C276.6 99.9999 273.3 99.0999 270 98.9999C265.3 98.6999 260.7 99.5999 257.3 101.6Z" fill="black"/>
<path opacity="0.545" d="M257.4 101.9L74.1 207.4C70.4 209.5 68.5 212.7 68.7 216.1C68.8 219.8 71.3 223.3 75.7 225.8L153 270.4C153.7 270.8 156.3 272.2 157.2 272.4C162.4 274.6 168.8 275.1 173.8 273.7C176.1 273.7 184.2 269.7 185.8 268.8L363 166.8C366.7 164.7 368.6 161.5 368.4 158.1C368.3 154.4 365.8 150.9 361.4 148.4L285.2 104.4C284.4 103.9 280.6 102 279.7 101.6C276.8 100.5 273.5 99.6 270.2 99.4C265.4 99.1 260.8 99.9 257.4 101.9Z" fill="black"/>
<path opacity="0.636" d="M257.5 102.2L74.3 207.7C70.8 209.7 69.1 212.7 69.2 215.9C69.4 219.3 71.7 222.6 75.8 225L153.4 269.8C154.2 270.3 156.6 271.5 157.6 271.8C163 273.9 169.4 274.2 174.3 272.6C176.1 272.6 184.9 268.1 186.2 267.4L362.4 166C365.9 164 367.6 161 367.5 157.8C367.3 154.4 365 151.1 360.9 148.7L285.1 105C284.4 104.6 280.4 102.5 279.7 102.2C276.8 101.1 273.6 100.1 270.3 99.8C265.5 99.5 260.9 100.3 257.5 102.2Z" fill="black"/>
<path opacity="0.727" d="M257.7 102.5L74.3999 208C71.0999 209.9 69.4999 212.7 69.6999 215.6C69.8999 218.7 72.0999 221.8 75.9999 224L154 269C155 269.6 157.1 270.6 158.2 271C163.7 273 170.3 273.2 175 271.4C176.4 271.4 185.7 266.4 186.7 265.9L361.9 165.1C365.2 163.2 366.8 160.4 366.6 157.5C366.4 154.4 364.2 151.3 360.3 149.1L285 105.6C284.5 105.3 280.2 102.9 279.6 102.7C276.7 101.5 273.6 100.5 270.3 100.2C265.6 99.8 261 100.6 257.7 102.5Z" fill="black"/>
<path opacity="0.818" d="M257.8 102.8L74.5999 208.3C71.4999 210.1 69.9999 212.6 70.1999 215.3C70.3999 218.1 72.4999 220.9 76.0999 223.1L154.4 268.3C155.5 268.9 157.4 269.9 158.7 270.2C164.3 272.2 171 272.2 175.6 270.1C176.5 270.1 186.4 264.7 187.1 264.3L361.3 164C364.4 162.2 365.9 159.7 365.7 157C365.5 154.2 363.4 151.4 359.8 149.2L285 106C284.7 105.8 280 103.2 279.7 103.1C276.9 101.9 273.7 100.8 270.5 100.5C265.7 100.2 261.1 100.9 257.8 102.8Z" fill="black"/>
<path opacity="0.909" d="M258 103.2L74.7 208.7C71.8 210.4 70.4 212.7 70.7 215.2C70.9 217.7 72.8 220.3 76.3 222.3L155 267.7C156.2 268.4 157.9 269.2 159.3 269.6C165 271.5 171.8 271.4 176.3 269.1C176.8 269.1 187.3 263.2 187.6 263L360.8 163.3C363.7 161.6 365.1 159.3 364.8 156.8C364.6 154.3 362.7 151.7 359.2 149.7L284.9 106.8C284.7 106.7 279.8 103.9 279.6 103.8C276.8 102.6 273.7 101.4 270.5 101.1C265.9 100.6 261.2 101.3 258 103.2Z" fill="black"/>
<path d="M176.9 267.9L360.2 162.4C365.7 159.2 365 153.7 358.7 150L279.6 104.4C273.2 100.7 263.6 100.3 258.1 103.5L74.8999 209C69.3999 212.2 70.0999 217.7 76.3999 221.4L155.5 267C161.8 270.7 171.4 271.1 176.9 267.9Z" fill="black"/>
</g>
<path d="M151 250L76.9999 207.4C73.2999 205.2 71.3999 202.4 71.3999 199.4V196.6C71.6999 193.1 74.3999 195 79.2999 192.2L253.2 91.7C262.8 86.1 277.4 85.5 285.7 90.4L359.6 133.1C363.3 135.2 365.2 131.5 365.2 134.5V138.4C364.9 141.9 362.2 145.5 357.3 148.4L183.5 248.7C173.9 254.2 159.3 254.9 151 250Z" fill="url(#paint0_linear_41_3938)"/>
<path d="M253.2 91.4C262.8 85.8 277.4 85.2 285.7 90.1L359.6 132.8C363.3 134.9 365 131.4 365.2 134.3V138.2C364.9 141.7 362.2 145.3 357.3 148.2L183.5 248.6C173.9 254.2 159.3 254.8 151 249.9L76.9999 207.2C73.2999 205 71.3999 202.2 71.3999 199.1C71.3999 198.8 71.3999 196.6 71.4999 196.3C71.8999 192.9 74.4999 194.6 79.3999 191.7L253.2 91.4Z" fill="url(#paint1_linear_41_3938)"/>
<path d="M253.2 91.0999C262.8 85.4999 277.4 84.8999 285.7 89.7999L359.6 132.5C363.2 134.6 364.8 131.3 365.1 134.2C365.1 134.6 365.2 137.8 365.2 138.1C364.9 141.6 362.2 145.2 357.3 148.1L183.5 248.4C173.9 254 159.3 254.6 151 249.7L76.9999 207.1C73.2999 204.9 71.3999 202 71.3999 199C71.3999 198.7 71.3999 196.5 71.4999 196.2C71.9999 192.8 74.4999 194.3 79.3999 191.5L253.2 91.0999Z" fill="url(#paint2_linear_41_3938)"/>
<path d="M253.2 90.8C262.8 85.2 277.4 84.6 285.7 89.5L359.6 132.2C363.1 134.2 364.7 131.2 365.1 134.1C365.2 134.5 365.2 137.6 365.2 138C364.9 141.5 362.2 145.1 357.3 148L183.5 248.3C173.9 253.9 159.3 254.5 151 249.6L76.9999 207C73.1999 204.8 71.3999 201.9 71.3999 198.9C71.3999 198.5 71.4999 196.4 71.4999 196.1C72.0999 192.8 74.5999 194 79.2999 191.3L253.2 90.8Z" fill="url(#paint3_linear_41_3938)"/>
<path d="M253.2 90.4999C262.8 84.8999 277.4 84.2999 285.7 89.1999L359.6 131.9C363.1 133.9 364.6 131.2 365.1 133.9C365.2 134.4 365.3 137.4 365.2 137.8C364.9 141.3 362.2 144.9 357.3 147.8L183.5 248.2C173.9 253.8 159.3 254.4 151 249.5L77 206.8C73.2 204.6 71.3 201.7 71.4 198.7C71.4 198.3 71.5 196.3 71.6 195.9C72.2 192.6 74.7 193.7 79.4 190.9L253.2 90.4999Z" fill="url(#paint4_linear_41_3938)"/>
<path d="M253.2 90.2C262.8 84.6 277.4 84 285.7 88.9L359.6 131.6C363 133.6 364.5 131.1 365 133.8C365.1 134.3 365.2 137.2 365.2 137.7C364.9 141.2 362.2 144.8 357.3 147.7L183.5 248C173.9 253.6 159.3 254.2 151 249.3L77 206.7C73.2 204.5 71.3 201.6 71.4 198.5C71.4 198.1 71.5 196.1 71.6 195.7C72.3 192.5 74.7 193.3 79.4 190.6L253.2 90.2Z" fill="url(#paint5_linear_41_3938)"/>
<path d="M253.2 89.9C262.8 84.3 277.4 83.7 285.7 88.6L359.6 131.3C362.9 133.2 364.4 131 365 133.6C365.1 134.2 365.3 136.9 365.2 137.5C364.9 141 362.2 144.7 357.3 147.5L183.5 247.9C173.9 253.5 159.3 254.1 151 249.2L77 206.6C73.2 204.4 71.3 201.5 71.4 198.4C71.4 197.9 71.5 196 71.6 195.6C72.3 192.4 74.7 193 79.3 190.4L253.2 89.9Z" fill="url(#paint6_linear_41_3938)"/>
<path d="M253.2 89.5999C262.8 83.9999 277.4 83.3999 285.7 88.2999L359.6 131C362.9 132.9 364.4 131 365 133.5C365.1 134.1 365.3 136.8 365.2 137.4C365 140.9 362.2 144.6 357.3 147.4L183.5 247.7C173.9 253.3 159.3 253.9 151 249L77 206.4C73.2 204.2 71.3 201.2 71.4 198.2C71.4 197.7 71.5 195.9 71.7 195.4C72.5 192.3 74.9 192.7 79.4 190L253.2 89.5999Z" fill="url(#paint7_linear_41_3938)"/>
<path d="M253.2 89.3C262.8 83.7 277.4 83.1 285.7 88L359.6 130.7C362.8 132.5 364.3 130.9 364.9 133.4C365.1 134.1 365.2 136.6 365.2 137.3C365 140.8 362.3 144.5 357.3 147.4L183.5 247.6C173.9 253.2 159.3 253.8 151 248.9L77 206.3C73.2 204.1 71.3 201.1 71.4 198C71.4 197.5 71.6 195.7 71.7 195.1C72.5 192 74.9 192.2 79.4 189.6L253.2 89.3Z" fill="url(#paint8_linear_41_3938)"/>
<path d="M253.2 88.9999C262.8 83.3999 277.4 82.7999 285.7 87.6999L359.6 130.4C362.7 132.2 364.2 130.8 364.9 133.2C365.1 133.9 365.3 136.4 365.2 137.1C365 140.6 362.3 144.3 357.3 147.2L183.5 247.5C173.9 253.1 159.3 253.7 151 248.8L77 206.2C73.2 204 71.3 201 71.4 197.9C71.4 197.3 71.6 195.6 71.7 195C72.5 191.9 74.9 191.9 79.3 189.4L253.2 88.9999Z" fill="url(#paint9_linear_41_3938)"/>
<path d="M253.2 88.7C262.8 83.1 277.4 82.5 285.7 87.4L359.6 130.1C362.7 131.9 364.2 130.7 364.8 133.1C365 133.8 365.2 136.2 365.2 137C365 140.5 362.3 144.2 357.3 147.1L183.5 247.3C173.9 252.9 159.3 253.5 151 248.6L77 206C73.2 203.8 71.3 200.8 71.4 197.7C71.4 197.1 71.6 195.5 71.8 194.8C72.7 191.8 75.1 191.5 79.4 189L253.2 88.7Z" fill="url(#paint10_linear_41_3938)"/>
<path d="M253.2 88.4C262.8 82.8 277.4 82.2 285.7 87.1L359.6 129.8C362.6 131.5 364.1 130.6 364.8 132.9C365 133.7 365.3 136 365.2 136.8C365 140.3 362.3 144 357.3 146.9L183.5 247.2C173.9 252.8 159.3 253.4 151 248.5L76.9999 205.9C73.0999 203.7 71.2999 200.7 71.3999 197.5C71.3999 196.9 71.5999 195.3 71.7999 194.6C72.6999 191.6 75.0999 191.2 79.3999 188.7L253.2 88.4Z" fill="url(#paint11_linear_41_3938)"/>
<path d="M253.2 88.0999C262.8 82.4999 277.4 81.8999 285.7 86.7999L359.6 129.5C362.5 131.2 364 130.6 364.8 132.8C365.1 133.6 365.3 135.8 365.2 136.7C365 140.2 362.3 143.9 357.3 146.8L183.5 247.1C173.9 252.7 159.3 253.3 151 248.4L76.9999 205.7C73.0999 203.5 71.1999 200.4 71.3999 197.3C71.3999 196.6 71.5999 195.1 71.7999 194.4C72.6999 191.5 75.0999 190.8 79.2999 188.4L253.2 88.0999Z" fill="url(#paint12_linear_41_3938)"/>
<path d="M253.2 87.8C262.8 82.2 277.4 81.6 285.7 86.5L359.6 129.2C362.5 130.9 364 130.5 364.7 132.7C365 133.6 365.2 135.7 365.2 136.6C365 140.1 362.3 143.8 357.3 146.7L183.5 246.9C173.9 252.5 159.3 253.1 151 248.2L76.9999 205.6C73.0999 203.4 71.1999 200.3 71.3999 197.2C71.3999 196.5 71.5999 195 71.8999 194.3C72.8999 191.4 75.1999 190.5 79.3999 188.1L253.2 87.8Z" fill="url(#paint13_linear_41_3938)"/>
<path d="M253.2 87.4999C262.8 81.8999 277.4 81.2999 285.7 86.1999L359.6 128.9C362.4 130.5 363.9 130.4 364.7 132.5C365 133.4 365.3 135.4 365.2 136.4C365 139.9 362.3 143.6 357.3 146.5L183.5 246.8C173.9 252.4 159.3 253 151 248.1L76.9999 205.5C73.0999 203.2 71.1999 200.2 71.3999 197C71.3999 196.3 71.5999 194.9 71.8999 194.1C72.8999 191.3 75.2999 190.2 79.3999 187.8L253.2 87.4999Z" fill="url(#paint14_linear_41_3938)"/>
<path d="M253.2 87.2C262.8 81.6 277.4 81 285.7 85.9L359.6 128.6C362.3 130.2 363.9 130.3 364.6 132.4C365 133.4 365.2 135.3 365.2 136.3C365 139.8 362.3 143.5 357.3 146.4L183.5 246.7C173.9 252.3 159.3 252.9 151 248L76.9999 205.3C73.0999 203 71.1999 200 71.3999 196.8C71.3999 196 71.6999 194.7 71.8999 193.9C72.8999 191.1 75.2999 189.8 79.2999 187.5L253.2 87.2Z" fill="url(#paint15_linear_41_3938)"/>
<path d="M253.2 86.9C262.8 81.3 277.4 80.7 285.7 85.6L359.6 128.3C362.3 129.8 363.8 130.2 364.6 132.2C365 133.2 365.3 135 365.2 136.1C365 139.6 362.3 143.3 357.3 146.2L183.5 246.5C173.9 252.1 159.3 252.7 151 247.8L76.9999 205.2C73.0999 202.9 71.1999 199.9 71.3999 196.7C71.3999 195.9 71.6999 194.6 71.9999 193.8C72.9999 191 75.3999 189.5 79.3999 187.2L253.2 86.9Z" fill="url(#paint16_linear_41_3938)"/>
<path d="M253.2 86.5999C262.8 80.9999 277.4 80.3999 285.7 85.2999L359.6 128C362.2 129.5 363.8 130.1 364.6 132.1C365 133.2 365.3 134.8 365.2 136C365 139.5 362.3 143.2 357.3 146.1L183.5 246.4C173.9 252 159.3 252.6 151 247.7L76.9999 205.1C73.0999 202.8 71.1999 199.8 71.3999 196.6C71.3999 195.8 71.6999 194.6 71.9999 193.7C73.0999 191 75.3999 189.3 79.3999 187L253.2 86.5999Z" fill="url(#paint17_linear_41_3938)"/>
<path d="M253.2 86.3C262.8 80.7 277.4 80.1 285.7 85L359.6 127.7C362.1 129.2 363.7 130.1 364.5 132C365 133.1 365.3 134.7 365.2 135.9C365 139.4 362.3 143.1 357.3 146.1L183.5 246.3C173.9 251.9 159.3 252.5 151 247.6L76.9999 204.9C73.0999 202.6 71.1999 199.5 71.3999 196.3C71.4999 195.4 71.6999 194.3 71.9999 193.4C73.0999 190.7 75.4999 188.8 79.2999 186.6L253.2 86.3Z" fill="url(#paint18_linear_41_3938)"/>
<path d="M253.2 85.9999C262.8 80.3999 277.4 79.7999 285.7 84.6999L359.6 127.4C362.1 128.8 363.6 130 364.5 131.8C365 133 365.3 134.4 365.2 135.7C365 139.3 362.3 143 357.3 145.9L183.5 246.1C173.9 251.7 159.3 252.3 151 247.4L77 204.8C73 202.5 71.2 199.4 71.4 196.2C71.5 195.3 71.7 194.2 72.1 193.3C73.2 190.6 75.6 188.5 79.4 186.3L253.2 85.9999Z" fill="url(#paint19_linear_41_3938)"/>
<path d="M253.2 85.7C262.8 80.1 277.4 79.5 285.7 84.4L359.6 127.1C362 128.5 363.6 129.9 364.5 131.7C365.1 132.9 365.3 134.3 365.3 135.5C365.1 139.1 362.4 142.8 357.3 145.7L183.5 246C173.9 251.6 159.3 252.2 151 247.3L77 204.7C73 202.4 71.2 199.3 71.4 196.1C71.5 195.2 71.7 194.1 72.1 193.2C73.2 190.6 75.6 188.3 79.4 186.1L253.2 85.7Z" fill="url(#paint20_linear_41_3938)"/>
<path d="M151 247.2L77 204.5C68.7 199.7 69.7 191.3 79.3 185.7L253.2 85.4C262.8 79.8 277.4 79.2 285.7 84.1L359.6 126.8C367.9 131.6 366.9 140 357.3 145.6L183.5 245.9C173.9 251.4 159.3 252 151 247.2Z" fill="url(#paint21_linear_41_3938)"/>
<path d="M151 247.3L76.9999 204.6C73.2999 202.4 71.3999 199.6 71.3999 196.6V190.3C71.6999 186.8 74.3999 188.7 79.2999 185.9L253.2 85.5001C262.8 79.9001 277.4 79.3001 285.7 84.2001L359.6 126.9C363.3 129 365.2 125.3 365.2 128.3V135.7C364.9 139.2 362.2 142.8 357.3 145.7L183.5 245.9C173.9 251.5 159.3 252.1 151 247.3Z" fill="url(#paint22_linear_41_3938)"/>
<path d="M253.2 85.2C262.8 79.6 277.4 79 285.7 83.9L359.6 126.6C363.2 128.7 364.9 125.2 365.2 128.1C365.2 128.4 365.3 135.1 365.2 135.5C364.8 139 362.2 142.6 357.3 145.4L183.5 245.6C173.9 251.2 159.3 251.8 151 246.9L76.9999 204.3C73.2999 202.2 71.4999 199.3 71.3999 196.3C71.3999 196 71.3999 190.4 71.4999 190C71.9999 186.6 74.4999 188.3 79.3999 185.5L253.2 85.2Z" fill="url(#paint23_linear_41_3938)"/>
<path d="M253.2 84.9C262.8 79.3 277.4 78.7 285.7 83.6L359.6 126.3C363.2 128.4 364.6 125.1 365.1 127.9C365.2 128.3 365.2 134.8 365.2 135.2C364.7 138.6 362.2 142.2 357.3 145L183.5 245.3C173.9 250.9 159.3 251.5 151 246.6L76.9999 204C73.2999 201.9 71.4999 199 71.3999 196C71.3999 195.6 71.4999 190.2 71.5999 189.7C72.2999 186.4 74.5999 187.9 79.3999 185.1L253.2 84.9Z" fill="url(#paint24_linear_41_3938)"/>
<path d="M253.2 84.6C262.8 79 277.4 78.4 285.7 83.3L359.6 126C363.1 128 364.5 125 365.1 127.8C365.2 128.3 365.3 134.5 365.2 135.1C364.7 138.5 362.2 142.1 357.3 144.9L183.5 245C173.9 250.6 159.3 251.2 151 246.3L76.9999 203.7C73.2999 201.6 71.4999 198.8 71.3999 195.8C71.3999 195.3 71.4999 190.1 71.5999 189.6C72.3999 186.4 74.6999 187.7 79.2999 185L253.2 84.6Z" fill="url(#paint25_linear_41_3938)"/>
<path d="M253.2 84.3C262.8 78.7 277.4 78.1 285.7 83L359.6 125.7C363 127.7 364.4 124.9 365 127.6C365.1 128.2 365.3 134.2 365.2 134.8C364.6 138.2 362.1 141.7 357.3 144.5L183.5 244.7C173.9 250.3 159.3 250.9 151 246L76.9999 203.4C73.2999 201.3 71.5999 198.5 71.3999 195.5C71.3999 194.9 71.4999 189.9 71.6999 189.3C72.5999 186.1 74.7999 187.2 79.3999 184.6L253.2 84.3Z" fill="url(#paint26_linear_41_3938)"/>
<path d="M253.2 84.0001C262.8 78.4001 277.4 77.8001 285.7 82.7001L359.6 125.4C362.9 127.3 364.3 124.8 364.9 127.4C365.1 128.1 365.2 133.8 365.1 134.6C364.5 138 362 141.5 357.2 144.2L183.5 244.4C173.9 250 159.3 250.6 151 245.7L76.9999 203.1C73.3999 201 71.5999 198.2 71.3999 195.3C71.3999 194.7 71.4999 189.8 71.6999 189.2C72.5999 186.1 74.7999 187 79.2999 184.4L253.2 84.0001Z" fill="url(#paint27_linear_41_3938)"/>
<path d="M253.2 83.7C262.8 78.1 277.4 77.5 285.7 82.4L359.6 125.1C362.8 127 364.2 124.7 364.9 127.2C365.1 128 365.3 133.5 365.2 134.3C364.6 137.6 362.1 141.1 357.3 143.8L183.5 244.1C173.9 249.7 159.3 250.3 151 245.4L77 202.8C73.4 200.7 71.6 197.9 71.4 195C71.3 194.3 71.6 189.6 71.8 188.9C72.8 185.9 74.9 186.6 79.3 184L253.2 83.7Z" fill="url(#paint28_linear_41_3938)"/>
<path d="M253.2 83.4C262.8 77.8 277.4 77.2 285.7 82.1L359.6 124.8C362.7 126.6 364.1 124.6 364.8 127C365.1 127.9 365.3 133.1 365.1 134.1C364.5 137.4 362 140.9 357.3 143.6L183.5 243.8C173.9 249.4 159.3 250 151 245.1L77 202.5C73.4 200.4 71.6 197.6 71.4 194.7C71.3 193.9 71.6 189.5 71.9 188.6C72.9 185.7 75.1 186.1 79.4 183.7L253.2 83.4Z" fill="url(#paint29_linear_41_3938)"/>
<path d="M253.2 83.1C262.8 77.5 277.4 76.9 285.7 81.8L359.6 124.5C362.7 126.3 364 124.5 364.8 126.9C365.1 127.9 365.3 132.9 365.1 133.9C364.5 137.2 362 140.6 357.3 143.3L183.5 243.5C173.9 249.1 159.3 249.7 151 244.8L77 202.2C73.4 200.1 71.6 197.4 71.4 194.5C71.3 193.6 71.6 189.4 71.9 188.5C72.9 185.6 75.1 185.9 79.3 183.5L253.2 83.1Z" fill="url(#paint30_linear_41_3938)"/>
<path d="M253.2 82.8C262.8 77.2 277.4 76.6 285.7 81.5L359.6 124.2C362.6 125.9 363.9 124.4 364.7 126.7C365.1 127.8 365.3 132.6 365.1 133.6C364.4 136.9 361.9 140.3 357.3 142.9L183.5 243.2C173.9 248.8 159.3 249.4 151 244.5L77 201.9C73.4 199.8 71.6 197.1 71.4 194.2C71.3 193.3 71.6 189.2 72 188.2C73.1 185.4 75.2 185.5 79.4 183.1L253.2 82.8Z" fill="url(#paint31_linear_41_3938)"/>
<path d="M253.2 82.5001C262.8 76.9001 277.4 76.3001 285.7 81.2001L359.6 123.9C362.5 125.6 363.8 124.3 364.6 126.5C365 127.6 365.3 132.2 365 133.4C364.3 136.6 361.8 140 357.2 142.7L183.5 242.9C173.9 248.5 159.3 249.1 151 244.2L77 201.6C73.4 199.5 71.7 196.8 71.4 194C71.3 193 71.6 189.1 72 188C73.1 185.3 75.2 185.2 79.3 182.8L253.2 82.5001Z" fill="url(#paint32_linear_41_3938)"/>
<path d="M253.2 82.2C262.8 76.6 277.4 76 285.7 80.9L359.6 123.6C362.4 125.2 363.8 124.2 364.6 126.3C365.1 127.5 365.4 131.9 365.1 133.1C364.4 136.3 361.9 139.6 357.3 142.3L183.5 242.6C173.9 248.2 159.3 248.8 151 243.9L77 201.3C73.4 199.3 71.7 196.5 71.4 193.7C71.3 192.6 71.6 188.9 72.1 187.8C73.2 185.1 75.4 184.8 79.3 182.6L253.2 82.2Z" fill="url(#paint33_linear_41_3938)"/>
<path d="M253.2 81.9C262.8 76.3 277.4 75.7 285.7 80.6L359.6 123.3C362.3 124.9 363.7 124.1 364.5 126.2C365 127.5 365.3 131.6 365 133C364.3 136.2 361.8 139.5 357.2 142.1L183.5 242.3C173.9 247.9 159.3 248.5 151 243.6L76.9999 201C73.4999 199 71.6999 196.3 71.3999 193.4C71.2999 192.2 71.5999 188.7 72.1999 187.5C73.2999 184.9 75.4999 184.4 79.3999 182.2L253.2 81.9Z" fill="url(#paint34_linear_41_3938)"/>
<path d="M253.2 81.6C262.8 76 277.4 75.4 285.7 80.3L359.6 123C362.3 124.5 363.6 124 364.5 126C365.1 127.4 365.4 131.3 365.1 132.7C364.4 135.9 361.9 139.1 357.3 141.8L183.5 242C173.9 247.6 159.3 248.2 151 243.3L76.9999 200.7C73.4999 198.7 71.6999 196 71.3999 193.2C71.2999 192 71.6999 188.6 72.1999 187.4C73.3999 184.8 75.4999 184.2 79.2999 182L253.2 81.6Z" fill="url(#paint35_linear_41_3938)"/>
<path d="M253.2 81.3C262.8 75.7 277.4 75.1 285.7 80L359.6 122.7C362.2 124.2 363.5 123.9 364.4 125.8C365.1 127.3 365.4 130.9 365 132.5C364.3 135.7 361.7 138.9 357.2 141.5L183.5 241.7C173.9 247.3 159.3 247.9 151 243L77 200.4C73.5 198.4 71.7 195.7 71.4 192.9C71.3 191.6 71.7 188.5 72.3 187.1C73.5 184.6 75.6 183.8 79.3 181.6L253.2 81.3Z" fill="url(#paint36_linear_41_3938)"/>
<path d="M253.2 81.0001C262.8 75.4001 277.4 74.8001 285.7 79.7001L359.6 122.4C362.1 123.8 363.5 123.8 364.3 125.6C365 127.2 365.4 130.6 365 132.2C364.2 135.3 361.7 138.5 357.3 141.1L183.5 241.4C173.9 247 159.3 247.6 151 242.7L77 200.1C73.5 198.1 71.7 195.4 71.4 192.6C71.3 191.2 71.7 188.3 72.4 186.8C73.6 184.3 75.8 183.3 79.4 181.2L253.2 81.0001Z" fill="url(#paint37_linear_41_3938)"/>
<path d="M253.2 80.7C262.8 75.1 277.4 74.5 285.7 79.4L359.6 122.1C362 123.5 363.4 123.7 364.3 125.5C365.1 127.1 365.4 130.3 365 132.1C364.2 135.2 361.7 138.4 357.3 141L183.5 241.1C173.9 246.7 159.3 247.3 151 242.4L76.9999 199.8C73.4999 197.8 71.6999 195.2 71.3999 192.4C71.1999 190.9 71.6999 188.2 72.3999 186.7C73.5999 184.3 75.7999 183.1 79.2999 181.1L253.2 80.7Z" fill="url(#paint38_linear_41_3938)"/>
<path d="M253.2 80.4C262.8 74.8 277.4 74.2 285.7 79.1L359.6 121.8C361.9 123.1 363.3 123.6 364.2 125.3C365.1 127 365.4 130 365 131.8C364.2 134.9 361.7 138 357.3 140.6L183.5 240.8C173.9 246.4 159.3 247 151 242.1L76.9999 199.5C73.4999 197.5 71.6999 194.9 71.3999 192.1C71.1999 190.6 71.6999 188 72.4999 186.4C73.6999 184.1 75.8999 182.7 79.2999 180.7L253.2 80.4Z" fill="url(#paint39_linear_41_3938)"/>
<path d="M253.2 80.1C262.8 74.5 277.4 73.9 285.7 78.8L359.6 121.5C361.8 122.8 363.3 123.5 364.2 125.1C365.2 126.9 365.5 129.6 365 131.5C364.2 134.6 361.7 137.7 357.3 140.2L183.5 240.5C173.9 246.1 159.3 246.7 151 241.8L77 199.2C73.6 197.2 71.7 194.6 71.4 191.9C71.2 190.3 71.6 187.9 72.5 186.2C73.7 183.9 75.9 182.4 79.3 180.4L253.2 80.1Z" fill="url(#paint40_linear_41_3938)"/>
<path d="M253.2 79.8C262.8 74.2 277.4 73.6 285.7 78.5L359.6 121.2C361.8 122.5 363.2 123.4 364.1 124.9C365.1 126.7 365.5 129.3 365 131.3C364.2 134.4 361.6 137.4 357.3 139.9L183.5 240.2C173.9 245.8 159.3 246.4 151 241.5L77 198.9C73.6 196.9 71.8 194.3 71.4 191.6C71.2 189.9 71.6 187.7 72.6 186C73.9 183.8 76.1 182 79.3 180.1L253.2 79.8Z" fill="url(#paint41_linear_41_3938)"/>
<path d="M253.2 79.5001C262.8 73.9001 277.4 73.3001 285.7 78.2001L359.6 120.9C361.7 122.1 363.1 123.2 364.1 124.8C365.2 126.7 365.6 129.1 365 131.1C364.2 134.1 361.6 137.2 357.3 139.7L183.5 239.9C173.9 245.5 159.3 246.1 151 241.2L77 198.6C73.6 196.6 71.8 194.1 71.4 191.3C71.2 189.6 71.6 187.5 72.7 185.7C74 183.5 76.2 181.6 79.3 179.8L253.2 79.5001Z" fill="url(#paint42_linear_41_3938)"/>
<path d="M151 241L77 198.3C68.7 193.5 69.7 185.1 79.3 179.5L253.2 79.2C262.8 73.6 277.4 73 285.7 77.9L359.6 120.6C367.9 125.4 366.9 133.8 357.3 139.4L183.5 239.6C173.9 245.2 159.3 245.8 151 241Z" fill="#CBA6E3"/>
<path d="M151 241L77 198.3C68.7 193.5 69.7 185.1 79.3 179.5L253.2 79.2C262.8 73.6 277.4 73 285.7 77.9L359.6 120.6C367.9 125.4 366.9 133.8 357.3 139.4L183.5 239.6C173.9 245.2 159.3 245.8 151 241Z" fill="#CBA6E3"/>
<path d="M79.3999 179.5L253.2 79.2C262.8 73.7 277.3 73.1 285.6 77.9L359.5 120.6C367.8 125.4 366.8 133.8 357.2 139.3L183.4 239.6C173.8 245.1 159.3 245.7 151 240.9L77.0999 198.2C68.7999 193.4 69.7999 185.1 79.3999 179.5Z" fill="#CCA7E3"/>
<path d="M79.4999 179.5L253.2 79.2C262.8 73.7 277.3 73.1 285.6 77.9L359.5 120.5C367.8 125.3 366.8 133.7 357.2 139.2L183.4 239.5C173.8 245 159.3 245.6 151 240.8L77.0999 198.2C68.8999 193.4 69.8999 185 79.4999 179.5Z" fill="#CCA8E4"/>
<path d="M79.6 179.5L253.2 79.2999C262.8 73.7999 277.2 73.1999 285.5 77.9999L359.3 120.6C367.6 125.4 366.5 133.7 357 139.2L183.4 239.5C173.8 245 159.4 245.6 151.1 240.8L77.3 198.2C69 193.4 70 185 79.6 179.5Z" fill="#CDA9E4"/>
<path d="M79.6 179.5L253.2 79.2999C262.7 73.7999 277.2 73.1999 285.4 77.9999L359.2 120.6C367.5 125.4 366.4 133.7 356.9 139.2L183.3 239.4C173.8 244.9 159.3 245.5 151.1 240.7L77.3 198.1C69.1 193.4 70.1 185 79.6 179.5Z" fill="#CDAAE4"/>
<path d="M79.7 179.5L253.3 79.2999C262.8 73.7999 277.2 73.1999 285.4 77.9999L359.2 120.6C367.4 125.4 366.4 133.7 356.9 139.2L183.3 239.3C173.8 244.8 159.4 245.4 151.2 240.6L77.4 198C69.1 193.3 70.2 185 79.7 179.5Z" fill="#CEABE4"/>
<path d="M79.8 179.5L253.3 79.4C262.8 73.9 277.1 73.3 285.4 78.1L359.1 120.7C367.3 125.4 366.3 133.7 356.8 139.2L183.3 239.3C173.8 244.8 159.5 245.4 151.2 240.6L77.5 198C69.2 193.3 70.3 185 79.8 179.5Z" fill="#CEACE5"/>
<path d="M79.8 179.5L253.3 79.4C262.8 73.9 277.1 73.3 285.3 78.1L359 120.7C367.2 125.4 366.2 133.7 356.7 139.2L183.2 239.2C173.7 244.7 159.4 245.3 151.2 240.5L77.5 198C69.3 193.3 70.4 185 79.8 179.5Z" fill="#CFADE5"/>
<path d="M79.8999 179.6L253.3 79.4C262.7 73.9 277 73.4 285.2 78.1L358.9 120.6C367.1 125.3 366.1 133.6 356.6 139L183.2 239.2C173.8 244.7 159.5 245.2 151.3 240.5L77.5999 198C69.3999 193.3 70.3999 185 79.8999 179.6Z" fill="#CFAEE5"/>
<path d="M79.8999 179.6L253.3 79.5C262.7 74.1 277 73.5 285.1 78.2L358.8 120.7C367 125.4 365.9 133.6 356.5 139.1L183.1 239.1C173.7 244.5 159.4 245.1 151.3 240.4L77.5999 197.9C69.4999 193.2 70.4999 185 79.8999 179.6Z" fill="#D0AFE6"/>
<path d="M80 179.6L253.3 79.5C262.7 74.1 276.9 73.5 285 78.2L358.6 120.7C366.7 125.4 365.7 133.6 356.3 139L183.1 239.1C173.7 244.5 159.5 245.1 151.4 240.4L77.8 197.9C69.6 193.2 70.6 185 80 179.6Z" fill="#D1B0E6"/>
<path d="M80.1 179.6L253.4 79.6C262.8 74.2 276.9 73.6 285.1 78.3L358.7 120.8C366.8 125.5 365.8 133.7 356.4 139.1L183.1 239C173.7 244.4 159.6 245 151.4 240.3L77.8 197.8C69.7 193.2 70.7 185 80.1 179.6Z" fill="#D1B1E6"/>
<path d="M80.1 179.6L253.3 79.6C262.6 74.2 276.8 73.6 284.9 78.3L358.5 120.8C366.6 125.5 365.6 133.6 356.2 139L183 239C173.7 244.4 159.5 245 151.4 240.3L77.8 197.8C69.8 193.1 70.8 185 80.1 179.6Z" fill="#D2B2E6"/>
<path d="M80.2 179.6L253.4 79.6C262.7 74.2 276.8 73.6 284.9 78.3L358.4 120.8C366.5 125.5 365.5 133.6 356.1 139L183 238.9C173.7 244.3 159.6 244.9 151.5 240.2L78 197.7C69.9 193.1 70.9 185 80.2 179.6Z" fill="#D2B3E7"/>
<path d="M80.2999 179.6L253.5 79.6C262.8 74.2 276.9 73.6 284.9 78.3L358.4 120.7C366.5 125.4 365.4 133.5 356.1 138.8L183 238.9C173.7 244.3 159.6 244.9 151.6 240.2L77.9999 197.7C69.8999 193.1 70.9999 185 80.2999 179.6Z" fill="#D3B4E7"/>
<path d="M80.3 179.6L253.4 79.7C262.7 74.3 276.7 73.8 284.7 78.4L358.2 120.8C366.2 125.4 365.2 133.5 355.9 138.9L182.8 238.8C173.5 244.2 159.5 244.7 151.5 240.1L78 197.7C70 193.1 71 185 80.3 179.6Z" fill="#D3B5E7"/>
<path d="M80.3999 179.6L253.5 79.7C262.8 74.4 276.8 73.8 284.8 78.4L358.3 120.8C366.3 125.4 365.3 133.5 356.1 138.9L183 238.8C173.7 244.1 159.7 244.7 151.7 240.1L78.1999 197.7C70.0999 193 71.0999 184.9 80.3999 179.6Z" fill="#D4B6E7"/>
<path d="M80.3999 179.6L253.4 79.7C262.6 74.4 276.6 73.8 284.6 78.4L358 120.8C366 125.4 365 133.5 355.8 138.8L182.8 238.7C173.6 244 159.6 244.6 151.6 240L78.1999 197.6C70.1999 193 71.1999 184.9 80.3999 179.6Z" fill="#D5B7E8"/>
<path d="M80.5 179.6L253.5 79.7C262.7 74.4 276.6 73.8 284.6 78.4L358 120.8C366 125.4 365 133.4 355.8 138.8L182.8 238.7C173.6 244 159.7 244.6 151.7 240L78.3 197.6C70.3 193 71.3 184.9 80.5 179.6Z" fill="#D5B8E8"/>
<path d="M80.6 179.6L253.5 79.8C262.7 74.5 276.6 73.8999 284.5 78.4999L357.9 120.9C365.9 125.5 364.9 133.5 355.7 138.8L182.8 238.6C173.6 243.9 159.7 244.5 151.8 239.9L78.4 197.5C70.4 192.9 71.4 184.9 80.6 179.6Z" fill="#D6B9E8"/>
<path d="M80.6 179.6L253.5 79.8C262.7 74.5 276.5 73.8999 284.5 78.4999L357.9 120.9C365.8 125.5 364.8 133.5 355.7 138.8L182.8 238.6C173.6 243.9 159.8 244.5 151.8 239.9L78.4 197.5C70.5 192.9 71.5 184.9 80.6 179.6Z" fill="#D6BAE9"/>
<path d="M80.7 179.6L253.5 79.8001C262.6 74.5001 276.5 74.0001 284.4 78.5001L357.7 120.8C365.6 125.4 364.6 133.4 355.5 138.6L182.7 238.4C173.6 243.7 159.7 244.2 151.8 239.7L78.5 197.4C70.6 192.9 71.6 184.9 80.7 179.6Z" fill="#D7BBE9"/>
<path d="M80.8 179.6L253.6 79.8001C262.7 74.5001 276.5 74.0001 284.4 78.5001L357.7 120.8C365.6 125.4 364.6 133.3 355.5 138.6L182.7 238.4C173.6 243.7 159.8 244.2 151.9 239.7L78.6 197.4C70.7 192.9 71.6 184.9 80.8 179.6Z" fill="#D7BCE9"/>
<path d="M80.7999 179.6L253.5 79.9C262.6 74.7 276.3 74.1 284.2 78.6L357.5 120.9C365.4 125.4 364.4 133.4 355.3 138.6L182.6 238.3C173.5 243.5 159.8 244.1 151.9 239.6L78.5999 197.3C70.6999 192.8 71.6999 184.9 80.7999 179.6Z" fill="#D8BDE9"/>
<path d="M80.8999 179.7L253.6 80.0001C262.7 74.8001 276.4 74.2001 284.2 78.7001L357.4 121C365.3 125.5 364.3 133.5 355.2 138.7L182.5 238.4C173.4 243.6 159.7 244.2 151.9 239.7L78.6999 197.4C70.7999 192.8 71.7999 184.9 80.8999 179.7Z" fill="#D8BEEA"/>
<path d="M81 179.7L253.6 80.0001C262.6 74.8001 276.3 74.2001 284.2 78.7001L357.4 121C365.2 125.5 364.3 133.4 355.2 138.6L182.5 238.3C173.5 243.5 159.8 244.1 151.9 239.6L78.7 197.3C70.9 192.8 71.9 184.9 81 179.7Z" fill="#D9BFEA"/>
<path d="M81 179.7L253.6 80.0001C262.6 74.8001 276.3 74.2001 284.1 78.7001L357.3 121C365.1 125.5 364.1 133.4 355.1 138.6L182.5 238.3C173.5 243.5 159.8 244.1 152 239.6L78.8 197.3C71 192.8 72 184.9 81 179.7Z" fill="#DAC0EA"/>
<path d="M81.1 179.7L253.6 80.0001C262.6 74.8001 276.2 74.2001 284 78.7001L357.2 120.9C365 125.4 364 133.3 355 138.5L182.4 238.1C173.4 243.3 159.8 243.9 152 239.4L78.8 197.2C71.1 192.7 72.1 184.9 81.1 179.7Z" fill="#DAC1EB"/>
<path d="M81.1 179.7L253.6 80.1C262.6 74.9 276.2 74.4 283.9 78.8L357 121C364.8 125.5 363.8 133.3 354.8 138.5L182.3 238.1C173.3 243.3 159.7 243.8 152 239.4L79 197.2C71.2 192.7 72.2 184.9 81.1 179.7Z" fill="#DBC2EB"/>
<path d="M81.2 179.7L253.7 80.1C262.7 74.9 276.2 74.4 284 78.8L357.1 121C364.9 125.5 363.9 133.3 354.9 138.5L182.4 238.1C173.4 243.3 159.9 243.8 152.1 239.4L79 197.1C71.3 192.7 72.2 184.9 81.2 179.7Z" fill="#DBC2EB"/>
<path d="M81.3 179.7L253.7 80.2C262.6 75 276.1 74.5 283.9 78.9L357 121.1C364.7 125.6 363.8 133.4 354.8 138.5L182.3 238C173.4 243.2 159.9 243.7 152.1 239.3L79 197.1C71.4 192.6 72.3 184.8 81.3 179.7Z" fill="#DCC3EB"/>
<path d="M81.2999 179.7L253.7 80.2C262.6 75.1 276.1 74.5 283.8 79L356.9 121.2C364.6 125.7 363.6 133.4 354.7 138.6L182.3 238C173.4 243.1 159.9 243.7 152.2 239.2L79.0999 197C71.4999 192.6 72.3999 184.8 81.2999 179.7Z" fill="#DCC4EC"/>
<path d="M81.4 179.7L253.7 80.2C262.6 75.1 276 74.5 283.7 79L356.7 121.2C364.4 125.6 363.4 133.4 354.5 138.5L182.2 238C173.3 243.1 159.9 243.7 152.2 239.2L79.2 197C71.5 192.6 72.5 184.8 81.4 179.7Z" fill="#DDC5EC"/>
<path d="M81.4999 179.7L253.8 80.2C262.7 75.1 276.1 74.5 283.7 79L356.7 121.1C364.4 125.5 363.4 133.3 354.6 138.4L182.3 237.9C173.4 243 160 243.6 152.4 239.1L79.3999 197C71.5999 192.6 72.5999 184.8 81.4999 179.7Z" fill="#DEC6EC"/>
<path d="M81.5 179.7L253.7 80.3001C262.5 75.2001 275.9 74.6001 283.6 79.1001L356.6 121.2C364.3 125.6 363.3 133.3 354.5 138.4L182.3 237.8C173.5 242.9 160.1 243.5 152.4 239L79.4 196.9C71.7 192.5 72.7 184.8 81.5 179.7Z" fill="#DEC7ED"/>
<path d="M81.6 179.7L253.8 80.3C262.6 75.2 275.9 74.7 283.6 79.1L356.5 121.2C364.1 125.6 363.2 133.3 354.4 138.4L182.2 237.8C173.4 242.9 160.1 243.4 152.4 239L79.5 196.9C71.8 192.5 72.8 184.8 81.6 179.7Z" fill="#DFC8ED"/>
<path d="M81.6 179.7L253.8 80.3C262.6 75.2 275.9 74.7 283.5 79.1L356.4 121.2C364 125.6 363.1 133.3 354.3 138.3L182.1 237.7C173.3 242.8 160 243.3 152.4 238.9L79.5 196.8C71.9 192.5 72.9 184.8 81.6 179.7Z" fill="#DFC9ED"/>
<path d="M81.7 179.7L253.8 80.3C262.6 75.2 275.8 74.7 283.4 79.1L356.3 121.2C363.9 125.6 362.9 133.2 354.2 138.3L182.1 237.7C173.3 242.8 160.1 243.3 152.5 238.9L79.6 196.8C72 192.4 72.9 184.8 81.7 179.7Z" fill="#E0CAED"/>
<path d="M81.7999 179.7L253.9 80.4C262.6 75.4 275.9 74.8 283.4 79.2L356.3 121.3C363.9 125.7 362.9 133.3 354.2 138.4L182 237.6C173.3 242.6 160 243.2 152.5 238.8L79.5999 196.7C72.0999 192.4 72.9999 184.8 81.7999 179.7Z" fill="#E0CBEE"/>
<path d="M81.8 179.7L253.8 80.4C262.5 75.4 275.7 74.8 283.3 79.2L356.1 121.2C363.7 125.6 362.7 133.2 354 138.2L182 237.5C173.3 242.5 160.1 243.1 152.5 238.7L79.6999 196.7C72.1999 192.4 73.1 184.8 81.8 179.7Z" fill="#E1CCEE"/>
<path d="M81.8999 179.7L253.9 80.4C262.6 75.4 275.8 74.8 283.3 79.2L356.1 121.2C363.6 125.5 362.7 133.1 354 138.2L182 237.5C173.3 242.5 160.1 243.1 152.6 238.7L79.7999 196.7C72.2999 192.4 73.1999 184.8 81.8999 179.7Z" fill="#E1CDEE"/>
<path d="M81.9999 179.8L253.9 80.5C262.6 75.5 275.7 74.9 283.2 79.3L356 121.3C363.5 125.6 362.6 133.2 353.9 138.2L182 237.5C173.3 242.5 160.2 243.1 152.7 238.7L79.8999 196.7C72.2999 192.3 73.2999 184.8 81.9999 179.8Z" fill="#E2CEEF"/>
<path d="M81.9999 179.8L253.9 80.6C262.6 75.6 275.6 75.1 283.1 79.4L355.8 121.4C363.3 125.7 362.4 133.3 353.7 138.3L181.8 237.5C173.1 242.5 160.1 243 152.6 238.7L79.8999 196.7C72.3999 192.3 73.3999 184.8 81.9999 179.8Z" fill="#E3CFEF"/>
<path d="M82.0999 179.8L253.9 80.6C262.5 75.6 275.6 75.1 283.1 79.4L355.8 121.4C363.3 125.7 362.3 133.2 353.7 138.2L181.9 237.4C173.3 242.4 160.2 242.9 152.7 238.6L79.9999 196.6C72.4999 192.3 73.4999 184.7 82.0999 179.8Z" fill="#E3D0EF"/>
<path d="M82.1 179.8L253.9 80.6C262.5 75.6 275.5 75.1 283 79.4L355.7 121.4C363.2 125.7 362.2 133.2 353.6 138.2L181.8 237.4C173.2 242.4 160.2 242.9 152.7 238.6L80 196.6C72.6 192.3 73.5 184.7 82.1 179.8Z" fill="#E4D1EF"/>
<path d="M82.1999 179.8L254 80.6C262.6 75.6 275.6 75.1 283 79.4L355.7 121.4C363.1 125.7 362.2 133.2 353.6 138.1L181.9 237.3C173.3 242.3 160.3 242.8 152.9 238.5L80.1999 196.5C72.6999 192.2 73.5999 184.7 82.1999 179.8Z" fill="#E4D2F0"/>
<path d="M82.2999 179.8L254 80.7C262.6 75.8 275.5 75.2 282.9 79.5L355.5 121.4C362.9 125.7 362 133.2 353.4 138.1L181.7 237.2C173.1 242.1 160.2 242.7 152.8 238.4L80.1999 196.5C72.7999 192.2 73.6999 184.7 82.2999 179.8Z" fill="#E5D3F0"/>
<path d="M82.2999 179.8L254 80.7C262.5 75.8 275.4 75.2 282.8 79.5L355.4 121.4C362.8 125.7 361.9 133.1 353.3 138L181.6 237.1C173.1 242 160.2 242.6 152.8 238.3L80.1999 196.4C72.8999 192.2 73.7999 184.7 82.2999 179.8Z" fill="#E5D4F0"/>
<path d="M82.3999 179.8L254 80.7C262.5 75.8 275.4 75.3 282.8 79.5L355.4 121.4C362.8 125.7 361.8 133.1 353.3 138L181.7 237.1C173.2 242 160.3 242.5 152.9 238.3L80.2999 196.4C72.9999 192.1 73.8999 184.7 82.3999 179.8Z" fill="#E6D5F0"/>
<path d="M82.5 179.8L254.1 80.8001C262.6 75.9001 275.4 75.4001 282.8 79.6001L355.4 121.5C362.8 125.7 361.8 133.2 353.3 138.1L181.7 237.1C173.2 242 160.4 242.5 153 238.3L80.4 196.4C73.1 192.1 74 184.7 82.5 179.8Z" fill="#E7D6F1"/>
<path d="M82.4999 179.8L254 80.8001C262.5 75.9001 275.3 75.4001 282.6 79.6001L355.1 121.5C362.4 125.7 361.5 133.1 353 138L181.5 237C173 241.9 160.2 242.4 152.9 238.2L80.3999 196.3C73.0999 192.1 74.0999 184.7 82.4999 179.8Z" fill="#E7D7F1"/>
<path d="M82.5999 179.8L254.1 80.8001C262.5 75.9001 275.3 75.4001 282.6 79.6001L355.1 121.5C362.4 125.7 361.5 133.1 353.1 138L181.6 237C173.2 241.9 160.4 242.4 153.1 238.2L80.5999 196.3C73.1999 192.1 74.0999 184.7 82.5999 179.8Z" fill="#E8D8F1"/>
<path d="M82.6 179.8L254 80.8001C262.4 75.9001 275.2 75.4001 282.4 79.6001L354.9 121.4C362.2 125.6 361.3 133 352.9 137.8L181.5 236.8C173.1 241.7 160.3 242.2 153.1 238L80.6 196.2C73.3 192 74.2 184.7 82.6 179.8Z" fill="#E8D9F2"/>
<path d="M82.7 179.8L254.1 80.9C262.5 76.1 275.2 75.5 282.5 79.7L354.9 121.5C362.2 125.7 361.3 133 352.9 137.9L181.5 236.8C173.1 241.6 160.4 242.2 153.1 238L80.7 196.2C73.4 192 74.3 184.7 82.7 179.8Z" fill="#E9DAF2"/>
<path d="M82.8 179.8L254.1 80.9C262.5 76.1 275.1 75.5 282.4 79.7L354.8 121.5C362.1 125.7 361.1 133 352.8 137.8L181.5 236.7C173.1 241.5 160.5 242.1 153.2 237.9L80.8 196.1C73.5 192 74.4 184.7 82.8 179.8Z" fill="#E9DBF2"/>
<path d="M82.7999 179.8L254.1 80.9C262.4 76.1 275.1 75.6 282.3 79.7L354.7 121.5C361.9 125.7 361 133 352.7 137.8L181.4 236.7C173.1 241.5 160.4 242 153.2 237.9L80.7999 196.1C73.5999 192 74.4999 184.7 82.7999 179.8Z" fill="#EADCF2"/>
<path d="M82.8999 179.8L254.1 81C262.4 76.2 275 75.7 282.2 79.8L354.6 121.6C361.8 125.8 360.9 133 352.6 137.8L181.4 236.7C173.1 241.5 160.5 242 153.3 237.9L80.8999 196.1C73.6999 191.9 74.5999 184.7 82.8999 179.8Z" fill="#EADDF3"/>
<path d="M83 179.9L254.2 81C262.5 76.2 275.1 75.7 282.3 79.8L354.6 121.6C361.8 125.8 360.9 133 352.6 137.8L181.4 236.6C173.1 241.4 160.5 241.9 153.3 237.8L81 196C73.8 191.9 74.7 184.6 83 179.9Z" fill="#EBDEF3"/>
<path d="M307 175.1L315.8 170C316.9 169.4 317.8 167.7 317.8 166.2C317.8 164.7 316.9 164.1 315.8 164.7L307 169.8C305.9 170.4 305 172.1 305 173.6C305 175 305.9 175.7 307 175.1Z" fill="url(#paint43_linear_41_3938)"/>
<path d="M306.2 174.8C306.4 174.8 306.5 174.7 306.7 174.6L315.5 169.5C316.4 169 317.2 167.4 317.2 166.2C317.2 165.6 317 165 316.5 165C316.3 165 316.2 165.1 316 165.2L307.2 170.3C306.3 170.8 305.5 172.4 305.5 173.6C305.5 174.2 305.7 174.8 306.2 174.8Z" fill="url(#paint44_linear_41_3938)"/>
<path d="M165.8 238.1C161.8 238.1 158 237.2 155.1 235.5L84.8 195C81.8 193.3 80.2 191 80.2 188.5C80.2 186.1 81.8 183.8 84.7 182.1L259.8 81C262.6 79.4 266.4 78.5 270.4 78.5C274.4 78.5 278.2 79.4 281.1 81.1L351.4 121.7C354.4 123.4 356 125.7 356 128.2C356 130.6 354.4 132.9 351.5 134.6L176.5 235.7C173.5 237.2 169.8 238.1 165.8 238.1ZM270.4 79.5C266.6 79.5 263 80.4 260.3 81.9L85.2 183C82.6 184.5 81.2 186.5 81.2 188.5C81.2 190.6 82.7 192.6 85.3 194.1L155.6 234.7C158.3 236.3 162 237.1 165.8 237.1C169.6 237.1 173.2 236.2 175.9 234.7L350.9 133.6C353.5 132.1 354.9 130.1 354.9 128.1C354.9 126 353.4 124 350.8 122.5L280.5 81.9C277.9 80.4 274.2 79.5 270.4 79.5Z" fill="url(#paint45_linear_41_3938)"/>
<path d="M319.6 110.4L302.2 100.3C301.5 99.9 301.6 99.2 302.4 98.8C303.2 98.3 304.4 98.3 305.1 98.7L322.5 108.8C323.2 109.2 323.1 109.9 322.3 110.3C321.5 110.7 320.3 110.8 319.6 110.4Z" fill="#D1B4E3"/>
<g opacity="0.7">
<path opacity="0.02" d="M190.5 212.6C187.8 212.6 185.3 212 183.5 210.9L166.8 201.2L150.1 191.5C147.8 190.2 146.5 188.1 146.5 185.9C146.5 183.4 148.2 181 151.1 179.3C153.5 177.9 156.7 177.1 159.9 177.1C162.6 177.1 165.1 177.7 166.9 178.8L183.6 188.5L200.3 198.2C202.6 199.5 203.9 201.6 203.9 203.8C203.9 206.3 202.2 208.7 199.3 210.4C196.9 211.7 193.7 212.6 190.5 212.6Z" fill="black"/>
<path opacity="0.045" d="M151.6 179.6C154 178.2 157.1 177.4 160.1 177.4C162.4 177.4 164.4 177.8 166.1 178.6C166.4 178.7 166.7 178.9 166.9 179L183.2 188.4L184.6 189.2L199.5 197.8C200.7 198.5 201.9 199.6 202.4 200.6C202.8 201.4 203.1 202.2 203.1 203.1C203.2 205.5 201.6 207.9 198.8 209.5C196.4 210.9 193.3 211.7 190.3 211.7C188 211.7 186 211.3 184.3 210.5C184 210.4 183.7 210.2 183.5 210.1L167.2 200.7L165.8 199.9L150.9 191.3C149.7 190.6 148.5 189.5 148 188.5C147.6 187.7 147.3 186.9 147.3 186C147.2 183.6 148.8 181.2 151.6 179.6Z" fill="black"/>
<path opacity="0.071" d="M152.2 179.8C154.5 178.5 157.6 177.7 160.5 177.7C162.7 177.7 164.7 178.1 166.4 178.9L167.2 179.3L183.1 188.5L184.4 189.3L198.9 197.7C200 198.3 201.3 199.5 201.8 200.4C202.2 201.2 202.5 202 202.6 202.8C202.8 205.1 201.3 207.5 198.5 209.1C196.2 210.4 193.1 211.2 190.2 211.2C188 211.2 186 210.8 184.3 210L183.5 209.6L167.6 200.4L166.3 199.6L151.8 191.2C150.7 190.6 149.4 189.4 148.9 188.5C148.5 187.7 148.2 186.9 148.1 186.1C147.9 183.7 149.4 181.4 152.2 179.8Z" fill="black"/>
<path opacity="0.096" d="M152.9 180C155.2 178.7 158.1 178 161 178C163.1 178 165.1 178.4 166.7 179.2L167.5 179.6L182.9 188.5L184.2 189.2L198.3 197.3C199.3 197.9 200.7 199 201.2 199.9C201.6 200.6 202 201.4 202.1 202.2C202.3 204.5 200.9 206.7 198.2 208.3C195.9 209.6 193 210.3 190.1 210.3C188 210.3 186 209.9 184.4 209.1L183.6 208.7L168.2 199.8L166.9 199.1L152.8 191C151.8 190.4 150.4 189.2 149.9 188.4C149.5 187.7 149.1 186.9 149 186.1C148.7 183.8 150.1 181.6 152.9 180Z" fill="black"/>
<path opacity="0.122" d="M153.5 180.2C155.7 178.9 158.6 178.2 161.4 178.2C163.5 178.2 165.4 178.6 166.9 179.4C167.1 179.5 167.5 179.7 167.6 179.8L182.6 188.4L183.9 189.1L197.6 197C198.5 197.5 200 198.7 200.4 199.4C200.8 200.1 201.2 200.8 201.3 201.6C201.6 203.8 200.3 206 197.6 207.6C195.4 208.9 192.5 209.6 189.7 209.6C187.6 209.6 185.7 209.2 184.2 208.4C184 208.3 183.6 208.1 183.5 208L168.5 199.4L167.2 198.7L153.5 190.8C152.6 190.3 151.1 189.1 150.7 188.4C150.3 187.7 149.9 187 149.8 186.2C149.5 184 150.8 181.7 153.5 180.2Z" fill="black"/>
<path opacity="0.147" d="M154.1 180.4C156.2 179.2 159 178.5 161.7 178.5C163.7 178.5 165.6 178.9 167.1 179.7C167.3 179.8 167.7 180 167.8 180.1L182.3 188.5L183.5 189.2L196.8 196.9C197.5 197.3 199.2 198.6 199.6 199.2C200.1 199.9 200.5 200.5 200.6 201.2C201 203.3 199.8 205.5 197.1 207C195 208.2 192.2 208.9 189.5 208.9C187.5 208.9 185.6 208.5 184.1 207.7C183.9 207.6 183.5 207.4 183.4 207.3L168.9 198.9L167.7 198.2L154.4 190.5C153.7 190.1 152 188.8 151.6 188.2C151.1 187.5 150.7 186.9 150.6 186.2C150.2 184.1 151.4 181.9 154.1 180.4Z" fill="black"/>
<path opacity="0.173" d="M154.7 180.6C156.8 179.4 159.5 178.8 162.1 178.8C164.1 178.8 165.9 179.2 167.3 179.9C167.4 180 167.9 180.2 168 180.3L182.1 188.4L183.3 189.1L196.2 196.5C196.8 196.9 198.6 198.2 199 198.7C199.5 199.4 199.9 199.9 200.1 200.6C200.6 202.6 199.5 204.7 196.8 206.2C194.7 207.4 192 208 189.4 208C187.4 208 185.6 207.6 184.2 206.9C184.1 206.8 183.6 206.6 183.5 206.5L169.4 198.4L168.2 197.7L155.3 190.3C154.7 189.9 152.9 188.6 152.5 188.1C152 187.5 151.6 186.9 151.4 186.2C151 184.2 152.1 182.1 154.7 180.6Z" fill="black"/>
<path opacity="0.198" d="M155.4 180.8C157.4 179.6 160.1 179 162.6 179C164.5 179 166.2 179.4 167.6 180.1C167.7 180.2 168.2 180.4 168.2 180.5L181.9 188.4L183.1 189.1L195.6 196.3C196.1 196.6 198 198 198.3 198.3C198.8 198.9 199.2 199.4 199.4 200.1C200 202 198.9 204.1 196.3 205.6C194.3 206.8 191.6 207.4 189.1 207.4C187.2 207.4 185.5 207 184.1 206.3C184 206.2 183.5 206 183.5 205.9L169.8 198L168.6 197.3L156.1 190.1C155.6 189.8 153.7 188.4 153.4 188.1C152.9 187.5 152.5 187 152.3 186.3C151.7 184.3 152.8 182.2 155.4 180.8Z" fill="black"/>
<path opacity="0.224" d="M156 181C158 179.9 160.5 179.3 162.9 179.3C164.7 179.3 166.4 179.7 167.8 180.4C167.9 180.4 168.3 180.7 168.4 180.7L181.6 188.3L182.7 188.9L194.8 195.9C195.2 196.1 197.3 197.5 197.5 197.8C198.1 198.3 198.5 198.9 198.7 199.5C199.4 201.3 198.4 203.4 195.9 204.8C193.9 205.9 191.4 206.5 189 206.5C187.2 206.5 185.5 206.1 184.1 205.4C184 205.4 183.6 205.1 183.5 205.1L170.3 197.5L169.2 196.9L157.1 189.9C156.7 189.7 154.6 188.3 154.4 188C153.8 187.5 153.4 186.9 153.2 186.3C152.5 184.5 153.5 182.4 156 181Z" fill="black"/>
<path opacity="0.249" d="M156.6 181.1C158.5 180 161 179.4 163.3 179.5C165.1 179.5 166.7 179.9 168 180.6C168.1 180.6 168.5 180.9 168.6 180.9L181.4 188.3L182.5 188.9L194.2 195.6C194.4 195.7 196.8 197.2 196.9 197.4C197.5 197.9 197.9 198.4 198.2 198.9C199 200.6 198.1 202.6 195.6 204C193.7 205.1 191.2 205.7 188.9 205.6C187.1 205.6 185.5 205.2 184.2 204.5C184.1 204.5 183.7 204.2 183.6 204.2L170.8 196.8L169.7 196.2L158 189.5C157.8 189.4 155.4 187.9 155.3 187.7C154.7 187.2 154.3 186.7 154 186.2C153.2 184.6 154.1 182.6 156.6 181.1Z" fill="black"/>
<path opacity="0.275" d="M157.2 181.3C159 180.2 161.4 179.7 163.7 179.7C165.4 179.7 167 180.1 168.2 180.8C168.2 180.8 168.7 181.1 168.8 181.1L181.2 188.2L182.2 188.8L193.5 195.3C193.6 195.4 196.1 196.8 196.1 196.9C196.7 197.3 197.2 197.8 197.5 198.3C198.4 199.9 197.5 201.9 195.1 203.3C193.3 204.4 190.9 204.9 188.6 204.9C186.9 204.9 185.3 204.5 184.1 203.8C184.1 203.8 183.6 203.5 183.5 203.5L171.1 196.4L170.1 195.8L158.8 189.3C158.7 189.2 156.2 187.8 156.2 187.7C155.6 187.3 155.1 186.8 154.8 186.3C154 184.7 154.8 182.8 157.2 181.3Z" fill="black"/>
<path opacity="0.3" d="M184.1 203.3L170.6 195.5L157.1 187.7C154.4 186.1 154.7 183.4 157.9 181.6C161 179.8 165.8 179.6 168.5 181.2L182 189L195.5 196.8C198.2 198.4 197.9 201.1 194.7 202.9C191.6 204.6 186.8 204.8 184.1 203.3Z" fill="black"/>
</g>
<path d="M184.8 199.5L151.4 180.2C148 178.3 148.4 174.8 152.3 172.6C156.2 170.4 162.1 170.1 165.5 172.1L198.9 191.4C202.3 193.3 201.9 196.8 198 199C194.1 201.2 188.2 201.4 184.8 199.5Z" fill="url(#paint46_linear_41_3938)"/>
<path d="M184.8 199L151.4 179.7C148 177.8 148.4 174.3 152.3 172.1C156.2 169.9 162.1 169.6 165.5 171.6L198.9 190.9C202.3 192.8 201.9 196.3 198 198.5C194.1 200.7 188.2 201 184.8 199Z" fill="#E5D4EF"/>
<path d="M184.3 190L183.4 187.1L182 187.9L172.9 182.7L171.5 183.5L180.6 188.7L179.2 189.5L184.3 190ZM181.6 193.7L183.5 194.8L186.9 192.8L185 191.8L181.6 193.7ZM184.1 195.2L186 196.3L192 192.8L190.1 191.7L184.1 195.2ZM195.2 191.6L186.6 196.6L188.5 197.7L197.1 192.7L195.2 191.6Z" fill="#EBDEF3"/>
<path d="M235.6 152.9L227.2 148L225.2 149.1L233.6 154L235.6 152.9ZM231.8 155.9L221.8 150.1L219.8 151.2L229.8 157L231.8 155.9ZM244.2 157.8L237.3 153.8L235.3 154.9L242.2 158.9L244.2 157.8ZM248.5 160.3L245.8 158.7L243.8 159.8L246.5 161.4L248.5 160.3ZM209 137.5L202.8 133.9L200.8 135L207 138.6L209 137.5ZM207.7 142L198.3 136.6L196.3 137.7L205.7 143.1L207.7 142ZM233.4 156.8L231.4 157.9L234 159.4L236 158.3L233.4 156.8ZM221.5 144.7L210.5 138.4L208.5 139.5L219.5 145.8L221.5 144.7ZM225.6 147.1L223.2 145.7L221.2 146.8L223.6 148.2L225.6 147.1ZM220.1 149.2L214.8 146.2L212.8 147.3L218.1 150.3L220.1 149.2ZM209.3 142.9L207.3 144L211.3 146.3L213.3 145.2L209.3 142.9ZM235.7 160.4L242.9 164.6L244.9 163.5L237.7 159.3L235.7 160.4ZM259 166.4L250.1 161.3L248.1 162.4L257 167.5L259 166.4ZM264.7 169.7L260.6 167.3L258.6 168.4L262.7 170.8L264.7 169.7ZM218.7 167.7L211.8 163.7L209.8 164.8L216.7 168.8L218.7 167.7ZM220.9 166L228.1 170.2L230.1 169.1L222.9 164.9L220.9 166ZM231.7 167L234.8 168.8L236.8 167.7L233.7 165.9L231.7 167ZM223.2 172.5L230.1 176.5L232.1 175.4L225.2 171.4L223.2 172.5ZM229.7 171.1L232.8 172.9L234.8 171.8L231.7 170L229.7 171.1ZM189.5 147.9L193.5 150.2L195.5 149.1L191.5 146.8L189.5 147.9ZM200.2 157L197.8 155.6L195.8 156.7L198.2 158.1L200.2 157ZM202.4 153L197.1 150L195.1 151.1L200.4 154.1L202.4 153ZM214 159.7L204 153.9L202 155L212 160.8L214 159.7ZM216 171.4L208.8 167.2L206.8 168.3L214 172.5L216 171.4ZM196.5 146.7L207.5 153L209.5 151.9L198.5 145.6L196.5 146.7ZM223.2 162.1L230.1 166.1L232.1 165L225.2 161L223.2 162.1ZM216.2 178.9L218.2 177.8L215.5 176.2L213.5 177.3L216.2 178.9ZM230.3 179.6L217.6 172.3L215.6 173.4L228.3 180.7L230.3 179.6ZM223.5 160L215.1 155.1L213.1 156.2L221.5 161.1L223.5 160ZM198.5 161.2L190 156.3L188 157.4L196.5 162.3L198.5 161.2ZM221.2 163.9L215.6 160.7L213.6 161.8L219.2 165L221.2 163.9ZM188.3 155.4L183 152.4L181 153.5L186.3 156.5L188.3 155.4ZM183.2 149.4L194.2 155.7L196.2 154.6L185.2 148.3L183.2 149.4ZM191.2 162.3L180.2 156L178.2 157.1L189.2 163.4L191.2 162.3ZM210.2 162.8L201.8 157.9L199.8 159L208.2 163.9L210.2 162.8ZM213.8 175.3L206.9 171.3L204.9 172.4L211.8 176.4L213.8 175.3ZM201.1 175.5L203.7 177L205.7 175.9L203.1 174.4L201.1 175.5ZM205.4 178L212.6 182.2L214.6 181.1L207.4 176.9L205.4 178ZM194.9 166.7L203.3 171.6L205.3 170.5L196.9 165.6L194.9 166.7ZM182.6 164.8L187.9 167.8L189.9 166.7L184.6 163.7L182.6 164.8ZM207.2 166.3L200.1 162.2L198.1 163.3L205.2 167.4L207.2 166.3ZM190.8 164.3L193.2 165.7L195.2 164.6L192.8 163.2L190.8 164.3ZM248.5 174.4L246.5 175.5L250.6 177.9L252.6 176.8L248.5 174.4ZM239.4 181.9L241.5 183.1L243.5 182L241.4 180.8L239.4 181.9ZM230.1 181.8L237 185.8L239 184.7L232.1 180.7L230.1 181.8ZM228.3 185.9L232.4 188.3L234.4 187.2L230.3 184.8L228.3 185.9ZM217.8 179.9L226.7 185L228.7 183.9L219.8 178.8L217.8 179.9ZM189.5 168.8L199.5 174.6L201.5 173.5L191.5 167.7L189.5 168.8ZM196.9 144.6L190.6 141L188.6 142.1L194.9 145.7L196.9 144.6ZM236.5 169.7L244.9 174.6L246.9 173.5L238.5 168.6L236.5 169.7ZM209.1 153.9L211.5 155.3L213.5 154.2L211.1 152.8L209.1 153.9ZM247.9 179.3L236.1 172.5L234.1 173.6L245.9 180.4L247.9 179.3ZM240.1 180L233.6 176.3L231.6 177.4L238.1 181.1L240.1 180ZM223.5 170.4L220.4 168.6L218.4 169.7L221.5 171.5L223.5 170.4ZM189.9 145.8L186.1 143.6L184.1 144.7L187.9 146.9L189.9 145.8ZM166 155.2L175.4 160.6L177.4 159.5L168 154.1L166 155.2ZM178.6 155L172.4 151.4L170.4 152.5L176.6 156.1L178.6 155ZM181.4 151.4L177 148.8L175 149.9L179.4 152.5L181.4 151.4ZM183.5 147.4L181.5 146.3L179.5 147.4L181.5 148.5L183.5 147.4ZM177 161.6L181 163.9L183 162.8L179 160.5L177 161.6Z" fill="#E5D4EF"/>
<path opacity="0.02" d="M114.6 213.3L14.7 155.8C8.19995 152.1 8.19995 142.7 14.7 139L94.4 92.7C97.4 91 101.1 90.9 104.1 92.7L204 150.2C210.5 153.9 210.5 163.3 204 167L124.3 213.3C121.3 215.1 117.6 215.1 114.6 213.3Z" fill="black"/>
<path opacity="0.045" d="M115 212.4L15.7 155.2C9.39998 151.6 9.39998 142.5 15.7 138.8L94 93.3C96.9 91.6 100.6 91.6 103.5 93.3L202.8 150.5C209.1 154.1 209.1 163.2 202.8 166.9L124.5 212.4C121.6 214.1 117.9 214.1 115 212.4Z" fill="black"/>
<path opacity="0.071" d="M115.4 211.5L16.8 154.7C10.7 151.2 10.6 142.3 16.8 138.7L93.6 94C96.5 92.3 100 92.3 102.9 94L201.5 150.8C207.6 154.3 207.7 163.2 201.5 166.8L124.7 211.5C123.276 212.287 121.677 212.7 120.05 212.7C118.423 212.7 116.823 212.287 115.4 211.5Z" fill="black"/>
<path opacity="0.096" d="M115.9 210.5L17.9 154.1C11.9 150.6 11.9 142 17.9 138.6L93.3 94.7C96.1 93.1 99.5 93.1 102.3 94.7L200.3 151.1C206.3 154.6 206.3 163.2 200.3 166.6L124.9 210.5C122.1 212.1 118.7 212.1 115.9 210.5Z" fill="black"/>
<path opacity="0.122" d="M116.3 209.6L19 153.6C13.2 150.2 13.2 141.9 19 138.5L93 95.5C95.7 93.9 99 93.9 101.8 95.5L199.1 151.5C204.9 154.9 204.9 163.2 199.1 166.6L125.1 209.6C122.4 211.1 119 211.1 116.3 209.6Z" fill="black"/>
<path opacity="0.147" d="M116.7 208.6L20.1 153C14.4 149.7 14.4 141.6 20.1 138.3L92.7 96.1C95.3 94.6 98.6 94.6 101.2 96.1L197.9 151.8C203.6 155.1 203.6 163.2 197.9 166.5L125.3 208.7C122.6 210.2 119.4 210.2 116.7 208.6Z" fill="black"/>
<path opacity="0.173" d="M117.2 207.7L21.2 152.4C15.7 149.2 15.7 141.3 21.2 138.1L92.3 96.7001C94.9 95.2001 97.9999 95.2001 100.6 96.7001L196.6 152C202.1 155.2 202.1 163.1 196.6 166.3L125.5 207.7C122.9 209.2 119.7 209.2 117.2 207.7Z" fill="black"/>
<path opacity="0.198" d="M117.6 206.8L22.2 151.9C16.9 148.8 16.9 141.1 22.2 138.1L91.9 97.5001C94.4 96.1001 97.4 96.1001 99.9 97.5001L195.3 152.4C200.6 155.5 200.6 163.2 195.3 166.2L125.6 206.8C123.1 208.2 120.1 208.2 117.6 206.8Z" fill="black"/>
<path opacity="0.224" d="M118 205.8L23.3 151.3C18.1 148.3 18.1 140.9 23.3 137.9L91.6 98.2C94 96.8 97 96.8 99.4 98.2L194.1 152.7C199.3 155.7 199.3 163.1 194.1 166.1L125.8 205.8C123.4 207.2 120.4 207.2 118 205.8Z" fill="black"/>
<path opacity="0.249" d="M118.5 204.9L24.4 150.7C19.4 147.8 19.4 140.6 24.4 137.7L91.2 98.8C93.5 97.4 96.4 97.4 98.7 98.8L192.8 153C197.8 155.9 197.8 163.1 192.8 166L126 204.9C123.7 206.2 120.8 206.2 118.5 204.9Z" fill="black"/>
<path opacity="0.275" d="M118.9 203.9L25.5 150.1C20.7 147.3 20.7 140.3 25.5 137.5L90.9 99.4C93.1 98.1 95.9 98.1 98.2 99.4L191.6 153.2C196.4 156 196.4 163 191.6 165.8L126.2 203.9C123.9 205.2 121.2 205.2 118.9 203.9Z" fill="black"/>
<path opacity="0.3" d="M119.3 203L26.5 149.6C21.8 146.9 21.8 140.2 26.5 137.5L90.5 100.2C92.7 98.9 95.4 98.9 97.5 100.2L190.3 153.6C195 156.3 195 163 190.3 165.7L126.3 203C124.2 204.2 121.5 204.3 119.3 203Z" fill="black"/>
<path d="M120.5 202.7L4 135.6L93 83.9L209.5 151L120.5 202.7Z" fill="url(#paint47_linear_41_3938)"/>
<path d="M120.5 201.8L5.2 134.9L4 135.6L120.5 202.7L207.8 151.8L206.6 151.6L120.5 201.8Z" fill="#231F20"/>
<path d="M179.1 159.8L97.8 112.9L98.2 112.6L179.5 159.6L179.1 159.8ZM162.5 169.4L81.1 122.5L81.6 122.2L162.9 169.2L162.5 169.4ZM187.4 155L106.1 108.1L106.5 107.8L187.9 154.8L187.4 155ZM170.8 164.6L89.5 117.7L89.9 117.4L171.2 164.4L170.8 164.6Z" fill="#D1B4E3"/>
<path opacity="0.5" d="M93.1 128.9L87.5 125.7L107.9 113.9L113.5 117.1L93.1 128.9ZM103.9 135.2L98.4 132L129.5 114L135.1 117.2L103.9 135.2ZM114.8 141.5L109.3 138.3L133.7 124.1L139.2 127.3L114.8 141.5ZM125.7 147.7L120.1 144.5L140.5 132.7L146.1 135.9L125.7 147.7ZM136.5 154L131 150.8L146 142.1L151.6 145.3L136.5 154ZM147.4 160.3L141.9 157.1L162.3 145.3L167.8 148.5L147.4 160.3ZM158.3 166.5L152.7 163.4L181.2 146.9L186.7 150.1L158.3 166.5Z" fill="#E5D4EF"/>
<path opacity="0.8" d="M93.1 128.9L87.5 125.7L102.7 116.9L108.3 120.1L93.1 128.9ZM103.9 135.2L98.4 132L121.7 118.5L127.2 121.7L103.9 135.2ZM114.8 141.5L109.3 138.3L129.8 126.4L135.4 129.6L114.8 141.5ZM125.7 147.7L120.1 144.5L135.3 135.7L140.9 138.9L125.7 147.7ZM136.5 154L131 150.8L140.8 145.1L146.4 148.3L136.5 154ZM147.4 160.3L141.9 157.1L157.1 148.3L162.6 151.5L147.4 160.3ZM158.3 166.5L152.7 163.4L173.3 151.5L178.9 154.7L158.3 166.5Z" fill="#E5D4EF"/>
<path d="M57.6 135.7L139 182.6L139.4 182.4L58.1 135.4L57.6 135.7ZM41 145.3L122.3 192.2L122.7 192L41.4 145L41 145.3ZM66 130.8L147.3 177.8L147.7 177.6L66.4 130.6L66 130.8ZM49.3 140.5L130.6 187.4L131.1 187.2L49.7 140.2L49.3 140.5Z" fill="#D1B4E3"/>
<g opacity="0.6">
<path d="M111.2 185.3L116.7 188.5L137.1 176.8L131.6 173.6L111.2 185.3Z" fill="url(#paint48_linear_41_3938)"/>
<path d="M100.3 179.1L105.9 182.3L137 164.3L131.5 161.1L100.3 179.1Z" fill="url(#paint49_linear_41_3938)"/>
<path d="M89.4 172.8L95 176L119.4 161.9L113.9 158.7L89.4 172.8Z" fill="url(#paint50_linear_41_3938)"/>
<path d="M78.6 166.5L84.1 169.7L104.5 157.9L99 154.7L78.6 166.5Z" fill="url(#paint51_linear_41_3938)"/>
<path d="M67.7 160.2L73.3 163.4L88.3 154.8L82.7 151.6L67.7 160.2Z" fill="url(#paint52_linear_41_3938)"/>
<path d="M56.8 154L62.4001 157.2L85.8001 143.6L80.3001 140.4L56.8 154Z" fill="url(#paint53_linear_41_3938)"/>
<path d="M46 147.7L51.5 150.9L70.5 139.9L65 136.7L46 147.7Z" fill="url(#paint54_linear_41_3938)"/>
</g>
<g opacity="0.8">
<path d="M111.2 185.3L116.7 188.5L131.9 179.7L126.4 176.6L111.2 185.3Z" fill="url(#paint55_linear_41_3938)"/>
<path d="M100.3 179.1L105.9 182.3L129.1 168.8L123.6 165.6L100.3 179.1Z" fill="url(#paint56_linear_41_3938)"/>
<path d="M89.4 172.8L95 176L115.6 164.1L110 160.9L89.4 172.8Z" fill="url(#paint57_linear_41_3938)"/>
<path d="M78.6 166.5L84.1 169.7L99.3 160.9L93.8 157.7L78.6 166.5Z" fill="url(#paint58_linear_41_3938)"/>
<path d="M67.7 160.2L73.3 163.4L83.1 157.7L77.6 154.6L67.7 160.2Z" fill="url(#paint59_linear_41_3938)"/>
<path d="M56.8 154L62.4001 157.2L80.6 146.6L75.1 143.4L56.8 154Z" fill="url(#paint60_linear_41_3938)"/>
<path d="M46 147.7L51.5 150.9L62.6 144.5L57.1 141.3L46 147.7Z" fill="url(#paint61_linear_41_3938)"/>
</g>
<path opacity="0.7" d="M91.7 110.9C86.9 113.7 79.1 113.6 74.3 110.9C69.5 108.1 69.5 103.6 74.2 100.9C79 98.1001 86.8 98.2001 91.6 100.9C96.5 103.6 96.5 108.1 91.7 110.9Z" fill="#E5D4EF"/>
<path opacity="0.8" d="M51.9001 134.7C47.1001 137.5 39.3 137.4 34.5 134.7C29.7 131.9 29.7001 127.4 34.4001 124.7C39.2001 121.9 47 122 51.8 124.7C56.6 127.4 56.7001 131.9 51.9001 134.7Z" fill="url(#paint62_linear_41_3938)"/>
<path d="M84.6 107.8C84.3 107.5 84.1 107.1 84.1 106.8C84.1 106.6 84.4 106.4 84.8 106.4C85.3 106.4 85.8 106.3 86.3 106.2C86.6 106.3 86.9999 106.3 87.1999 106.2C87.3999 106.1 87.5 105.9 87.4 105.7C88.4 105.1 88.8 104.3 87.4 103.5C86 102.7 84.7 103 83.6 103.5C83.4 103.4 83 103.5 82.8 103.6C82.6 103.7 82.6 104 82.8 104.1C82.6 104.4 82.5 104.7 82.5 104.9C82.5 105.1 82.2 105.3 81.8 105.3C81.2 105.3 80.6 105.2 80 105C79.3 104.7 78.2999 104.8 77.6999 105.2L76.6 105.8C76.4 105.9 76.4 106.1 76.6 106.2L82.4 109.6C82.6 109.7 82.9999 109.7 83.1999 109.6L84.3 109C85 108.7 85 108.2 84.6 107.8Z" fill="url(#paint63_linear_41_3938)"/>
<path opacity="0.7" d="M48.4 126.5C45.6 124.9 41 124.9 38.2 126.5C35.4 128.1 35.4 130.8 38.2 132.4C41 134 45.6 134 48.4 132.4C51.2 130.8 51.2 128.1 48.4 126.5ZM47.4 131.8C45.1 133.1 41.5 133.1 39.2 131.8C36.9 130.5 36.9 128.4 39.2 127.1C41.5 125.8 45.1 125.8 47.4 127.1C49.6 128.4 49.7 130.5 47.4 131.8ZM47.1 127.3C46.8 127.1 46.4 127.1 46.1 127.3L42.3 129.5L45.9 131.6C46.2 131.8 46.6 131.8 46.9 131.6C47.2 131.4 47.2 131.2 46.9 131L44.3 129.5L47.1 127.9C47.3 127.7 47.3 127.4 47.1 127.3Z" fill="#E5D4EF"/>
<path opacity="0.8" d="M41.5 142.1L31.5 136.3L29.5 137.4L39.5 143.2L41.5 142.1ZM29.9 135.4L24.6 132.4L22.6 133.5L27.9 136.5L29.9 135.4Z" fill="url(#paint64_linear_41_3938)"/>
<path opacity="0.7" d="M61.4 110L72.4 116.3L74.3 115.2L63.4 108.9L61.4 110ZM74 117.2L76.4 118.6L78.4 117.5L75.9 116.1L74 117.2Z" fill="#E5D4EF"/>
<path opacity="0.02" d="M158.1 156.8L58.1 99.3C51.6 95.6 51.6 86.2 58.1 82.5L137.8 36.2C140.8 34.5 144.5 34.4 147.5 36.2L247.4 93.7C253.9 97.4 253.9 106.8 247.4 110.5L167.7 156.8C164.8 158.6 161.1 158.6 158.1 156.8Z" fill="black"/>
<path opacity="0.045" d="M158.5 155.9L59.2 98.7C52.9 95.1 52.9 86 59.2 82.3L137.5 36.8C140.4 35.1 144.1 35.1 147 36.8L246.3 94C252.6 97.6 252.6 106.7 246.3 110.4L168 155.9C165.1 157.6 161.4 157.6 158.5 155.9Z" fill="black"/>
<path opacity="0.071" d="M158.9 155L60.3 98.2C54.2 94.7 54.1 85.8 60.3 82.2L137.1 37.5C140 35.8 143.5 35.8 146.4 37.5L245 94.3C251.1 97.8 251.2 106.7 245 110.3L168.2 155C166.776 155.787 165.177 156.2 163.55 156.2C161.923 156.2 160.323 155.787 158.9 155Z" fill="black"/>
<path opacity="0.096" d="M159.4 154L61.4 97.6C55.4 94.1 55.4 85.5 61.4 82.1L136.8 38.2C139.6 36.6 143 36.6 145.8 38.2L243.8 94.6C249.8 98.1 249.8 106.7 243.8 110.1L168.4 154C165.6 155.6 162.2 155.6 159.4 154Z" fill="black"/>
<path opacity="0.122" d="M159.8 153.1L62.5 97.0001C56.7 93.6001 56.7 85.3001 62.5 81.9001L136.5 38.9001C139.2 37.3001 142.5 37.3001 145.3 38.9001L242.6 94.9001C248.4 98.3001 248.4 106.6 242.6 110L168.6 153C165.9 154.6 162.5 154.6 159.8 153.1Z" fill="black"/>
<path opacity="0.147" d="M160.2 152.1L63.6 96.5C57.9 93.2 57.9 85.1 63.6 81.8L136.2 39.6C138.8 38.1 142.1 38.1 144.7 39.6L241.4 95.3C247.1 98.6 247.1 106.7 241.4 110L168.8 152.2C166.1 153.7 162.9 153.7 160.2 152.1Z" fill="black"/>
<path opacity="0.173" d="M160.7 151.2L64.7 95.9001C59.2 92.7001 59.2 84.8001 64.7 81.6001L135.8 40.2001C138.4 38.7001 141.5 38.7001 144.1 40.2001L240.1 95.5001C245.6 98.7001 245.6 106.6 240.1 109.8L169 151.2C166.4 152.7 163.2 152.7 160.7 151.2Z" fill="black"/>
<path opacity="0.198" d="M161.1 150.3L65.7 95.3C60.4 92.2 60.4 84.5 65.7 81.5L135.4 40.9C137.9 39.5 140.9 39.5 143.4 40.9L238.8 95.8C244.1 98.9 244.1 106.6 238.8 109.6L169.1 150.2C166.6 151.7 163.6 151.7 161.1 150.3Z" fill="black"/>
<path opacity="0.224" d="M161.5 149.3L66.8 94.8C61.6 91.8 61.6 84.4 66.8 81.4L135.1 41.7C137.5 40.3 140.5 40.3 142.9 41.7L237.6 96.2C242.8 99.2 242.8 106.6 237.6 109.6L169.3 149.3C166.9 150.7 163.9 150.7 161.5 149.3Z" fill="black"/>
<path opacity="0.249" d="M162 148.4L67.9 94.2C62.9 91.3 62.9 84.1 67.9 81.2L134.7 42.3C137 40.9 139.9 40.9 142.2 42.3L236.3 96.5C241.3 99.4 241.3 106.6 236.3 109.5L169.5 148.4C167.2 149.7 164.3 149.7 162 148.4Z" fill="black"/>
<path opacity="0.275" d="M162.4 147.4L69 93.7C64.2 90.9 64.2 83.9 69 81.1L134.4 43C136.6 41.7 139.4 41.7 141.7 43L235.1 96.8C239.9 99.6 239.9 106.6 235.1 109.4L169.7 147.5C167.4 148.7 164.7 148.7 162.4 147.4Z" fill="black"/>
<path opacity="0.3" d="M162.8 146.5L70.1 93.1C65.4 90.4 65.4 83.7 70.1 81L134.1 43.7C136.3 42.4 139 42.4 141.1 43.7L233.9 97.1C238.6 99.8 238.6 106.5 233.9 109.2L169.9 146.5C167.7 147.7 165 147.8 162.8 146.5Z" fill="black"/>
<path d="M164 146.2L47.5 79.1L136.5 27.4L253 94.5L164 146.2Z" fill="url(#paint65_linear_41_3938)"/>
<path d="M164 145.3L48.7 78.4L47.5 79.1L164 146.2L251.3 95.3L250.1 95.1L164 145.3Z" fill="#231F20"/>
<path d="M146 81C148.6 80.3 151 79.3 153.1 78.1C159.2 74.6 161.6 69.8 160.5 65.3C158.6 58.1 147.8 52.7 134.8 52.7C133.4 52.7 132 52.8 130.7 52.9L128.8 46.7C135.5 46 141.4 46.3 147.8 47.6C150.9 48.2 153.7 49.1 156.3 50.2C156.4 50.2 156.5 50.3 156.6 50.3C157 50.5 157.5 50.7 157.9 50.9C158.2 51.1 158.6 51.2 158.9 51.4H159C163.1 53.4 166.2 55.7 168.6 58.6C177.1 69.2 169.1 81.9 150.6 86.9L146 81Z" fill="url(#paint66_linear_41_3938)"/>
<path d="M106.9 81.3C101.1 77.3 98.3 72.9 98.4 67.6H108.8V67.7C108.8 71.4 111.1 74.8 114.9 77.4C119.7 80.7 126.8 82.7 134.8 82.7C139.7 82.7 144.3 81.9 148.2 80.5L153.6 85.9C137.9 91.2 118.5 89.3 106.9 81.3Z" fill="url(#paint67_linear_41_3938)"/>
<path d="M108.8 67.6H98.4C98.5 57.2 111.1 48.4 128.9 46.6L130.8 52.8C118.5 54 108.9 60.2 108.8 67.6Z" fill="url(#paint68_linear_41_3938)"/>
<path d="M79.8 87.2L86.5 83.3C87 83 87 82.5 86.5 82.2L75.7 76C75.2 75.7 74.3 75.7 73.8 76L67.1 79.9C66.6 80.2 66.6 80.7 67.1 81L71.5 83.6L70.6 84.1L70 83.7C69.5 83.4 68.6 83.4 68 83.7L67.8 83.8L72.9 86.8L73.1 86.7C73.6 86.4 73.6 85.9 73.1 85.6L72.5 85.2L73.4 84.7L77.8 87.3C78.4 87.5 79.2 87.5 79.8 87.2ZM68.3 80.5L75 76.6L85.2 82.5L78.5 86.4L68.3 80.5Z" fill="url(#paint69_linear_41_3938)"/>
<path d="M125.4 104.2L119.9 101C119.4 100.7 118.5 100.7 118 101L107.8 106.9C107.3 107.2 107.3 107.7 107.8 108L113.3 111.2C113.8 111.5 114.7 111.5 115.2 111.2L125.4 105.3C125.9 105 125.9 104.5 125.4 104.2ZM114.9 110.2L109.4 107L118.8 101.6L124.3 104.8L114.9 110.2Z" fill="url(#paint70_linear_41_3938)"/>
<path d="M106.5 95L95.3 88.5C94.8 88.2 93.9 88.2 93.4 88.5L86.4 92.5C85.9 92.8 85.9 93.3 86.4 93.6L97.6 100.1C98.1 100.4 99 100.4 99.5 100.1L106.5 96.1C107 95.8 107 95.3 106.5 95ZM98.1 99.3L87.9 93.4L94.8 89.4L105 95.3L98.1 99.3Z" fill="url(#paint71_linear_41_3938)"/>
<path opacity="0.8" d="M83.1 84.2001L88.1 81.3001L86.1 80.2001L81 83.1001L79.5 82.2001L78.7 85.6001L84.6 85.1001L83.1 84.2001ZM103.7 93.9001L98.6 96.8001L100.7 98.0001L105.7 95.1001L107.2 96.0001L108 92.6001L102.1 93.0001L103.7 93.9001ZM120.8 104.4L115.8 107.3L117.8 108.5L122.8 105.6L124.3 106.5L125.1 103.1L119.2 103.5L120.8 104.4Z" fill="#EBDEF3"/>
<path d="M200.1 76.1L204 73.8L200.2 71.6L196.3 73.9L200.1 76.1ZM192.9 80.2L196.8 78L192.9 75.8L189.1 78L192.9 80.2ZM185.7 84.4L189.5 82.2L185.7 80L181.8 82.2L185.7 84.4Z" fill="#45108A"/>
<path opacity="0.5" d="M178.4 88.6L182.3 86.4L178.5 84.2L174.6 86.4L178.4 88.6ZM171.2 92.8L175 90.6L171.2 88.4L167.4 90.6L171.2 92.8ZM163.9 97L167.8 94.7L164 92.5L160.1 94.8L163.9 97Z" fill="#45108A"/>
<path d="M156.7 101.1L160.6 98.9L156.7 96.7L152.9 98.9L156.7 101.1Z" fill="#45108A"/>
<path opacity="0.5" d="M149.5 105.3L153.3 103.1L149.5 100.9L145.6 103.1L149.5 105.3Z" fill="#45108A"/>
<path d="M207 80L210.8 77.8L207 75.6L203.2 77.8L207 80Z" fill="#45108A"/>
<path opacity="0.5" d="M199.7 84.1999L203.6 81.9999L199.8 79.7999L195.9 81.9999L199.7 84.1999Z" fill="#45108A"/>
<path opacity="0.8" d="M192.5 88.4L196.4 86.2L192.5 83.9L188.7 86.2L192.5 88.4Z" fill="#45108A"/>
<path opacity="0.5" d="M185.3 92.6L189.1 90.3L185.3 88.1L181.4 90.3L185.3 92.6Z" fill="#45108A"/>
<path opacity="0.8" d="M178 96.6999L181.9 94.4999L178.1 92.2999L174.2 94.4999L178 96.6999Z" fill="#45108A"/>
<path d="M170.8 100.9L174.6 98.7L170.8 96.5L167 98.7L170.8 100.9Z" fill="#45108A"/>
<path opacity="0.5" d="M163.6 105.1L167.4 102.9L163.6 100.7L159.7 102.9L163.6 105.1ZM156.3 109.3L160.2 107L156.3 104.8L152.5 107.1L156.3 109.3ZM213.8 84L217.7 81.7L213.8 79.5L210 81.8L213.8 84Z" fill="#45108A"/>
<path d="M206.6 88.1L210.4 85.9L206.6 83.7L202.8 85.9L206.6 88.1ZM199.3 92.3L203.2 90.1L199.4 87.9L195.5 90.1L199.3 92.3ZM192.1 96.5L196 94.3L192.1 92.1L188.3 94.3L192.1 96.5Z" fill="#45108A"/>
<path opacity="0.5" d="M184.9 100.7L188.7 98.4999L184.9 96.2999L181 98.4999L184.9 100.7Z" fill="#45108A"/>
<path d="M177.6 104.9L181.5 102.6L177.7 100.4L173.8 102.7L177.6 104.9Z" fill="#45108A"/>
<path opacity="0.5" d="M170.4 109L174.2 106.8L170.4 104.6L166.6 106.8L170.4 109Z" fill="#45108A"/>
<path d="M163.2 113.2L167 111L163.2 108.8L159.3 111L163.2 113.2ZM220.7 87.9L224.5 85.7L220.7 83.5L216.8 85.7L220.7 87.9Z" fill="#45108A"/>
<path opacity="0.5" d="M213.4 92.1L217.3 89.9L213.5 87.7L209.6 89.9L213.4 92.1ZM206.2 96.3L210 94.1L206.2 91.8L202.4 94.1L206.2 96.3Z" fill="#45108A"/>
<path d="M199 100.5L202.8 98.2L199 96L195.1 98.2L199 100.5ZM191.7 104.6L195.6 102.4L191.7 100.2L187.9 102.4L191.7 104.6ZM184.5 108.8L188.3 106.6L184.5 104.4L180.6 106.6L184.5 108.8Z" fill="#45108A"/>
<path opacity="0.8" d="M177.2 113L181.1 110.8L177.3 108.6L173.4 110.8L177.2 113ZM170 117.2L173.9 114.9L170 112.7L166.2 115L170 117.2Z" fill="#45108A"/>
<path opacity="0.5" d="M227.5 91.9L231.4 89.6L227.5 87.4L223.7 89.7L227.5 91.9Z" fill="#45108A"/>
<path d="M220.3 96L224.1 93.8L220.3 91.6L216.4 93.8L220.3 96Z" fill="#45108A"/>
<path opacity="0.8" d="M213 100.2L216.9 97.9999L213.1 95.7999L209.2 97.9999L213 100.2ZM205.8 104.4L209.6 102.2L205.8 99.9999L202 102.2L205.8 104.4Z" fill="#45108A"/>
<path opacity="0.5" d="M198.6 108.6L202.4 106.4L198.6 104.2L194.7 106.4L198.6 108.6ZM191.3 112.8L195.2 110.5L191.3 108.3L187.5 110.6L191.3 112.8ZM184.1 116.9L187.9 114.7L184.1 112.5L180.2 114.7L184.1 116.9ZM176.8 121.1L180.7 118.9L176.9 116.7L173 118.9L176.8 121.1Z" fill="#45108A"/>
<path d="M234.3 95.8L238.2 93.6L234.4 91.4L230.5 93.6L234.3 95.8ZM227.1 100L231 97.8L227.1 95.6L223.3 97.8L227.1 100Z" fill="#45108A"/>
<path opacity="0.5" d="M219.9 104.2L223.7 102L219.9 99.7L216 102L219.9 104.2Z" fill="#45108A"/>
<path d="M212.6 108.4L216.5 106.1L212.7 103.9L208.8 106.1L212.6 108.4Z" fill="#45108A"/>
<path opacity="0.5" d="M205.4 112.5L209.2 110.3L205.4 108.1L201.6 110.3L205.4 112.5ZM198.2 116.7L202 114.5L198.2 112.3L194.3 114.5L198.2 116.7Z" fill="#45108A"/>
<path d="M190.9 120.9L194.8 118.7L190.9 116.5L187.1 118.7L190.9 120.9Z" fill="#45108A"/>
<path opacity="0.2" d="M183.7 125.1L187.5 122.8L183.7 120.6L179.9 122.9L183.7 125.1Z" fill="#45108A"/>
<path d="M78.1 70.2L180.5 129.3L181 129L78.6 69.9L78.1 70.2Z" fill="#D1B4E3"/>
<path d="M129.5 119.7L142.6 111.7L138.8 109.5L125.6 117.5L129.5 119.7Z" fill="#45108A"/>
<path opacity="0.85" d="M136.1 123.7L146.8 117.2L143 115L132.3 121.5L136.1 123.7Z" fill="#45108A"/>
<path opacity="0.75" d="M143.1 127.7L151.1 122.9L147.3 120.6L139.3 125.5L143.1 127.7Z" fill="#45108A"/>
<path opacity="0.6" d="M150 131.6L155.8 127.7L152 125.5L146.1 129.4L150 131.6Z" fill="#45108A"/>
<path opacity="0.4" d="M156.6 135.9L160.5 133.5L156.6 131.3L152.8 133.7L156.6 135.9Z" fill="#45108A"/>
<path opacity="0.3" d="M163.3 139.7L165.5 138.4L161.6 136.1L159.5 137.5L163.3 139.7Z" fill="#45108A"/>
<path opacity="0.8" d="M141.4 71.5001C141.6 71.4001 141.9 71.2001 142.1 71.0001L145.2 71.4001L145.4 71.2001C145.9 70.7001 146.4 70.1001 146.6 69.5001L146.7 69.3001L144 68.3001C144.1 67.9001 144.1 67.5001 144 67.0001L146.7 66.1001L146.6 65.9001C146.3 65.3001 145.9 64.7001 145.3 64.2001L145.1 64.0001L142 64.4001C141.5 64.0001 141.1 63.8001 140.4 63.5001L141.1 61.7001L140.8 61.6001C139.9 61.3001 138.8 61.0001 137.8 60.9001L137.5 60.8001L135.9 62.3001C135.2 62.2001 134.4 62.2001 133.7 62.3001L132 60.7001H131.7C130.6 60.9001 129.6 61.1001 128.7 61.4001L128.4 61.5001L129.1 63.3001C128.8 63.4001 128.5 63.6001 128.3 63.7001C128.1 63.8001 127.8 64.0001 127.6 64.2001L124.5 63.8001L124.3 64.0001C123.8 64.5001 123.3 65.1001 123.1 65.7001L123 65.9001L125.7 66.9001C125.6 67.3001 125.6 67.7001 125.7 68.2001L123 69.1001L123.1 69.3001C123.4 69.9001 123.8 70.5001 124.4 71.0001L124.6 71.2001L127.7 70.8001C128.2 71.2001 128.6 71.4001 129.3 71.7001L128.6 73.5001L128.9 73.6001C129.8 73.9001 130.9 74.2001 131.9 74.3001L132.2 74.4001L133.8 72.8001C134.5 72.9001 135.3 72.9001 136 72.8001L137.7 74.4001H138C139.1 74.2001 140.1 74.0001 141 73.7001L141.3 73.6001L140.6 71.8001C140.9 71.8001 141.2 71.7001 141.4 71.5001ZM140.3 73.5001C139.6 73.7001 138.9 73.9001 138.1 74.0001L136.5 72.5001H136.2C135.4 72.6001 134.5 72.6001 133.7 72.5001H133.4L131.8 74.0001C131 73.9001 130.3 73.7001 129.6 73.5001L130.3 71.8001L130.1 71.7001C129.3 71.4001 128.9 71.1001 128.3 70.7001L128.1 70.6001L125.1 71.0001C124.7 70.6001 124.4 70.2001 124.2 69.7001L126.8 68.8001V68.6001C126.7 68.1001 126.7 67.6001 126.8 67.1001V66.9001L124.2 66.0001C124.4 65.6001 124.7 65.1001 125.1 64.8001L128.1 65.2001L128.3 65.1001C128.6 64.9001 128.8 64.7001 129.1 64.5001C129.4 64.3001 129.7 64.2001 130.1 64.0001L130.3 63.9001L129.6 62.2001C130.3 62.0001 131 61.8001 131.8 61.7001L133.4 63.2001H133.7C134.5 63.1001 135.4 63.1001 136.2 63.2001H136.5L138.1 61.7001C138.9 61.8001 139.6 62.0001 140.3 62.2001L139.6 63.9001L139.8 64.0001C140.6 64.3001 141 64.6001 141.6 65.0001L141.8 65.1001L144.8 64.7001C145.2 65.1001 145.5 65.5001 145.7 66.0001L143.1 66.9001V67.1001C143.2 67.6001 143.2 68.1001 143.1 68.6001V68.8001L145.7 69.7001C145.5 70.1001 145.2 70.6001 144.8 70.9001L141.8 70.5001L141.6 70.6001C141.3 70.8001 141.1 71.0001 140.8 71.2001C140.5 71.4001 140.2 71.5001 139.8 71.7001L139.6 71.8001L140.3 73.5001ZM137.7 66.2001C136.2 65.3001 133.6 65.3001 132.1 66.2001C130.6 67.1001 130.6 68.5001 132.1 69.4001C133.6 70.3001 136.2 70.3001 137.7 69.4001C139.3 68.5001 139.3 67.1001 137.7 66.2001ZM132.8 69.0001C131.6 68.3001 131.6 67.2001 132.8 66.5001C134 65.8001 135.9 65.8001 137.1 66.5001C138.3 67.2001 138.3 68.3001 137.1 69.0001C135.9 69.7001 134 69.7001 132.8 69.0001Z" fill="#EBDEF3"/>
<path d="M247.2 142.7L267.1 131.2L260.8 127.6L241 139L247.2 142.7ZM283.9 130.9L277.6 127.3L249.1 143.7L255.4 147.3L283.9 130.9ZM239.1 137.9L250.5 131.3L244.2 127.7L232.8 134.3L239.1 137.9ZM283.3 134.3L255.6 150.3L227.7 134.2L253.2 119.5L270.3 129.4L272.5 128.1L253.2 117L223.3 134.3L255.6 153L285.5 135.7L283.3 134.3Z" fill="#E5D4EF"/>
<path opacity="0.02" d="M240.6 133.8L140.7 76.3C134.2 72.6 134.2 63.2 140.7 59.5L220.4 13.2C223.4 11.5 227.1 11.4 230.1 13.2L330 70.7C336.5 74.4 336.5 83.8 330 87.5L250.3 133.8C247.3 135.6 243.6 135.6 240.6 133.8Z" fill="black"/>
<path opacity="0.045" d="M241 132.9L141.7 75.7C135.4 72.1 135.4 63 141.7 59.3L220 13.8C222.9 12.1 226.6 12.1 229.5 13.8L328.8 71C335.1 74.6 335.1 83.7 328.8 87.4L250.5 132.9C247.6 134.6 243.9 134.6 241 132.9Z" fill="black"/>
<path opacity="0.071" d="M241.4 132L142.8 75.2C136.7 71.7 136.6 62.8 142.8 59.2L219.6 14.5C222.5 12.8 226 12.8 228.9 14.5L327.5 71.3C333.6 74.8 333.7 83.7 327.5 87.3L250.7 132C249.276 132.787 247.677 133.2 246.05 133.2C244.423 133.2 242.823 132.787 241.4 132Z" fill="black"/>
<path opacity="0.096" d="M241.9 131L143.9 74.6C137.9 71.1 137.9 62.5 143.9 59.1L219.3 15.2C222.1 13.6 225.5 13.6 228.3 15.2L326.3 71.6C332.3 75.1 332.3 83.7 326.3 87.1L250.9 131C248.1 132.6 244.7 132.6 241.9 131Z" fill="black"/>
<path opacity="0.122" d="M242.3 130.1L145 74.0001C139.2 70.6001 139.2 62.3001 145 58.9001L219 15.9001C221.7 14.3001 225 14.3001 227.8 15.9001L325.1 71.9001C330.9 75.3001 330.9 83.6001 325.1 87.0001L251.1 130C248.4 131.6 245 131.6 242.3 130.1Z" fill="black"/>
<path opacity="0.147" d="M242.7 129.1L146 73.4C140.3 70.1 140.3 62 146 58.7L218.6 16.5C221.2 15 224.5 15 227.1 16.5L323.8 72.2C329.5 75.5 329.5 83.6 323.8 86.9L251.2 129.1C248.6 130.7 245.4 130.7 242.7 129.1Z" fill="black"/>
<path opacity="0.173" d="M243.2 128.2L147.2 72.9001C141.7 69.7001 141.7 61.8001 147.2 58.6001L218.3 17.2001C220.9 15.7001 224 15.7001 226.6 17.2001L322.6 72.5001C328.1 75.7001 328.1 83.6001 322.6 86.8001L251.5 128.2C248.9 129.7 245.7 129.7 243.2 128.2Z" fill="black"/>
<path opacity="0.198" d="M243.6 127.3L148.2 72.4001C142.9 69.3001 142.9 61.6001 148.2 58.6001L217.9 18.0001C220.4 16.6001 223.4 16.6001 225.9 18.0001L321.3 72.9001C326.6 76.0001 326.6 83.7001 321.3 86.7001L251.6 127.3C249.1 128.7 246.1 128.7 243.6 127.3Z" fill="black"/>
<path opacity="0.224" d="M244 126.3L149.3 71.8C144.1 68.8 144.1 61.4 149.3 58.4L217.6 18.7C220 17.3 223 17.3 225.4 18.7L320.1 73.2C325.3 76.2 325.3 83.6 320.1 86.6L251.8 126.3C249.4 127.7 246.4 127.7 244 126.3Z" fill="black"/>
<path opacity="0.249" d="M244.5 125.4L150.4 71.2C145.4 68.3 145.4 61.1 150.4 58.2L217.2 19.3C219.5 17.9 222.4 17.9 224.7 19.3L318.8 73.5C323.8 76.4 323.8 83.6 318.8 86.5L252 125.4C249.7 126.7 246.8 126.7 244.5 125.4Z" fill="black"/>
<path opacity="0.275" d="M244.9 124.4L151.5 70.6C146.7 67.8 146.7 60.8 151.5 58L216.9 20C219.1 18.7 221.9 18.7 224.2 20L317.6 73.8C322.4 76.6 322.4 83.6 317.6 86.4L252.2 124.5C249.9 125.7 247.2 125.7 244.9 124.4Z" fill="black"/>
<path opacity="0.3" d="M245.3 123.5L152.5 70.1C147.8 67.4 147.8 60.7 152.5 58L216.5 20.7C218.7 19.4 221.4 19.4 223.5 20.7L316.3 74.1C321 76.8 321 83.5 316.3 86.2L252.3 123.5C250.2 124.7 247.5 124.8 245.3 123.5Z" fill="black"/>
<path d="M246.5 123.2L130 56.1L219 4.40002L335.5 71.5L246.5 123.2Z" fill="url(#paint72_linear_41_3938)"/>
<path d="M216.1 17.9L215.9 17.8L154 53.5L250.5 109.2L250.7 109.3L312.6 73.6L216.1 17.9ZM218.4 43.5L242.7 57.5L222.9 68.9001L198.6 54.9001L218.4 43.5ZM197.8 54.4001L175.9 41.8L195.7 30.4L217.6 43L197.8 54.4001ZM243.5 57L219.2 43L238.6 31.8L262.8 45.8L243.5 57ZM263.7 46.2001L288 60.2001L268.6 71.4001L244.3 57.4001L263.7 46.2001ZM222 69.4001L202.7 80.5L202.9 80.8001L178.3 66.6L197.7 55.4001L222 69.4001ZM222.8 69.8001L247.1 83.8L227.8 94.9001L228 95.2L203.4 81L222.8 69.8001ZM223.6 69.4001L243.4 58L267.7 72L247.9 83.4001L223.6 69.4001ZM268.5 72.4001L290.8 85.3L271 96.7L248.7 83.8L268.5 72.4001ZM269.3 71.9001L288.7 60.7001L311 73.6L291.6 84.8L269.3 71.9001ZM237.8 31.3L218.4 42.5L196.5 29.9L215.9 18.7001L237.8 31.3ZM175.1 42.2001L197 54.9001L177.7 66L177.9 66.3001L155.7 53.5L175.1 42.2001ZM228.5 95.5L247.9 84.3L270.2 97.2L250.8 108.4L228.5 95.5Z" fill="#D1B4E3"/>
<path d="M175.9 41.6C178.1 42.9 197.8 39.7 203.6 43C209.3 46.3 198.9 58.1 206 62.3C213.2 66.4 255.5 53.7 261.9 57.4C268.3 61.1 256.2 75.8 262.5 79.4C268.8 83 280.1 80.4 283.7 82.4C287.3 84.5 280.8 88.2 282.9 89.4L250.7 108L156.2 53.4L175.9 41.6Z" fill="url(#paint73_linear_41_3938)"/>
<path d="M282.6 90C282.1 89.7 281.9 89.3 281.8 89C281.6 88.1 282.2 87.3 282.9 86.2C283.5 85.4 284.2 84.3 284.1 83.7C284.1 83.6 284 83.3 283.4 82.9C282 82.1 279 82.1 275.9 82.1C271.3 82.1 266 82.1 262.2 79.9C258.5 77.8 260.1 72.9 261.6 68.1C263 63.6 264.3 59.4 261.6 57.9C258.7 56.2 246.9 58.4 235.4 60.4C222.1 62.8 209.5 65.1 205.6 62.8C201.3 60.3 202.6 55.6 203.6 51.3C204.7 47.2 205.1 44.7 203.1 43.5C199.7 41.5 190.8 42 184.3 42.3C179.2 42.6 176.4 42.7 175.4 42.1L176.2 40.8C176.9 41.2 180.8 41 184.2 40.8C191.3 40.4 200.1 40 203.9 42.2C207.1 44 206.1 47.9 205.1 51.7C204.1 55.8 203.1 59.6 206.4 61.5C209.8 63.5 223.3 61.1 235.1 58.9C247.9 56.6 258.9 54.6 262.3 56.5C266 58.7 264.5 63.7 263 68.5C261.6 72.9 260.3 77 262.9 78.5C266.3 80.5 271.4 80.5 275.8 80.5C279.3 80.5 282.3 80.5 284.1 81.5C284.9 82 285.4 82.5 285.5 83.2C285.8 84.5 284.9 85.8 284.1 86.9C283.8 87.4 283.2 88.2 283.2 88.5L282.6 90Z" fill="url(#paint74_linear_41_3938)"/>
<path d="M265.6 56.8C265.6 57.5 264.6 58.1 263.4 58.1C262.2 58.1 261.2 57.5 261.2 56.8C261.2 56.1 262.2 55.5 263.4 55.5C264.6 55.5 265.6 56.1 265.6 56.8Z" fill="#EDE2F3"/>
<path opacity="0.02" d="M265.3 59.4001L257.9 46.7001L225 27.6001C220.5 25.0001 220.5 18.6001 225 16.0001L240.2 7.10007C242.3 5.90007 244.8 5.90007 246.9 7.10007L271.3 21.2001L295.7 35.3001C300.2 37.9001 300.2 44.3001 295.7 46.9001L272 59.4001C269.9 60.6001 267.4 60.6001 265.3 59.4001Z" fill="black"/>
<path opacity="0.045" d="M225.7 15.9L231.4 12.5C231.5 12.4 237 9.30004 237.2 9.40004L240.5 7.70004C242.4 6.60004 245.1 6.80004 247 7.90004L266.4 19.1L270.8 21.7L294.7 35.5C294.8 35.6 295 35.7 295.1 35.7C299.1 38.4 299 44.3 294.7 46.8L288.5 50.1C288.4 50.2 282.4 53.2 282.3 53.1L271.8 58C269.9 59.1 267.2 58.9 265.3 57.8L257.7 45.8L256.3 45L225.8 27.3C221.4 24.7 221.4 18.5 225.7 15.9Z" fill="black"/>
<path opacity="0.071" d="M226.5 15.8L232.1 12.5C232.4 12.3 237.5 9.49997 237.8 9.69997L241.1 8.29997C242.8 7.29997 245.7 7.79997 247.4 8.79997L266.4 19.8L270.7 22.3L294 35.8C294.1 35.9 294.3 36 294.4 36C298.3 38.6 298.2 44.4 294.1 46.8L288.1 50C287.8 50.2 282.3 52.9 282 52.7L271.7 56.6C270 57.6 267.1 57.1 265.4 56.2L257.7 44.9L256.3 44.1L226.6 26.9C222.2 24.4 222.2 18.3 226.5 15.8Z" fill="black"/>
<path opacity="0.096" d="M227.2 15.7001L232.7 12.4001C233.1 12.2001 237.9 9.70007 238.3 9.90007L241.5 8.80007C243 7.90007 246.1 8.60007 247.6 9.50007L266.1 20.2001L270.3 22.6001L293.1 36.0001C293.2 36.1001 293.4 36.2001 293.5 36.2001C297.3 38.7001 297.2 44.4001 293.2 46.7001L287.4 49.9001C287 50.1001 281.9 52.6001 281.5 52.3001L271.5 55.3001C270 56.2001 267 55.5001 265.4 54.6001L257.4 44.0001L256 43.2001L227.2 26.5001C223.1 24.1001 223.1 18.1001 227.2 15.7001Z" fill="black"/>
<path opacity="0.122" d="M228 15.7L233.3 12.5C233.8 12.2 238.2 10 238.8 10.3L241.9 9.60002C243.2 8.80002 246.5 9.80002 247.8 10.6L265.8 21L269.9 23.4L292.1 36.2C292.2 36.3 292.4 36.4 292.5 36.4C296.2 38.8 296.2 44.4 292.3 46.7L286.7 49.8C286.2 50.1 281.4 52.2 280.9 51.9L271.2 54C269.9 54.8 266.7 53.9 265.4 53.1L257.4 43.1L256.1 42.3L228.1 26.1C224 23.8 224 18 228 15.7Z" fill="black"/>
<path opacity="0.147" d="M228.7 15.6L233.9 12.5C234.6 12.1 238.6 10.2 239.3 10.6L242.3 10.2C243.4 9.50005 246.9 10.7 248 11.4L265.6 21.6L269.6 23.9L291.2 36.4001C291.3 36.4001 291.5 36.6 291.5 36.6C295.1 39 295.1 44.4 291.3 46.6L285.8 49.6C285.1 50 280.8 51.8001 280.1 51.4001L270.7 52.5C269.6 53.2 266.2 52.0001 265.1 51.4001L256.9 42.1L255.6 41.4001L228.5 25.7C224.8 23.4 224.8 17.8 228.7 15.6Z" fill="black"/>
<path opacity="0.173" d="M229.5 15.5001L234.5 12.5001C235.3 12.0001 239 10.5001 239.8 10.9001L242.8 10.8001C243.7 10.3001 247.4 11.7001 248.3 12.2001L265.4 22.1001L269.3 24.4001L290.4 36.6001C290.5 36.6001 290.7 36.8001 290.7 36.8001C294.3 39.1001 294.2 44.4001 290.5 46.5001L285.2 49.5001C284.4 50.0001 280.5 51.5001 279.7 51.0001L270.6 51.2001C269.7 51.7001 266.2 50.4001 265.2 49.8001L256.9 41.2001L255.6 40.5001L229.4 25.3001C225.7 23.1001 225.7 17.7001 229.5 15.5001Z" fill="black"/>
<path opacity="0.198" d="M230.2 15.4001L235.1 12.4001C236.1 11.8001 239.4 10.6001 240.3 11.1001L243.2 11.3001C244 10.9001 247.8 12.5001 248.5 13.0001L265.2 22.7001L269 24.9001L289.5 36.8001C289.6 36.8001 289.8 37.0001 289.8 37.0001C293.3 39.2001 293.3 44.3001 289.7 46.4001L284.6 49.3001C283.6 49.9001 280.2 51.1001 279.2 50.5001L270.4 49.8001C269.6 50.2001 266 48.7001 265.2 48.2001L256.7 40.2001L255.5 39.5001L230.1 24.8001C226.5 22.8001 226.5 17.5001 230.2 15.4001Z" fill="black"/>
<path opacity="0.224" d="M230.9 15.3L235.7 12.4C236.8 11.8 239.7 10.8 240.8 11.5L243.6 12C244.2 11.7 248.2 13.6 248.7 13.9L264.9 23.3L268.6 25.4L288.6 37L288.9 37.2C292.3 39.4 292.3 44.3 288.8 46.4L283.9 49.3C282.8 49.9 279.7 50.8 278.6 50.2L270.1 48.6C269.5 48.9 265.7 47.1 265.1 46.8L256.5 39.5L255.3 38.8L231 24.5C227.4 22.5 227.4 17.3 230.9 15.3Z" fill="black"/>
<path opacity="0.249" d="M231.7 15.2001L236.3 12.4001C237.5 11.7001 240.1 11.1001 241.3 11.8001L244 12.6001C244.4 12.4001 248.6 14.5001 248.9 14.7001L264.7 23.8001L268.3 25.9001L287.7 37.1001L288 37.3001C291.3 39.4001 291.4 44.2001 287.9 46.2001L283.2 49.0001C282 49.7001 279.3 50.3001 278.1 49.6001L269.9 47.1001C269.5 47.3001 265.5 45.3001 265.2 45.1001L256.5 38.5001L255.4 37.8001L231.7 24.1001C228.3 22.1001 228.3 17.2001 231.7 15.2001Z" fill="black"/>
<path opacity="0.275" d="M232.4 15.1L236.9 12.3C238.3 11.5 240.5 11.2 241.8 12L244.4 13.2C244.6 13.1 248.9 15.5 249.1 15.6L264.4 24.5L267.9 26.5L286.7 37.4L287 37.6C290.2 39.6 290.3 44.3 287 46.2L282.5 48.9C281.1 49.7 278.9 50 277.5 49.2L269.6 45.7C269.4 45.8 265.3 43.6 265.1 43.4L256.2 37.5L255.1 36.9L232.3 23.7C229.1 21.8 229.1 17 232.4 15.1Z" fill="black"/>
<path opacity="0.3" d="M277.1 48.8L255.1 36.1L233.1 23.4C229.9 21.5 229.9 16.9 233.1 15L237.4 12.3C238.9 11.4 240.7 11.4 242.2 12.3L264.2 25L286.2 37.7C289.4 39.6 289.4 44.2 286.2 46.1L281.9 48.8C280.5 49.6 278.6 49.6 277.1 48.8Z" fill="black"/>
<path d="M266.6 54.6L262.8 40.1L223 17.1C218.2 14.4 218.8 9.60003 224.3 6.40003L229.5 3.40003C235 0.200027 243.3 -0.099973 248 2.60003L293.7 29C298.5 31.7 297.9 36.5 292.4 39.7L266.6 54.6Z" fill="url(#paint75_linear_41_3938)"/>
<path opacity="0.8" d="M286.8 32.1L278.4 27.3L276.4 28.4L284.8 33.2L286.8 32.1ZM278.8 32.8L268.8 27L266.8 28.1L276.8 33.9L278.8 32.8ZM268.6 21.6L257.7 15.3L255.7 16.4L266.6 22.7L268.6 21.6ZM276.8 26.3L270.3 22.5L268.3 23.6L274.8 27.4L276.8 26.3ZM267.2 26L261.9 23L259.9 24.1L265.2 27.1L267.2 26ZM253.8 18.2L251.8 19.3L258.4 23.2L260.4 22.1L253.8 18.2ZM245.8 23L256.7 29.3L258.7 28.2L247.8 21.9L245.8 23ZM258.3 30.2L260.7 31.6L262.7 30.5L260.3 29.1L258.3 30.2ZM238.3 16.4L247.1 11.3L244.3 9.7L235.5 14.8L238.3 16.4ZM254.4 11.3L251.6 9.7L239.1 16.9L241.9 18.5L254.4 11.3ZM234.7 14.4L239.7 11.5L236.9 9.9L231.9 12.8L234.7 14.4ZM254.2 12.8L242 19.8L229.7 12.7L240.9 6.2L248.4 10.5L249.4 9.9L240.9 5L227.7 12.6L241.9 20.8L255.1 13.2L254.2 12.8Z" fill="#EBDEF3"/>
<path d="M246.5 122.3L131.2 55.4L130 56.1L246.5 123.2L333.8 72.3L332.6 72.1L246.5 122.3Z" fill="#414042"/>
</g>
<defs>
<linearGradient id="paint0_linear_41_3938" x1="218.323" y1="191.778" x2="218.323" y2="228.045" gradientUnits="userSpaceOnUse">
<stop offset="0.035" stop-color="#6B24D6"/>
<stop offset="0.316" stop-color="#7A1CD0"/>
<stop offset="0.857" stop-color="#A306C1"/>
<stop offset="0.985" stop-color="#AD00BD"/>
</linearGradient>
<linearGradient id="paint1_linear_41_3938" x1="217.043" y1="187.219" x2="214.161" y2="231.481" gradientUnits="userSpaceOnUse">
<stop offset="0.035" stop-color="#6B24D6"/>
<stop offset="0.316" stop-color="#7A1CD0"/>
<stop offset="0.857" stop-color="#A306C1"/>
<stop offset="0.985" stop-color="#AD00BD"/>
</linearGradient>
<linearGradient id="paint2_linear_41_3938" x1="216.398" y1="182.166" x2="209.544" y2="234.565" gradientUnits="userSpaceOnUse">
<stop offset="0.035" stop-color="#6B24D6"/>
<stop offset="0.316" stop-color="#7A1CD0"/>
<stop offset="0.857" stop-color="#A306C1"/>
<stop offset="0.985" stop-color="#AD00BD"/>
</linearGradient>
<linearGradient id="paint3_linear_41_3938" x1="216.477" y1="176.726" x2="204.521" y2="237.226" gradientUnits="userSpaceOnUse">
<stop offset="0.035" stop-color="#6B24D6"/>
<stop offset="0.316" stop-color="#7A1CD0"/>
<stop offset="0.857" stop-color="#A306C1"/>
<stop offset="0.985" stop-color="#AD00BD"/>
</linearGradient>
<linearGradient id="paint4_linear_41_3938" x1="217.338" y1="171.023" x2="199.139" y2="239.398" gradientUnits="userSpaceOnUse">
<stop offset="0.035" stop-color="#6B24D6"/>
<stop offset="0.316" stop-color="#7A1CD0"/>
<stop offset="0.857" stop-color="#A306C1"/>
<stop offset="0.985" stop-color="#AD00BD"/>
</linearGradient>
<linearGradient id="paint5_linear_41_3938" x1="219.021" y1="165.192" x2="193.457" y2="241.02" gradientUnits="userSpaceOnUse">
<stop offset="0.035" stop-color="#6B24D6"/>
<stop offset="0.316" stop-color="#7A1CD0"/>
<stop offset="0.857" stop-color="#A306C1"/>
<stop offset="0.985" stop-color="#AD00BD"/>
</linearGradient>
<linearGradient id="paint6_linear_41_3938" x1="221.543" y1="159.377" x2="187.546" y2="242.037" gradientUnits="userSpaceOnUse">
<stop offset="0.035" stop-color="#6B24D6"/>
<stop offset="0.316" stop-color="#7A1CD0"/>
<stop offset="0.857" stop-color="#A306C1"/>
<stop offset="0.985" stop-color="#AD00BD"/>
</linearGradient>
<linearGradient id="paint7_linear_41_3938" x1="224.896" y1="153.725" x2="181.483" y2="242.407" gradientUnits="userSpaceOnUse">
<stop offset="0.035" stop-color="#6B24D6"/>
<stop offset="0.316" stop-color="#7A1CD0"/>
<stop offset="0.857" stop-color="#A306C1"/>
<stop offset="0.985" stop-color="#AD00BD"/>
</linearGradient>
<linearGradient id="paint8_linear_41_3938" x1="229.286" y1="147.968" x2="175.391" y2="242.039" gradientUnits="userSpaceOnUse">
<stop offset="0.035" stop-color="#6B24D6"/>
<stop offset="0.316" stop-color="#7A1CD0"/>
<stop offset="0.857" stop-color="#A306C1"/>
<stop offset="0.985" stop-color="#AD00BD"/>
</linearGradient>
<linearGradient id="paint9_linear_41_3938" x1="235.171" y1="141.639" x2="166.865" y2="244.701" gradientUnits="userSpaceOnUse">
<stop offset="0.035" stop-color="#6B24D6"/>
<stop offset="0.316" stop-color="#7A1CD0"/>
<stop offset="0.857" stop-color="#A306C1"/>
<stop offset="0.985" stop-color="#AD00BD"/>
</linearGradient>
<linearGradient id="paint10_linear_41_3938" x1="242.207" y1="135.626" x2="157.737" y2="246.664" gradientUnits="userSpaceOnUse">
<stop offset="0.035" stop-color="#6B24D6"/>
<stop offset="0.316" stop-color="#7A1CD0"/>
<stop offset="0.857" stop-color="#A306C1"/>
<stop offset="0.985" stop-color="#AD00BD"/>
</linearGradient>
<linearGradient id="paint11_linear_41_3938" x1="250.414" y1="130.056" x2="148.26" y2="247.623" gradientUnits="userSpaceOnUse">
<stop offset="0.035" stop-color="#6B24D6"/>
<stop offset="0.316" stop-color="#7A1CD0"/>
<stop offset="0.857" stop-color="#A306C1"/>
<stop offset="0.985" stop-color="#AD00BD"/>
</linearGradient>
<linearGradient id="paint12_linear_41_3938" x1="259.72" y1="125.146" x2="138.568" y2="247.515" gradientUnits="userSpaceOnUse">
<stop offset="0.035" stop-color="#6B24D6"/>
<stop offset="0.316" stop-color="#7A1CD0"/>
<stop offset="0.857" stop-color="#A306C1"/>
<stop offset="0.985" stop-color="#AD00BD"/>
</linearGradient>
<linearGradient id="paint13_linear_41_3938" x1="270.016" y1="121.099" x2="128.806" y2="246.296" gradientUnits="userSpaceOnUse">
<stop offset="0.035" stop-color="#6B24D6"/>
<stop offset="0.316" stop-color="#7A1CD0"/>
<stop offset="0.857" stop-color="#A306C1"/>
<stop offset="0.985" stop-color="#AD00BD"/>
</linearGradient>
<linearGradient id="paint14_linear_41_3938" x1="281.154" y1="118.098" x2="119.121" y2="243.939" gradientUnits="userSpaceOnUse">
<stop offset="0.035" stop-color="#6B24D6"/>
<stop offset="0.316" stop-color="#7A1CD0"/>
<stop offset="0.857" stop-color="#A306C1"/>
<stop offset="0.985" stop-color="#AD00BD"/>
</linearGradient>
<linearGradient id="paint15_linear_41_3938" x1="292.956" y1="116.295" x2="109.663" y2="240.431" gradientUnits="userSpaceOnUse">
<stop offset="0.035" stop-color="#6B24D6"/>
<stop offset="0.316" stop-color="#7A1CD0"/>
<stop offset="0.857" stop-color="#A306C1"/>
<stop offset="0.985" stop-color="#AD00BD"/>
</linearGradient>
<linearGradient id="paint16_linear_41_3938" x1="305.206" y1="115.79" x2="100.573" y2="235.76" gradientUnits="userSpaceOnUse">
<stop offset="0.035" stop-color="#6B24D6"/>
<stop offset="0.316" stop-color="#7A1CD0"/>
<stop offset="0.857" stop-color="#A306C1"/>
<stop offset="0.985" stop-color="#AD00BD"/>
</linearGradient>
<linearGradient id="paint17_linear_41_3938" x1="317.671" y1="116.64" x2="91.9939" y2="229.925" gradientUnits="userSpaceOnUse">
<stop offset="0.035" stop-color="#6B24D6"/>
<stop offset="0.316" stop-color="#7A1CD0"/>
<stop offset="0.857" stop-color="#A306C1"/>
<stop offset="0.985" stop-color="#AD00BD"/>
</linearGradient>
<linearGradient id="paint18_linear_41_3938" x1="330.167" y1="118.98" x2="84.1259" y2="223.06" gradientUnits="userSpaceOnUse">
<stop offset="0.035" stop-color="#6B24D6"/>
<stop offset="0.316" stop-color="#7A1CD0"/>
<stop offset="0.857" stop-color="#A306C1"/>
<stop offset="0.985" stop-color="#AD00BD"/>
</linearGradient>
<linearGradient id="paint19_linear_41_3938" x1="342.455" y1="122.838" x2="77.115" y2="215.257" gradientUnits="userSpaceOnUse">
<stop offset="0.035" stop-color="#6B24D6"/>
<stop offset="0.316" stop-color="#7A1CD0"/>
<stop offset="0.857" stop-color="#A306C1"/>
<stop offset="0.985" stop-color="#AD00BD"/>
</linearGradient>
<linearGradient id="paint20_linear_41_3938" x1="354.292" y1="128.206" x2="71.093" y2="206.623" gradientUnits="userSpaceOnUse">
<stop offset="0.035" stop-color="#6B24D6"/>
<stop offset="0.316" stop-color="#7A1CD0"/>
<stop offset="0.857" stop-color="#A306C1"/>
<stop offset="0.985" stop-color="#AD00BD"/>
</linearGradient>
<linearGradient id="paint21_linear_41_3938" x1="365.423" y1="135.038" x2="66.173" y2="197.288" gradientUnits="userSpaceOnUse">
<stop offset="0.035" stop-color="#6B24D6"/>
<stop offset="0.316" stop-color="#7A1CD0"/>
<stop offset="0.857" stop-color="#A306C1"/>
<stop offset="0.985" stop-color="#AD00BD"/>
</linearGradient>
<linearGradient id="paint22_linear_41_3938" x1="364.189" y1="137.294" x2="64.8539" y2="195.628" gradientUnits="userSpaceOnUse">
<stop offset="0.035" stop-color="#6B24D6"/>
<stop offset="0.316" stop-color="#7A1CD0"/>
<stop offset="0.857" stop-color="#A306C1"/>
<stop offset="0.985" stop-color="#AD00BD"/>
</linearGradient>
<linearGradient id="paint23_linear_41_3938" x1="364.061" y1="137.018" x2="64.8689" y2="195.323" gradientUnits="userSpaceOnUse">
<stop offset="0.035" stop-color="#702AD7"/>
<stop offset="0.331" stop-color="#7F22D1"/>
<stop offset="0.902" stop-color="#A80CC1"/>
<stop offset="0.985" stop-color="#AE08BF"/>
</linearGradient>
<linearGradient id="paint24_linear_41_3938" x1="363.966" y1="136.735" x2="64.8769" y2="195.02" gradientUnits="userSpaceOnUse">
<stop offset="0.035" stop-color="#7430D7"/>
<stop offset="0.339" stop-color="#8328D1"/>
<stop offset="0.926" stop-color="#AC12C3"/>
<stop offset="0.985" stop-color="#B010C1"/>
</linearGradient>
<linearGradient id="paint25_linear_41_3938" x1="363.884" y1="136.449" x2="64.8829" y2="194.717" gradientUnits="userSpaceOnUse">
<stop offset="0.035" stop-color="#7937D8"/>
<stop offset="0.357" stop-color="#882ED2"/>
<stop offset="0.979" stop-color="#B118C2"/>
<stop offset="0.985" stop-color="#B118C2"/>
</linearGradient>
<linearGradient id="paint26_linear_41_3938" x1="363.805" y1="136.163" x2="64.8869" y2="194.415" gradientUnits="userSpaceOnUse">
<stop offset="0.035" stop-color="#7D3DD8"/>
<stop offset="0.367" stop-color="#8C35D2"/>
<stop offset="0.985" stop-color="#B320C4"/>
</linearGradient>
<linearGradient id="paint27_linear_41_3938" x1="363.727" y1="135.876" x2="64.8899" y2="194.113" gradientUnits="userSpaceOnUse">
<stop offset="0.035" stop-color="#8243D9"/>
<stop offset="0.389" stop-color="#913BD3"/>
<stop offset="0.985" stop-color="#B428C6"/>
</linearGradient>
<linearGradient id="paint28_linear_41_3938" x1="363.65" y1="135.59" x2="64.892" y2="193.811" gradientUnits="userSpaceOnUse">
<stop offset="0.035" stop-color="#8649DA"/>
<stop offset="0.402" stop-color="#9541D4"/>
<stop offset="0.985" stop-color="#B62FC8"/>
</linearGradient>
<linearGradient id="paint29_linear_41_3938" x1="363.575" y1="135.303" x2="64.894" y2="193.509" gradientUnits="userSpaceOnUse">
<stop offset="0.035" stop-color="#8B4FDA"/>
<stop offset="0.429" stop-color="#9A47D4"/>
<stop offset="0.985" stop-color="#B737CA"/>
</linearGradient>
<linearGradient id="paint30_linear_41_3938" x1="363.502" y1="135.016" x2="64.895" y2="193.207" gradientUnits="userSpaceOnUse">
<stop offset="0.035" stop-color="#9056DB"/>
<stop offset="0.462" stop-color="#9F4DD5"/>
<stop offset="0.985" stop-color="#B83FCB"/>
</linearGradient>
<linearGradient id="paint31_linear_41_3938" x1="363.432" y1="134.728" x2="64.895" y2="192.906" gradientUnits="userSpaceOnUse">
<stop offset="0.035" stop-color="#945CDC"/>
<stop offset="0.481" stop-color="#A353D6"/>
<stop offset="0.985" stop-color="#BA47CD"/>
</linearGradient>
<linearGradient id="paint32_linear_41_3938" x1="363.365" y1="134.439" x2="64.895" y2="192.604" gradientUnits="userSpaceOnUse">
<stop offset="0.035" stop-color="#9962DC"/>
<stop offset="0.523" stop-color="#A859D6"/>
<stop offset="0.985" stop-color="#BB4FCF"/>
</linearGradient>
<linearGradient id="paint33_linear_41_3938" x1="363.303" y1="134.15" x2="64.895" y2="192.303" gradientUnits="userSpaceOnUse">
<stop offset="0.035" stop-color="#9D68DD"/>
<stop offset="0.549" stop-color="#AC60D7"/>
<stop offset="0.985" stop-color="#BD57D1"/>
</linearGradient>
<linearGradient id="paint34_linear_41_3938" x1="363.246" y1="133.859" x2="64.8949" y2="192.001" gradientUnits="userSpaceOnUse">
<stop offset="0.035" stop-color="#A26EDD"/>
<stop offset="0.61" stop-color="#B166D8"/>
<stop offset="0.985" stop-color="#BE5FD3"/>
</linearGradient>
<linearGradient id="paint35_linear_41_3938" x1="363.195" y1="133.568" x2="64.8939" y2="191.7" gradientUnits="userSpaceOnUse">
<stop offset="0.035" stop-color="#A674DE"/>
<stop offset="0.646" stop-color="#B56CD9"/>
<stop offset="0.985" stop-color="#C067D5"/>
</linearGradient>
<linearGradient id="paint36_linear_41_3938" x1="363.15" y1="133.275" x2="64.893" y2="191.398" gradientUnits="userSpaceOnUse">
<stop offset="0.035" stop-color="#AB7BDF"/>
<stop offset="0.738" stop-color="#BA73D9"/>
<stop offset="0.985" stop-color="#C16FD6"/>
</linearGradient>
<linearGradient id="paint37_linear_41_3938" x1="363.112" y1="132.981" x2="64.892" y2="191.097" gradientUnits="userSpaceOnUse">
<stop offset="0.035" stop-color="#B081DF"/>
<stop offset="0.867" stop-color="#BF78D9"/>
<stop offset="0.985" stop-color="#C277D8"/>
</linearGradient>
<linearGradient id="paint38_linear_41_3938" x1="363.079" y1="132.685" x2="64.8899" y2="190.796" gradientUnits="userSpaceOnUse">
<stop offset="0.035" stop-color="#B487E0"/>
<stop offset="0.953" stop-color="#C37EDA"/>
<stop offset="0.985" stop-color="#C47EDA"/>
</linearGradient>
<linearGradient id="paint39_linear_41_3938" x1="363.053" y1="132.389" x2="64.8879" y2="190.494" gradientUnits="userSpaceOnUse">
<stop offset="0.035" stop-color="#B98DE1"/>
<stop offset="0.985" stop-color="#C586DC"/>
</linearGradient>
<linearGradient id="paint40_linear_41_3938" x1="363.032" y1="132.092" x2="64.886" y2="190.193" gradientUnits="userSpaceOnUse">
<stop offset="0.035" stop-color="#BD93E1"/>
<stop offset="0.985" stop-color="#C78EDE"/>
</linearGradient>
<linearGradient id="paint41_linear_41_3938" x1="363.016" y1="131.793" x2="64.884" y2="189.892" gradientUnits="userSpaceOnUse">
<stop offset="0.035" stop-color="#C29AE2"/>
<stop offset="0.985" stop-color="#C896DF"/>
</linearGradient>
<linearGradient id="paint42_linear_41_3938" x1="363.004" y1="131.494" x2="64.881" y2="189.591" gradientUnits="userSpaceOnUse">
<stop offset="0.035" stop-color="#C6A0E2"/>
<stop offset="0.985" stop-color="#CA9EE1"/>
</linearGradient>
<linearGradient id="paint43_linear_41_3938" x1="314.576" y1="177.795" x2="309.201" y2="164.545" gradientUnits="userSpaceOnUse">
<stop offset="0.035" stop-color="#6B24D6"/>
<stop offset="0.316" stop-color="#7A1CD0"/>
<stop offset="0.857" stop-color="#A306C1"/>
<stop offset="0.985" stop-color="#AD00BD"/>
</linearGradient>
<linearGradient id="paint44_linear_41_3938" x1="309.475" y1="232.576" x2="316.195" y2="238.559" gradientUnits="userSpaceOnUse">
<stop offset="0.035" stop-color="#B081DF"/>
<stop offset="0.867" stop-color="#BF78D9"/>
<stop offset="0.985" stop-color="#C277D8"/>
</linearGradient>
<linearGradient id="paint45_linear_41_3938" x1="265.309" y1="84.243" x2="125.178" y2="303.955" gradientUnits="userSpaceOnUse">
<stop stop-color="white"/>
<stop offset="1" stop-color="#E5D4EF"/>
</linearGradient>
<linearGradient id="paint46_linear_41_3938" x1="181.253" y1="153.815" x2="168.221" y2="221.897" gradientUnits="userSpaceOnUse">
<stop offset="0.035" stop-color="#6B24D6"/>
<stop offset="0.316" stop-color="#7A1CD0"/>
<stop offset="0.857" stop-color="#A306C1"/>
<stop offset="0.985" stop-color="#AD00BD"/>
</linearGradient>
<linearGradient id="paint47_linear_41_3938" x1="17.773" y1="-24.936" x2="205.639" y2="330.227" gradientUnits="userSpaceOnUse">
<stop offset="0.035" stop-color="#6B24D6"/>
<stop offset="0.316" stop-color="#7A1CD0"/>
<stop offset="0.857" stop-color="#A306C1"/>
<stop offset="0.985" stop-color="#AD00BD"/>
</linearGradient>
<linearGradient id="paint48_linear_41_3938" x1="111.185" y1="181.043" x2="137.131" y2="181.043" gradientUnits="userSpaceOnUse">
<stop stop-color="#2D085D"/>
<stop offset="1" stop-color="#410F82"/>
</linearGradient>
<linearGradient id="paint49_linear_41_3938" x1="100.317" y1="171.668" x2="137.004" y2="171.668" gradientUnits="userSpaceOnUse">
<stop stop-color="#2D085D"/>
<stop offset="1" stop-color="#410F82"/>
</linearGradient>
<linearGradient id="paint50_linear_41_3938" x1="89.448" y1="167.331" x2="119.422" y2="167.331" gradientUnits="userSpaceOnUse">
<stop stop-color="#2D085D"/>
<stop offset="1" stop-color="#410F82"/>
</linearGradient>
<linearGradient id="paint51_linear_41_3938" x1="78.58" y1="162.219" x2="104.527" y2="162.219" gradientUnits="userSpaceOnUse">
<stop stop-color="#2D085D"/>
<stop offset="1" stop-color="#410F82"/>
</linearGradient>
<linearGradient id="paint52_linear_41_3938" x1="67.712" y1="157.494" x2="88.288" y2="157.494" gradientUnits="userSpaceOnUse">
<stop stop-color="#2D085D"/>
<stop offset="1" stop-color="#410F82"/>
</linearGradient>
<linearGradient id="paint53_linear_41_3938" x1="56.844" y1="148.791" x2="85.8341" y2="148.791" gradientUnits="userSpaceOnUse">
<stop stop-color="#2D085D"/>
<stop offset="1" stop-color="#410F82"/>
</linearGradient>
<linearGradient id="paint54_linear_41_3938" x1="45.976" y1="143.808" x2="70.49" y2="143.808" gradientUnits="userSpaceOnUse">
<stop stop-color="#2D085D"/>
<stop offset="1" stop-color="#410F82"/>
</linearGradient>
<linearGradient id="paint55_linear_41_3938" x1="111.185" y1="182.542" x2="131.94" y2="182.542" gradientUnits="userSpaceOnUse">
<stop stop-color="#2D085D"/>
<stop offset="1" stop-color="#410F82"/>
</linearGradient>
<linearGradient id="paint56_linear_41_3938" x1="100.317" y1="173.942" x2="129.127" y2="173.942" gradientUnits="userSpaceOnUse">
<stop stop-color="#2D085D"/>
<stop offset="1" stop-color="#410F82"/>
</linearGradient>
<linearGradient id="paint57_linear_41_3938" x1="89.448" y1="168.442" x2="115.574" y2="168.442" gradientUnits="userSpaceOnUse">
<stop stop-color="#2D085D"/>
<stop offset="1" stop-color="#410F82"/>
</linearGradient>
<linearGradient id="paint58_linear_41_3938" x1="78.58" y1="163.718" x2="99.335" y2="163.718" gradientUnits="userSpaceOnUse">
<stop stop-color="#2D085D"/>
<stop offset="1" stop-color="#410F82"/>
</linearGradient>
<linearGradient id="paint59_linear_41_3938" x1="67.712" y1="158.993" x2="83.097" y2="158.993" gradientUnits="userSpaceOnUse">
<stop stop-color="#2D085D"/>
<stop offset="1" stop-color="#410F82"/>
</linearGradient>
<linearGradient id="paint60_linear_41_3938" x1="56.844" y1="150.29" x2="80.642" y2="150.29" gradientUnits="userSpaceOnUse">
<stop stop-color="#2D085D"/>
<stop offset="1" stop-color="#410F82"/>
</linearGradient>
<linearGradient id="paint61_linear_41_3938" x1="45.976" y1="146.082" x2="62.614" y2="146.082" gradientUnits="userSpaceOnUse">
<stop stop-color="#2D085D"/>
<stop offset="1" stop-color="#410F82"/>
</linearGradient>
<linearGradient id="paint62_linear_41_3938" x1="71.9501" y1="114.354" x2="40.1242" y2="163.839" gradientUnits="userSpaceOnUse">
<stop stop-color="#2D085D"/>
<stop offset="1" stop-color="#410F82"/>
</linearGradient>
<linearGradient id="paint63_linear_41_3938" x1="77.427" y1="89.3421" x2="86.0939" y2="117.342" gradientUnits="userSpaceOnUse">
<stop offset="0.035" stop-color="#6B24D6"/>
<stop offset="0.316" stop-color="#7A1CD0"/>
<stop offset="0.857" stop-color="#A306C1"/>
<stop offset="0.985" stop-color="#AD00BD"/>
</linearGradient>
<linearGradient id="paint64_linear_41_3938" x1="22.68" y1="137.78" x2="41.509" y2="137.78" gradientUnits="userSpaceOnUse">
<stop stop-color="#2D085D"/>
<stop offset="1" stop-color="#410F82"/>
</linearGradient>
<linearGradient id="paint65_linear_41_3938" x1="61.273" y1="-81.436" x2="249.139" y2="273.727" gradientUnits="userSpaceOnUse">
<stop offset="0.035" stop-color="#9F19AB"/>
<stop offset="0.244" stop-color="#AE25B1"/>
<stop offset="0.645" stop-color="#D744BF"/>
<stop offset="1" stop-color="#FF63CE"/>
</linearGradient>
<linearGradient id="paint66_linear_41_3938" x1="192.804" y1="19.784" x2="116.636" y2="92.236" gradientUnits="userSpaceOnUse">
<stop offset="0.035" stop-color="#6B24D6"/>
<stop offset="0.316" stop-color="#7A1CD0"/>
<stop offset="0.857" stop-color="#A306C1"/>
<stop offset="0.985" stop-color="#AD00BD"/>
</linearGradient>
<linearGradient id="paint67_linear_41_3938" x1="136.362" y1="25.471" x2="124.844" y2="82.319" gradientUnits="userSpaceOnUse">
<stop offset="0.035" stop-color="#6B24D6"/>
<stop offset="0.316" stop-color="#7A1CD0"/>
<stop offset="0.857" stop-color="#A306C1"/>
<stop offset="0.985" stop-color="#AD00BD"/>
</linearGradient>
<linearGradient id="paint68_linear_41_3938" x1="118.734" y1="47.179" x2="94.583" y2="117.402" gradientUnits="userSpaceOnUse">
<stop offset="0.035" stop-color="#6B24D6"/>
<stop offset="0.316" stop-color="#7A1CD0"/>
<stop offset="0.857" stop-color="#A306C1"/>
<stop offset="0.985" stop-color="#AD00BD"/>
</linearGradient>
<linearGradient id="paint69_linear_41_3938" x1="75.61" y1="76.741" x2="83.777" y2="110.242" gradientUnits="userSpaceOnUse">
<stop offset="0.035" stop-color="#6B24D6"/>
<stop offset="0.316" stop-color="#7A1CD0"/>
<stop offset="0.857" stop-color="#A306C1"/>
<stop offset="0.985" stop-color="#AD00BD"/>
</linearGradient>
<linearGradient id="paint70_linear_41_3938" x1="107.95" y1="80.496" x2="117.45" y2="108.829" gradientUnits="userSpaceOnUse">
<stop offset="0.035" stop-color="#6B24D6"/>
<stop offset="0.316" stop-color="#7A1CD0"/>
<stop offset="0.857" stop-color="#A306C1"/>
<stop offset="0.985" stop-color="#AD00BD"/>
</linearGradient>
<linearGradient id="paint71_linear_41_3938" x1="85.801" y1="67.617" x2="103.726" y2="112.725" gradientUnits="userSpaceOnUse">
<stop offset="0.035" stop-color="#6B24D6"/>
<stop offset="0.316" stop-color="#7A1CD0"/>
<stop offset="0.857" stop-color="#A306C1"/>
<stop offset="0.985" stop-color="#AD00BD"/>
</linearGradient>
<linearGradient id="paint72_linear_41_3938" x1="143.773" y1="-104.436" x2="331.639" y2="250.727" gradientUnits="userSpaceOnUse">
<stop stop-color="#2D085D"/>
<stop offset="1" stop-color="#410F82"/>
</linearGradient>
<linearGradient id="paint73_linear_41_3938" x1="211.767" y1="85.405" x2="247.767" y2="20.905" gradientUnits="userSpaceOnUse">
<stop stop-color="#5513AB"/>
<stop offset="1" stop-color="#BE3BFF"/>
</linearGradient>
<linearGradient id="paint74_linear_41_3938" x1="175.575" y1="65.32" x2="285.661" y2="65.32" gradientUnits="userSpaceOnUse">
<stop offset="0.035" stop-color="#9F19AB"/>
<stop offset="0.244" stop-color="#AE25B1"/>
<stop offset="0.645" stop-color="#D744BF"/>
<stop offset="1" stop-color="#FF63CE"/>
</linearGradient>
<linearGradient id="paint75_linear_41_3938" x1="222.324" y1="-30.136" x2="315.964" y2="107.911" gradientUnits="userSpaceOnUse">
<stop offset="0.035" stop-color="#9F19AB"/>
<stop offset="0.244" stop-color="#AE25B1"/>
<stop offset="0.645" stop-color="#D744BF"/>
<stop offset="1" stop-color="#FF63CE"/>
</linearGradient>
<clipPath id="clip0_41_3938">
<rect width="375.6" height="283.4" fill="white"/>
</clipPath>
</defs>
</svg>
